<svg xmlns="http://www.w3.org/2000/svg" version="1.1" xmlns:xlink="http://www.w3.org/1999/xlink" width="512" height="512" x="0" y="0" viewBox="0 0 480.252 480.252" style="enable-background:new 0 0 512 512" xml:space="preserve" class=""><g><path d="M456.126 464.252v-296a8 8 0 0 0-8-8h-80a8 8 0 0 0-8 8v296h-16v-184a8 8 0 0 0-8-8h-80a8 8 0 0 0-8 8v184h-16v-264a8 8 0 0 0-8-8h-80a8 8 0 0 0-8 8v264h-16v-152a8 8 0 0 0-8-8h-80a8 8 0 0 0-8 8v152h-24v16h480v-16h-24zm-352 0h-64v-144h64v144zm112 0h-64v-256h64v256zm112 0h-64v-176h64v176zm112 0h-64v-288h64v288z" fill="#000000" opacity="1" data-original="#000000" class=""></path><path d="M50.065 217.62a39.996 39.996 0 0 0 22.061 6.632c22.091-.001 39.999-17.91 39.998-40.002a39.999 39.999 0 0 0-6.63-22.054l56.624-56.632a39.592 39.592 0 0 0 21.928 6.688 40.148 40.148 0 0 0 7.024-.616 39.715 39.715 0 0 0 20.304-10.144l47.464 36.488c-7.922 20.622 2.373 43.762 22.995 51.684 20.622 7.922 43.762-2.373 51.684-22.995a40.001 40.001 0 0 0-4.023-36.481l56.608-56.608c18.477 12.23 43.37 7.165 55.599-11.312 12.23-18.477 7.165-43.37-11.312-55.599-18.477-12.23-43.37-7.165-55.599 11.312a40.12 40.12 0 0 0 0 44.287l-56.608 56.608c-15.855-10.48-36.895-8.357-50.336 5.08-.152.152-.24.328-.384.472l-46.776-35.952c8.985-20.182-.092-43.826-20.274-52.811-20.182-8.985-43.826.092-52.811 20.274a40 40 0 0 0 3.181 38.336l-56.6 56.608c-18.429-12.183-43.244-7.119-55.427 11.31-12.182 18.429-7.119 43.244 11.31 55.427zM408.126 16.252c13.255 0 24 10.745 24 24s-10.745 24-24 24-24-10.745-24-24 10.745-24 24-24zM279.147 135.287a23.999 23.999 0 0 1 16.979-7.035c13.255-.002 24.001 10.742 24.003 23.997a23.999 23.999 0 0 1-7.035 16.979c-9.5 9.055-24.436 9.055-33.936 0-9.376-9.37-9.38-24.566-.011-33.941zm-114.679-76.8.002-.003a23.85 23.85 0 0 1 15.488-9.872 25.033 25.033 0 0 1 4.216-.36 23.918 23.918 0 0 1 13.72 4.344c10.857 7.604 13.495 22.569 5.891 33.426s-22.569 13.494-33.426 5.891c-10.857-7.604-13.495-22.569-5.891-33.426zm-109.321 108.8.011-.011c9.376-9.371 24.573-9.368 33.944.008 9.371 9.376 9.368 24.573-.008 33.944-9.5 9.055-24.436 9.055-33.936 0-9.376-9.37-9.38-24.566-.011-33.941z" fill="#000000" opacity="1" data-original="#000000" class=""></path></g></svg>