<svg xmlns="http://www.w3.org/2000/svg" version="1.1" xmlns:xlink="http://www.w3.org/1999/xlink" width="512" height="512" x="0" y="0" viewBox="0 0 64 64" style="enable-background:new 0 0 512 512" xml:space="preserve" class=""><g><path d="M16.7 13.77c.62.46 1.51.81 2.72 1.07 1.14.25 1.69.53 1.95.72.17.12.27.27.27.63 0 .23-.05.49-.42.79-.36.29-.88.44-1.55.44-.72 0-1.28-.16-1.64-.47-.27-.23-.4-.46-.41-.76-.03-.55-.54-.97-1.05-.94-.55.03-.97.5-.94 1.06.05.86.42 1.59 1.12 2.18.51.43 1.15.71 1.89.84v1.02c0 .55.45 1 1 1s1-.45 1-1v-1c.72-.12 1.35-.39 1.86-.8.76-.62 1.15-1.41 1.15-2.34s-.37-1.71-1.08-2.23c-.61-.46-1.5-.81-2.72-1.07-1.15-.25-1.69-.53-1.95-.72-.16-.12-.27-.27-.27-.63 0-.23.05-.49.42-.79.36-.29.88-.44 1.54-.44.72 0 1.28.16 1.64.47.27.23.39.46.41.76.03.55.5.99 1.06.94.55-.03.97-.51.94-1.06-.05-.86-.43-1.59-1.12-2.17-.51-.43-1.15-.7-1.89-.84V7.41c0-.55-.45-1-1-1s-1 .45-1 1v1c-.72.12-1.35.39-1.86.8-.77.63-1.15 1.41-1.15 2.34s.37 1.71 1.08 2.23zM14.21 24.75h23.36c.55 0 1-.45 1-1s-.45-1-1-1H14.21c-.55 0-1 .45-1 1s.45 1 1 1zM14.21 30.93h23.36c.55 0 1-.45 1-1s-.45-1-1-1H14.21c-.55 0-1 .45-1 1s.45 1 1 1zM14.21 37.11h16.07c.55 0 1-.45 1-1s-.45-1-1-1H14.21c-.55 0-1 .45-1 1s.45 1 1 1zM25.01 41.29h-10.8c-.55 0-1 .45-1 1s.45 1 1 1h10.8c.55 0 1-.45 1-1s-.45-1-1-1z" fill="#000000" opacity="1" data-original="#000000" class=""></path><path d="M44.94 35.54V16.17c0-.26-.1-.52-.29-.7L31.6 2.3a1 1 0 0 0-.71-.3H7.85c-.55 0-1 .45-1 1v45.75c0 .55.45 1 1 1h22.93C31.29 56.59 36.99 62 43.94 62s13.21-5.95 13.21-13.25-5.39-12.69-12.21-13.2zM31.89 5.43l9.66 9.74h-9.66zM8.85 4h21.04v12.17c0 .55.45 1 1 1h12.06v18.37c-6.49.49-11.67 5.69-12.16 12.2H8.85zm35.09 56c-6.18 0-11.21-5.05-11.21-11.25S37.76 37.5 43.94 37.5s11.21 5.05 11.21 11.25S50.12 60 43.94 60z" fill="#000000" opacity="1" data-original="#000000" class=""></path><path d="m47.55 45.35-4.69 4.67-2.53-2.52a.996.996 0 1 0-1.41 1.41l3.23 3.22c.2.19.45.29.71.29s.51-.1.71-.29l5.39-5.37a.996.996 0 1 0-1.41-1.41z" fill="#000000" opacity="1" data-original="#000000" class=""></path></g></svg>