<svg width="16" height="18" viewBox="0 0 16 18" fill="none" xmlns="http://www.w3.org/2000/svg">
<g id="Group">
<g id="Vector">
<path fill-rule="evenodd" clip-rule="evenodd" d="M11.375 1.875H8.375V0.75C8.375 0.650544 8.33549 0.555161 8.26517 0.484835C8.19484 0.414509 8.09946 0.375 8 0.375C7.90054 0.375 7.80516 0.414509 7.73483 0.484835C7.66451 0.555161 7.625 0.650544 7.625 0.75V1.875H4.625V0.75C4.625 0.650544 4.58549 0.555161 4.51516 0.484835C4.44484 0.414509 4.34946 0.375 4.25 0.375C4.15054 0.375 4.05516 0.414509 3.98484 0.484835C3.91451 0.555161 3.875 0.650544 3.875 0.75V1.875H2.75C2.25272 1.875 1.77581 2.07254 1.42417 2.42417C1.07254 2.77581 0.875 3.25272 0.875 3.75V15.75C0.875 16.2473 1.07254 16.7242 1.42417 17.0758C1.77581 17.4275 2.25272 17.625 2.75 17.625H13.25C13.7473 17.625 14.2242 17.4275 14.5758 17.0758C14.9275 16.7242 15.125 16.2473 15.125 15.75V3.75C15.125 3.25272 14.9275 2.77581 14.5758 2.42417C14.2242 2.07254 13.7473 1.875 13.25 1.875H12.125V0.75C12.125 0.650544 12.0855 0.555161 12.0152 0.484835C11.9448 0.414509 11.8495 0.375 11.75 0.375C11.6505 0.375 11.5552 0.414509 11.4848 0.484835C11.4145 0.555161 11.375 0.650544 11.375 0.75V1.875ZM12.125 2.625V3.75C12.125 3.84946 12.0855 3.94484 12.0152 4.01516C11.9448 4.08549 11.8495 4.125 11.75 4.125C11.6505 4.125 11.5552 4.08549 11.4848 4.01516C11.4145 3.94484 11.375 3.84946 11.375 3.75V2.625H8.375V3.75C8.375 3.84946 8.33549 3.94484 8.26517 4.01516C8.19484 4.08549 8.09946 4.125 8 4.125C7.90054 4.125 7.80516 4.08549 7.73483 4.01516C7.66451 3.94484 7.625 3.84946 7.625 3.75V2.625H4.625V3.75C4.625 3.84946 4.58549 3.94484 4.51516 4.01516C4.44484 4.08549 4.34946 4.125 4.25 4.125C4.15054 4.125 4.05516 4.08549 3.98484 4.01516C3.91451 3.94484 3.875 3.84946 3.875 3.75V2.625H2.75C2.45163 2.625 2.16548 2.74353 1.9545 2.9545C1.74353 3.16548 1.625 3.45163 1.625 3.75V15.75C1.625 16.0484 1.74353 16.3345 1.9545 16.5455C2.16548 16.7565 2.45163 16.875 2.75 16.875H13.25C13.5484 16.875 13.8345 16.7565 14.0455 16.5455C14.2565 16.3345 14.375 16.0484 14.375 15.75V3.75C14.375 3.45163 14.2565 3.16548 14.0455 2.9545C13.8345 2.74353 13.5484 2.625 13.25 2.625H12.125Z" fill="#040D12"/>
<path fill-rule="evenodd" clip-rule="evenodd" d="M11.375 1.875H8.375V0.75C8.375 0.650544 8.33549 0.555161 8.26517 0.484835C8.19484 0.414509 8.09946 0.375 8 0.375C7.90054 0.375 7.80516 0.414509 7.73483 0.484835C7.66451 0.555161 7.625 0.650544 7.625 0.75V1.875H4.625V0.75C4.625 0.650544 4.58549 0.555161 4.51516 0.484835C4.44484 0.414509 4.34946 0.375 4.25 0.375C4.15054 0.375 4.05516 0.414509 3.98484 0.484835C3.91451 0.555161 3.875 0.650544 3.875 0.75V1.875H2.75C2.25272 1.875 1.77581 2.07254 1.42417 2.42417C1.07254 2.77581 0.875 3.25272 0.875 3.75V15.75C0.875 16.2473 1.07254 16.7242 1.42417 17.0758C1.77581 17.4275 2.25272 17.625 2.75 17.625H13.25C13.7473 17.625 14.2242 17.4275 14.5758 17.0758C14.9275 16.7242 15.125 16.2473 15.125 15.75V3.75C15.125 3.25272 14.9275 2.77581 14.5758 2.42417C14.2242 2.07254 13.7473 1.875 13.25 1.875H12.125V0.75C12.125 0.650544 12.0855 0.555161 12.0152 0.484835C11.9448 0.414509 11.8495 0.375 11.75 0.375C11.6505 0.375 11.5552 0.414509 11.4848 0.484835C11.4145 0.555161 11.375 0.650544 11.375 0.75V1.875ZM12.125 2.625V3.75C12.125 3.84946 12.0855 3.94484 12.0152 4.01516C11.9448 4.08549 11.8495 4.125 11.75 4.125C11.6505 4.125 11.5552 4.08549 11.4848 4.01516C11.4145 3.94484 11.375 3.84946 11.375 3.75V2.625H8.375V3.75C8.375 3.84946 8.33549 3.94484 8.26517 4.01516C8.19484 4.08549 8.09946 4.125 8 4.125C7.90054 4.125 7.80516 4.08549 7.73483 4.01516C7.66451 3.94484 7.625 3.84946 7.625 3.75V2.625H4.625V3.75C4.625 3.84946 4.58549 3.94484 4.51516 4.01516C4.44484 4.08549 4.34946 4.125 4.25 4.125C4.15054 4.125 4.05516 4.08549 3.98484 4.01516C3.91451 3.94484 3.875 3.84946 3.875 3.75V2.625H2.75C2.45163 2.625 2.16548 2.74353 1.9545 2.9545C1.74353 3.16548 1.625 3.45163 1.625 3.75V15.75C1.625 16.0484 1.74353 16.3345 1.9545 16.5455C2.16548 16.7565 2.45163 16.875 2.75 16.875H13.25C13.5484 16.875 13.8345 16.7565 14.0455 16.5455C14.2565 16.3345 14.375 16.0484 14.375 15.75V3.75C14.375 3.45163 14.2565 3.16548 14.0455 2.9545C13.8345 2.74353 13.5484 2.625 13.25 2.625H12.125Z" fill="black" fill-opacity="0.2"/>
<path fill-rule="evenodd" clip-rule="evenodd" d="M11.375 1.875H8.375V0.75C8.375 0.650544 8.33549 0.555161 8.26517 0.484835C8.19484 0.414509 8.09946 0.375 8 0.375C7.90054 0.375 7.80516 0.414509 7.73483 0.484835C7.66451 0.555161 7.625 0.650544 7.625 0.75V1.875H4.625V0.75C4.625 0.650544 4.58549 0.555161 4.51516 0.484835C4.44484 0.414509 4.34946 0.375 4.25 0.375C4.15054 0.375 4.05516 0.414509 3.98484 0.484835C3.91451 0.555161 3.875 0.650544 3.875 0.75V1.875H2.75C2.25272 1.875 1.77581 2.07254 1.42417 2.42417C1.07254 2.77581 0.875 3.25272 0.875 3.75V15.75C0.875 16.2473 1.07254 16.7242 1.42417 17.0758C1.77581 17.4275 2.25272 17.625 2.75 17.625H13.25C13.7473 17.625 14.2242 17.4275 14.5758 17.0758C14.9275 16.7242 15.125 16.2473 15.125 15.75V3.75C15.125 3.25272 14.9275 2.77581 14.5758 2.42417C14.2242 2.07254 13.7473 1.875 13.25 1.875H12.125V0.75C12.125 0.650544 12.0855 0.555161 12.0152 0.484835C11.9448 0.414509 11.8495 0.375 11.75 0.375C11.6505 0.375 11.5552 0.414509 11.4848 0.484835C11.4145 0.555161 11.375 0.650544 11.375 0.75V1.875ZM12.125 2.625V3.75C12.125 3.84946 12.0855 3.94484 12.0152 4.01516C11.9448 4.08549 11.8495 4.125 11.75 4.125C11.6505 4.125 11.5552 4.08549 11.4848 4.01516C11.4145 3.94484 11.375 3.84946 11.375 3.75V2.625H8.375V3.75C8.375 3.84946 8.33549 3.94484 8.26517 4.01516C8.19484 4.08549 8.09946 4.125 8 4.125C7.90054 4.125 7.80516 4.08549 7.73483 4.01516C7.66451 3.94484 7.625 3.84946 7.625 3.75V2.625H4.625V3.75C4.625 3.84946 4.58549 3.94484 4.51516 4.01516C4.44484 4.08549 4.34946 4.125 4.25 4.125C4.15054 4.125 4.05516 4.08549 3.98484 4.01516C3.91451 3.94484 3.875 3.84946 3.875 3.75V2.625H2.75C2.45163 2.625 2.16548 2.74353 1.9545 2.9545C1.74353 3.16548 1.625 3.45163 1.625 3.75V15.75C1.625 16.0484 1.74353 16.3345 1.9545 16.5455C2.16548 16.7565 2.45163 16.875 2.75 16.875H13.25C13.5484 16.875 13.8345 16.7565 14.0455 16.5455C14.2565 16.3345 14.375 16.0484 14.375 15.75V3.75C14.375 3.45163 14.2565 3.16548 14.0455 2.9545C13.8345 2.74353 13.5484 2.625 13.25 2.625H12.125Z" fill="black" fill-opacity="0.2"/>
<path fill-rule="evenodd" clip-rule="evenodd" d="M11.375 1.875H8.375V0.75C8.375 0.650544 8.33549 0.555161 8.26517 0.484835C8.19484 0.414509 8.09946 0.375 8 0.375C7.90054 0.375 7.80516 0.414509 7.73483 0.484835C7.66451 0.555161 7.625 0.650544 7.625 0.75V1.875H4.625V0.75C4.625 0.650544 4.58549 0.555161 4.51516 0.484835C4.44484 0.414509 4.34946 0.375 4.25 0.375C4.15054 0.375 4.05516 0.414509 3.98484 0.484835C3.91451 0.555161 3.875 0.650544 3.875 0.75V1.875H2.75C2.25272 1.875 1.77581 2.07254 1.42417 2.42417C1.07254 2.77581 0.875 3.25272 0.875 3.75V15.75C0.875 16.2473 1.07254 16.7242 1.42417 17.0758C1.77581 17.4275 2.25272 17.625 2.75 17.625H13.25C13.7473 17.625 14.2242 17.4275 14.5758 17.0758C14.9275 16.7242 15.125 16.2473 15.125 15.75V3.75C15.125 3.25272 14.9275 2.77581 14.5758 2.42417C14.2242 2.07254 13.7473 1.875 13.25 1.875H12.125V0.75C12.125 0.650544 12.0855 0.555161 12.0152 0.484835C11.9448 0.414509 11.8495 0.375 11.75 0.375C11.6505 0.375 11.5552 0.414509 11.4848 0.484835C11.4145 0.555161 11.375 0.650544 11.375 0.75V1.875ZM12.125 2.625V3.75C12.125 3.84946 12.0855 3.94484 12.0152 4.01516C11.9448 4.08549 11.8495 4.125 11.75 4.125C11.6505 4.125 11.5552 4.08549 11.4848 4.01516C11.4145 3.94484 11.375 3.84946 11.375 3.75V2.625H8.375V3.75C8.375 3.84946 8.33549 3.94484 8.26517 4.01516C8.19484 4.08549 8.09946 4.125 8 4.125C7.90054 4.125 7.80516 4.08549 7.73483 4.01516C7.66451 3.94484 7.625 3.84946 7.625 3.75V2.625H4.625V3.75C4.625 3.84946 4.58549 3.94484 4.51516 4.01516C4.44484 4.08549 4.34946 4.125 4.25 4.125C4.15054 4.125 4.05516 4.08549 3.98484 4.01516C3.91451 3.94484 3.875 3.84946 3.875 3.75V2.625H2.75C2.45163 2.625 2.16548 2.74353 1.9545 2.9545C1.74353 3.16548 1.625 3.45163 1.625 3.75V15.75C1.625 16.0484 1.74353 16.3345 1.9545 16.5455C2.16548 16.7565 2.45163 16.875 2.75 16.875H13.25C13.5484 16.875 13.8345 16.7565 14.0455 16.5455C14.2565 16.3345 14.375 16.0484 14.375 15.75V3.75C14.375 3.45163 14.2565 3.16548 14.0455 2.9545C13.8345 2.74353 13.5484 2.625 13.25 2.625H12.125Z" fill="black" fill-opacity="0.2"/>
<path fill-rule="evenodd" clip-rule="evenodd" d="M11.375 1.875H8.375V0.75C8.375 0.650544 8.33549 0.555161 8.26517 0.484835C8.19484 0.414509 8.09946 0.375 8 0.375C7.90054 0.375 7.80516 0.414509 7.73483 0.484835C7.66451 0.555161 7.625 0.650544 7.625 0.75V1.875H4.625V0.75C4.625 0.650544 4.58549 0.555161 4.51516 0.484835C4.44484 0.414509 4.34946 0.375 4.25 0.375C4.15054 0.375 4.05516 0.414509 3.98484 0.484835C3.91451 0.555161 3.875 0.650544 3.875 0.75V1.875H2.75C2.25272 1.875 1.77581 2.07254 1.42417 2.42417C1.07254 2.77581 0.875 3.25272 0.875 3.75V15.75C0.875 16.2473 1.07254 16.7242 1.42417 17.0758C1.77581 17.4275 2.25272 17.625 2.75 17.625H13.25C13.7473 17.625 14.2242 17.4275 14.5758 17.0758C14.9275 16.7242 15.125 16.2473 15.125 15.75V3.75C15.125 3.25272 14.9275 2.77581 14.5758 2.42417C14.2242 2.07254 13.7473 1.875 13.25 1.875H12.125V0.75C12.125 0.650544 12.0855 0.555161 12.0152 0.484835C11.9448 0.414509 11.8495 0.375 11.75 0.375C11.6505 0.375 11.5552 0.414509 11.4848 0.484835C11.4145 0.555161 11.375 0.650544 11.375 0.75V1.875ZM12.125 2.625V3.75C12.125 3.84946 12.0855 3.94484 12.0152 4.01516C11.9448 4.08549 11.8495 4.125 11.75 4.125C11.6505 4.125 11.5552 4.08549 11.4848 4.01516C11.4145 3.94484 11.375 3.84946 11.375 3.75V2.625H8.375V3.75C8.375 3.84946 8.33549 3.94484 8.26517 4.01516C8.19484 4.08549 8.09946 4.125 8 4.125C7.90054 4.125 7.80516 4.08549 7.73483 4.01516C7.66451 3.94484 7.625 3.84946 7.625 3.75V2.625H4.625V3.75C4.625 3.84946 4.58549 3.94484 4.51516 4.01516C4.44484 4.08549 4.34946 4.125 4.25 4.125C4.15054 4.125 4.05516 4.08549 3.98484 4.01516C3.91451 3.94484 3.875 3.84946 3.875 3.75V2.625H2.75C2.45163 2.625 2.16548 2.74353 1.9545 2.9545C1.74353 3.16548 1.625 3.45163 1.625 3.75V15.75C1.625 16.0484 1.74353 16.3345 1.9545 16.5455C2.16548 16.7565 2.45163 16.875 2.75 16.875H13.25C13.5484 16.875 13.8345 16.7565 14.0455 16.5455C14.2565 16.3345 14.375 16.0484 14.375 15.75V3.75C14.375 3.45163 14.2565 3.16548 14.0455 2.9545C13.8345 2.74353 13.5484 2.625 13.25 2.625H12.125Z" fill="black" fill-opacity="0.2"/>
<path fill-rule="evenodd" clip-rule="evenodd" d="M11.375 1.875H8.375V0.75C8.375 0.650544 8.33549 0.555161 8.26517 0.484835C8.19484 0.414509 8.09946 0.375 8 0.375C7.90054 0.375 7.80516 0.414509 7.73483 0.484835C7.66451 0.555161 7.625 0.650544 7.625 0.75V1.875H4.625V0.75C4.625 0.650544 4.58549 0.555161 4.51516 0.484835C4.44484 0.414509 4.34946 0.375 4.25 0.375C4.15054 0.375 4.05516 0.414509 3.98484 0.484835C3.91451 0.555161 3.875 0.650544 3.875 0.75V1.875H2.75C2.25272 1.875 1.77581 2.07254 1.42417 2.42417C1.07254 2.77581 0.875 3.25272 0.875 3.75V15.75C0.875 16.2473 1.07254 16.7242 1.42417 17.0758C1.77581 17.4275 2.25272 17.625 2.75 17.625H13.25C13.7473 17.625 14.2242 17.4275 14.5758 17.0758C14.9275 16.7242 15.125 16.2473 15.125 15.75V3.75C15.125 3.25272 14.9275 2.77581 14.5758 2.42417C14.2242 2.07254 13.7473 1.875 13.25 1.875H12.125V0.75C12.125 0.650544 12.0855 0.555161 12.0152 0.484835C11.9448 0.414509 11.8495 0.375 11.75 0.375C11.6505 0.375 11.5552 0.414509 11.4848 0.484835C11.4145 0.555161 11.375 0.650544 11.375 0.75V1.875ZM12.125 2.625V3.75C12.125 3.84946 12.0855 3.94484 12.0152 4.01516C11.9448 4.08549 11.8495 4.125 11.75 4.125C11.6505 4.125 11.5552 4.08549 11.4848 4.01516C11.4145 3.94484 11.375 3.84946 11.375 3.75V2.625H8.375V3.75C8.375 3.84946 8.33549 3.94484 8.26517 4.01516C8.19484 4.08549 8.09946 4.125 8 4.125C7.90054 4.125 7.80516 4.08549 7.73483 4.01516C7.66451 3.94484 7.625 3.84946 7.625 3.75V2.625H4.625V3.75C4.625 3.84946 4.58549 3.94484 4.51516 4.01516C4.44484 4.08549 4.34946 4.125 4.25 4.125C4.15054 4.125 4.05516 4.08549 3.98484 4.01516C3.91451 3.94484 3.875 3.84946 3.875 3.75V2.625H2.75C2.45163 2.625 2.16548 2.74353 1.9545 2.9545C1.74353 3.16548 1.625 3.45163 1.625 3.75V15.75C1.625 16.0484 1.74353 16.3345 1.9545 16.5455C2.16548 16.7565 2.45163 16.875 2.75 16.875H13.25C13.5484 16.875 13.8345 16.7565 14.0455 16.5455C14.2565 16.3345 14.375 16.0484 14.375 15.75V3.75C14.375 3.45163 14.2565 3.16548 14.0455 2.9545C13.8345 2.74353 13.5484 2.625 13.25 2.625H12.125Z" fill="black" fill-opacity="0.2"/>
<path fill-rule="evenodd" clip-rule="evenodd" d="M11.375 1.875H8.375V0.75C8.375 0.650544 8.33549 0.555161 8.26517 0.484835C8.19484 0.414509 8.09946 0.375 8 0.375C7.90054 0.375 7.80516 0.414509 7.73483 0.484835C7.66451 0.555161 7.625 0.650544 7.625 0.75V1.875H4.625V0.75C4.625 0.650544 4.58549 0.555161 4.51516 0.484835C4.44484 0.414509 4.34946 0.375 4.25 0.375C4.15054 0.375 4.05516 0.414509 3.98484 0.484835C3.91451 0.555161 3.875 0.650544 3.875 0.75V1.875H2.75C2.25272 1.875 1.77581 2.07254 1.42417 2.42417C1.07254 2.77581 0.875 3.25272 0.875 3.75V15.75C0.875 16.2473 1.07254 16.7242 1.42417 17.0758C1.77581 17.4275 2.25272 17.625 2.75 17.625H13.25C13.7473 17.625 14.2242 17.4275 14.5758 17.0758C14.9275 16.7242 15.125 16.2473 15.125 15.75V3.75C15.125 3.25272 14.9275 2.77581 14.5758 2.42417C14.2242 2.07254 13.7473 1.875 13.25 1.875H12.125V0.75C12.125 0.650544 12.0855 0.555161 12.0152 0.484835C11.9448 0.414509 11.8495 0.375 11.75 0.375C11.6505 0.375 11.5552 0.414509 11.4848 0.484835C11.4145 0.555161 11.375 0.650544 11.375 0.75V1.875ZM12.125 2.625V3.75C12.125 3.84946 12.0855 3.94484 12.0152 4.01516C11.9448 4.08549 11.8495 4.125 11.75 4.125C11.6505 4.125 11.5552 4.08549 11.4848 4.01516C11.4145 3.94484 11.375 3.84946 11.375 3.75V2.625H8.375V3.75C8.375 3.84946 8.33549 3.94484 8.26517 4.01516C8.19484 4.08549 8.09946 4.125 8 4.125C7.90054 4.125 7.80516 4.08549 7.73483 4.01516C7.66451 3.94484 7.625 3.84946 7.625 3.75V2.625H4.625V3.75C4.625 3.84946 4.58549 3.94484 4.51516 4.01516C4.44484 4.08549 4.34946 4.125 4.25 4.125C4.15054 4.125 4.05516 4.08549 3.98484 4.01516C3.91451 3.94484 3.875 3.84946 3.875 3.75V2.625H2.75C2.45163 2.625 2.16548 2.74353 1.9545 2.9545C1.74353 3.16548 1.625 3.45163 1.625 3.75V15.75C1.625 16.0484 1.74353 16.3345 1.9545 16.5455C2.16548 16.7565 2.45163 16.875 2.75 16.875H13.25C13.5484 16.875 13.8345 16.7565 14.0455 16.5455C14.2565 16.3345 14.375 16.0484 14.375 15.75V3.75C14.375 3.45163 14.2565 3.16548 14.0455 2.9545C13.8345 2.74353 13.5484 2.625 13.25 2.625H12.125Z" fill="black" fill-opacity="0.2"/>
<path fill-rule="evenodd" clip-rule="evenodd" d="M11.375 1.875H8.375V0.75C8.375 0.650544 8.33549 0.555161 8.26517 0.484835C8.19484 0.414509 8.09946 0.375 8 0.375C7.90054 0.375 7.80516 0.414509 7.73483 0.484835C7.66451 0.555161 7.625 0.650544 7.625 0.75V1.875H4.625V0.75C4.625 0.650544 4.58549 0.555161 4.51516 0.484835C4.44484 0.414509 4.34946 0.375 4.25 0.375C4.15054 0.375 4.05516 0.414509 3.98484 0.484835C3.91451 0.555161 3.875 0.650544 3.875 0.75V1.875H2.75C2.25272 1.875 1.77581 2.07254 1.42417 2.42417C1.07254 2.77581 0.875 3.25272 0.875 3.75V15.75C0.875 16.2473 1.07254 16.7242 1.42417 17.0758C1.77581 17.4275 2.25272 17.625 2.75 17.625H13.25C13.7473 17.625 14.2242 17.4275 14.5758 17.0758C14.9275 16.7242 15.125 16.2473 15.125 15.75V3.75C15.125 3.25272 14.9275 2.77581 14.5758 2.42417C14.2242 2.07254 13.7473 1.875 13.25 1.875H12.125V0.75C12.125 0.650544 12.0855 0.555161 12.0152 0.484835C11.9448 0.414509 11.8495 0.375 11.75 0.375C11.6505 0.375 11.5552 0.414509 11.4848 0.484835C11.4145 0.555161 11.375 0.650544 11.375 0.75V1.875ZM12.125 2.625V3.75C12.125 3.84946 12.0855 3.94484 12.0152 4.01516C11.9448 4.08549 11.8495 4.125 11.75 4.125C11.6505 4.125 11.5552 4.08549 11.4848 4.01516C11.4145 3.94484 11.375 3.84946 11.375 3.75V2.625H8.375V3.75C8.375 3.84946 8.33549 3.94484 8.26517 4.01516C8.19484 4.08549 8.09946 4.125 8 4.125C7.90054 4.125 7.80516 4.08549 7.73483 4.01516C7.66451 3.94484 7.625 3.84946 7.625 3.75V2.625H4.625V3.75C4.625 3.84946 4.58549 3.94484 4.51516 4.01516C4.44484 4.08549 4.34946 4.125 4.25 4.125C4.15054 4.125 4.05516 4.08549 3.98484 4.01516C3.91451 3.94484 3.875 3.84946 3.875 3.75V2.625H2.75C2.45163 2.625 2.16548 2.74353 1.9545 2.9545C1.74353 3.16548 1.625 3.45163 1.625 3.75V15.75C1.625 16.0484 1.74353 16.3345 1.9545 16.5455C2.16548 16.7565 2.45163 16.875 2.75 16.875H13.25C13.5484 16.875 13.8345 16.7565 14.0455 16.5455C14.2565 16.3345 14.375 16.0484 14.375 15.75V3.75C14.375 3.45163 14.2565 3.16548 14.0455 2.9545C13.8345 2.74353 13.5484 2.625 13.25 2.625H12.125Z" fill="black" fill-opacity="0.2"/>
<path fill-rule="evenodd" clip-rule="evenodd" d="M11.375 1.875H8.375V0.75C8.375 0.650544 8.33549 0.555161 8.26517 0.484835C8.19484 0.414509 8.09946 0.375 8 0.375C7.90054 0.375 7.80516 0.414509 7.73483 0.484835C7.66451 0.555161 7.625 0.650544 7.625 0.75V1.875H4.625V0.75C4.625 0.650544 4.58549 0.555161 4.51516 0.484835C4.44484 0.414509 4.34946 0.375 4.25 0.375C4.15054 0.375 4.05516 0.414509 3.98484 0.484835C3.91451 0.555161 3.875 0.650544 3.875 0.75V1.875H2.75C2.25272 1.875 1.77581 2.07254 1.42417 2.42417C1.07254 2.77581 0.875 3.25272 0.875 3.75V15.75C0.875 16.2473 1.07254 16.7242 1.42417 17.0758C1.77581 17.4275 2.25272 17.625 2.75 17.625H13.25C13.7473 17.625 14.2242 17.4275 14.5758 17.0758C14.9275 16.7242 15.125 16.2473 15.125 15.75V3.75C15.125 3.25272 14.9275 2.77581 14.5758 2.42417C14.2242 2.07254 13.7473 1.875 13.25 1.875H12.125V0.75C12.125 0.650544 12.0855 0.555161 12.0152 0.484835C11.9448 0.414509 11.8495 0.375 11.75 0.375C11.6505 0.375 11.5552 0.414509 11.4848 0.484835C11.4145 0.555161 11.375 0.650544 11.375 0.75V1.875ZM12.125 2.625V3.75C12.125 3.84946 12.0855 3.94484 12.0152 4.01516C11.9448 4.08549 11.8495 4.125 11.75 4.125C11.6505 4.125 11.5552 4.08549 11.4848 4.01516C11.4145 3.94484 11.375 3.84946 11.375 3.75V2.625H8.375V3.75C8.375 3.84946 8.33549 3.94484 8.26517 4.01516C8.19484 4.08549 8.09946 4.125 8 4.125C7.90054 4.125 7.80516 4.08549 7.73483 4.01516C7.66451 3.94484 7.625 3.84946 7.625 3.75V2.625H4.625V3.75C4.625 3.84946 4.58549 3.94484 4.51516 4.01516C4.44484 4.08549 4.34946 4.125 4.25 4.125C4.15054 4.125 4.05516 4.08549 3.98484 4.01516C3.91451 3.94484 3.875 3.84946 3.875 3.75V2.625H2.75C2.45163 2.625 2.16548 2.74353 1.9545 2.9545C1.74353 3.16548 1.625 3.45163 1.625 3.75V15.75C1.625 16.0484 1.74353 16.3345 1.9545 16.5455C2.16548 16.7565 2.45163 16.875 2.75 16.875H13.25C13.5484 16.875 13.8345 16.7565 14.0455 16.5455C14.2565 16.3345 14.375 16.0484 14.375 15.75V3.75C14.375 3.45163 14.2565 3.16548 14.0455 2.9545C13.8345 2.74353 13.5484 2.625 13.25 2.625H12.125Z" fill="black" fill-opacity="0.2"/>
<path fill-rule="evenodd" clip-rule="evenodd" d="M11.375 1.875H8.375V0.75C8.375 0.650544 8.33549 0.555161 8.26517 0.484835C8.19484 0.414509 8.09946 0.375 8 0.375C7.90054 0.375 7.80516 0.414509 7.73483 0.484835C7.66451 0.555161 7.625 0.650544 7.625 0.75V1.875H4.625V0.75C4.625 0.650544 4.58549 0.555161 4.51516 0.484835C4.44484 0.414509 4.34946 0.375 4.25 0.375C4.15054 0.375 4.05516 0.414509 3.98484 0.484835C3.91451 0.555161 3.875 0.650544 3.875 0.75V1.875H2.75C2.25272 1.875 1.77581 2.07254 1.42417 2.42417C1.07254 2.77581 0.875 3.25272 0.875 3.75V15.75C0.875 16.2473 1.07254 16.7242 1.42417 17.0758C1.77581 17.4275 2.25272 17.625 2.75 17.625H13.25C13.7473 17.625 14.2242 17.4275 14.5758 17.0758C14.9275 16.7242 15.125 16.2473 15.125 15.75V3.75C15.125 3.25272 14.9275 2.77581 14.5758 2.42417C14.2242 2.07254 13.7473 1.875 13.25 1.875H12.125V0.75C12.125 0.650544 12.0855 0.555161 12.0152 0.484835C11.9448 0.414509 11.8495 0.375 11.75 0.375C11.6505 0.375 11.5552 0.414509 11.4848 0.484835C11.4145 0.555161 11.375 0.650544 11.375 0.75V1.875ZM12.125 2.625V3.75C12.125 3.84946 12.0855 3.94484 12.0152 4.01516C11.9448 4.08549 11.8495 4.125 11.75 4.125C11.6505 4.125 11.5552 4.08549 11.4848 4.01516C11.4145 3.94484 11.375 3.84946 11.375 3.75V2.625H8.375V3.75C8.375 3.84946 8.33549 3.94484 8.26517 4.01516C8.19484 4.08549 8.09946 4.125 8 4.125C7.90054 4.125 7.80516 4.08549 7.73483 4.01516C7.66451 3.94484 7.625 3.84946 7.625 3.75V2.625H4.625V3.75C4.625 3.84946 4.58549 3.94484 4.51516 4.01516C4.44484 4.08549 4.34946 4.125 4.25 4.125C4.15054 4.125 4.05516 4.08549 3.98484 4.01516C3.91451 3.94484 3.875 3.84946 3.875 3.75V2.625H2.75C2.45163 2.625 2.16548 2.74353 1.9545 2.9545C1.74353 3.16548 1.625 3.45163 1.625 3.75V15.75C1.625 16.0484 1.74353 16.3345 1.9545 16.5455C2.16548 16.7565 2.45163 16.875 2.75 16.875H13.25C13.5484 16.875 13.8345 16.7565 14.0455 16.5455C14.2565 16.3345 14.375 16.0484 14.375 15.75V3.75C14.375 3.45163 14.2565 3.16548 14.0455 2.9545C13.8345 2.74353 13.5484 2.625 13.25 2.625H12.125Z" fill="black" fill-opacity="0.2"/>
<path fill-rule="evenodd" clip-rule="evenodd" d="M11.375 1.875H8.375V0.75C8.375 0.650544 8.33549 0.555161 8.26517 0.484835C8.19484 0.414509 8.09946 0.375 8 0.375C7.90054 0.375 7.80516 0.414509 7.73483 0.484835C7.66451 0.555161 7.625 0.650544 7.625 0.75V1.875H4.625V0.75C4.625 0.650544 4.58549 0.555161 4.51516 0.484835C4.44484 0.414509 4.34946 0.375 4.25 0.375C4.15054 0.375 4.05516 0.414509 3.98484 0.484835C3.91451 0.555161 3.875 0.650544 3.875 0.75V1.875H2.75C2.25272 1.875 1.77581 2.07254 1.42417 2.42417C1.07254 2.77581 0.875 3.25272 0.875 3.75V15.75C0.875 16.2473 1.07254 16.7242 1.42417 17.0758C1.77581 17.4275 2.25272 17.625 2.75 17.625H13.25C13.7473 17.625 14.2242 17.4275 14.5758 17.0758C14.9275 16.7242 15.125 16.2473 15.125 15.75V3.75C15.125 3.25272 14.9275 2.77581 14.5758 2.42417C14.2242 2.07254 13.7473 1.875 13.25 1.875H12.125V0.75C12.125 0.650544 12.0855 0.555161 12.0152 0.484835C11.9448 0.414509 11.8495 0.375 11.75 0.375C11.6505 0.375 11.5552 0.414509 11.4848 0.484835C11.4145 0.555161 11.375 0.650544 11.375 0.75V1.875ZM12.125 2.625V3.75C12.125 3.84946 12.0855 3.94484 12.0152 4.01516C11.9448 4.08549 11.8495 4.125 11.75 4.125C11.6505 4.125 11.5552 4.08549 11.4848 4.01516C11.4145 3.94484 11.375 3.84946 11.375 3.75V2.625H8.375V3.75C8.375 3.84946 8.33549 3.94484 8.26517 4.01516C8.19484 4.08549 8.09946 4.125 8 4.125C7.90054 4.125 7.80516 4.08549 7.73483 4.01516C7.66451 3.94484 7.625 3.84946 7.625 3.75V2.625H4.625V3.75C4.625 3.84946 4.58549 3.94484 4.51516 4.01516C4.44484 4.08549 4.34946 4.125 4.25 4.125C4.15054 4.125 4.05516 4.08549 3.98484 4.01516C3.91451 3.94484 3.875 3.84946 3.875 3.75V2.625H2.75C2.45163 2.625 2.16548 2.74353 1.9545 2.9545C1.74353 3.16548 1.625 3.45163 1.625 3.75V15.75C1.625 16.0484 1.74353 16.3345 1.9545 16.5455C2.16548 16.7565 2.45163 16.875 2.75 16.875H13.25C13.5484 16.875 13.8345 16.7565 14.0455 16.5455C14.2565 16.3345 14.375 16.0484 14.375 15.75V3.75C14.375 3.45163 14.2565 3.16548 14.0455 2.9545C13.8345 2.74353 13.5484 2.625 13.25 2.625H12.125Z" fill="black" fill-opacity="0.2"/>
<path fill-rule="evenodd" clip-rule="evenodd" d="M11.375 1.875H8.375V0.75C8.375 0.650544 8.33549 0.555161 8.26517 0.484835C8.19484 0.414509 8.09946 0.375 8 0.375C7.90054 0.375 7.80516 0.414509 7.73483 0.484835C7.66451 0.555161 7.625 0.650544 7.625 0.75V1.875H4.625V0.75C4.625 0.650544 4.58549 0.555161 4.51516 0.484835C4.44484 0.414509 4.34946 0.375 4.25 0.375C4.15054 0.375 4.05516 0.414509 3.98484 0.484835C3.91451 0.555161 3.875 0.650544 3.875 0.75V1.875H2.75C2.25272 1.875 1.77581 2.07254 1.42417 2.42417C1.07254 2.77581 0.875 3.25272 0.875 3.75V15.75C0.875 16.2473 1.07254 16.7242 1.42417 17.0758C1.77581 17.4275 2.25272 17.625 2.75 17.625H13.25C13.7473 17.625 14.2242 17.4275 14.5758 17.0758C14.9275 16.7242 15.125 16.2473 15.125 15.75V3.75C15.125 3.25272 14.9275 2.77581 14.5758 2.42417C14.2242 2.07254 13.7473 1.875 13.25 1.875H12.125V0.75C12.125 0.650544 12.0855 0.555161 12.0152 0.484835C11.9448 0.414509 11.8495 0.375 11.75 0.375C11.6505 0.375 11.5552 0.414509 11.4848 0.484835C11.4145 0.555161 11.375 0.650544 11.375 0.75V1.875ZM12.125 2.625V3.75C12.125 3.84946 12.0855 3.94484 12.0152 4.01516C11.9448 4.08549 11.8495 4.125 11.75 4.125C11.6505 4.125 11.5552 4.08549 11.4848 4.01516C11.4145 3.94484 11.375 3.84946 11.375 3.75V2.625H8.375V3.75C8.375 3.84946 8.33549 3.94484 8.26517 4.01516C8.19484 4.08549 8.09946 4.125 8 4.125C7.90054 4.125 7.80516 4.08549 7.73483 4.01516C7.66451 3.94484 7.625 3.84946 7.625 3.75V2.625H4.625V3.75C4.625 3.84946 4.58549 3.94484 4.51516 4.01516C4.44484 4.08549 4.34946 4.125 4.25 4.125C4.15054 4.125 4.05516 4.08549 3.98484 4.01516C3.91451 3.94484 3.875 3.84946 3.875 3.75V2.625H2.75C2.45163 2.625 2.16548 2.74353 1.9545 2.9545C1.74353 3.16548 1.625 3.45163 1.625 3.75V15.75C1.625 16.0484 1.74353 16.3345 1.9545 16.5455C2.16548 16.7565 2.45163 16.875 2.75 16.875H13.25C13.5484 16.875 13.8345 16.7565 14.0455 16.5455C14.2565 16.3345 14.375 16.0484 14.375 15.75V3.75C14.375 3.45163 14.2565 3.16548 14.0455 2.9545C13.8345 2.74353 13.5484 2.625 13.25 2.625H12.125Z" fill="black" fill-opacity="0.2"/>
</g>
<g id="Vector_2">
<path fill-rule="evenodd" clip-rule="evenodd" d="M3.23466 7.01516L3.98466 7.76516C4.01946 7.80001 4.06078 7.82766 4.10628 7.84653C4.15177 7.86539 4.20054 7.87511 4.24979 7.87511C4.29904 7.87511 4.3478 7.86539 4.3933 7.84653C4.43879 7.82766 4.48012 7.80001 4.51491 7.76516L6.01491 6.26516C6.08322 6.19443 6.12102 6.0997 6.12016 6.00138C6.11931 5.90306 6.07987 5.809 6.01034 5.73947C5.94082 5.66995 5.84676 5.63051 5.74844 5.62965C5.65011 5.6288 5.55539 5.6666 5.48466 5.73491L4.24979 6.96978L3.76491 6.48491C3.69419 6.4166 3.59946 6.3788 3.50114 6.37965C3.40281 6.38051 3.30876 6.41995 3.23923 6.48947C3.1697 6.559 3.13026 6.65306 3.12941 6.75138C3.12855 6.8497 3.16635 6.94443 3.23466 7.01516ZM3.23466 10.7652L3.98466 11.5152C4.01946 11.55 4.06078 11.5777 4.10628 11.5965C4.15177 11.6154 4.20054 11.6251 4.24979 11.6251C4.29904 11.6251 4.3478 11.6154 4.3933 11.5965C4.43879 11.5777 4.48012 11.55 4.51491 11.5152L6.01491 10.0152C6.08322 9.94443 6.12102 9.8497 6.12016 9.75138C6.11931 9.65306 6.07987 9.559 6.01034 9.48947C5.94082 9.41995 5.84676 9.38051 5.74844 9.37965C5.65011 9.3788 5.55539 9.4166 5.48466 9.48491L4.24979 10.7198L3.76491 10.2349C3.69419 10.1666 3.59946 10.1288 3.50114 10.1297C3.40281 10.1305 3.30876 10.1699 3.23923 10.2395C3.1697 10.309 3.13026 10.4031 3.12941 10.5014C3.12855 10.5997 3.16635 10.6944 3.23466 10.7652ZM3.23466 14.5152L3.98466 15.2652C4.01946 15.3 4.06078 15.3277 4.10628 15.3465C4.15177 15.3654 4.20054 15.3751 4.24979 15.3751C4.29904 15.3751 4.3478 15.3654 4.3933 15.3465C4.43879 15.3277 4.48012 15.3 4.51491 15.2652L6.01491 13.7652C6.08322 13.6944 6.12102 13.5997 6.12016 13.5014C6.11931 13.4031 6.07987 13.309 6.01034 13.2395C5.94082 13.1699 5.84676 13.1305 5.74844 13.1297C5.65011 13.1288 5.55539 13.1666 5.48466 13.2349L4.24979 14.4698L3.76491 13.9849C3.69419 13.9166 3.59946 13.8788 3.50114 13.8797C3.40281 13.8805 3.30876 13.9199 3.23923 13.9895C3.1697 14.059 3.13026 14.1531 3.12941 14.2514C3.12855 14.3497 3.16635 14.4444 3.23466 14.5152ZM7.24979 7.12503H12.4998C12.5992 7.12503 12.6946 7.08552 12.765 7.0152C12.8353 6.94487 12.8748 6.84949 12.8748 6.75003C12.8748 6.65057 12.8353 6.55519 12.765 6.48487C12.6946 6.41454 12.5992 6.37503 12.4998 6.37503H7.24979C7.15033 6.37503 7.05495 6.41454 6.98462 6.48487C6.91429 6.55519 6.87479 6.65057 6.87479 6.75003C6.87479 6.84949 6.91429 6.94487 6.98462 7.0152C7.05495 7.08552 7.15033 7.12503 7.24979 7.12503ZM7.24979 10.875H12.4998C12.5992 10.875 12.6946 10.8355 12.765 10.7652C12.8353 10.6949 12.8748 10.5995 12.8748 10.5C12.8748 10.4006 12.8353 10.3052 12.765 10.2349C12.6946 10.1645 12.5992 10.125 12.4998 10.125H7.24979C7.15033 10.125 7.05495 10.1645 6.98462 10.2349C6.91429 10.3052 6.87479 10.4006 6.87479 10.5C6.87479 10.5995 6.91429 10.6949 6.98462 10.7652C7.05495 10.8355 7.15033 10.875 7.24979 10.875ZM7.24979 14.625H12.4998C12.5992 14.625 12.6946 14.5855 12.765 14.5152C12.8353 14.4449 12.8748 14.3495 12.8748 14.25C12.8748 14.1506 12.8353 14.0552 12.765 13.9849C12.6946 13.9145 12.5992 13.875 12.4998 13.875H7.24979C7.15033 13.875 7.05495 13.9145 6.98462 13.9849C6.91429 14.0552 6.87479 14.1506 6.87479 14.25C6.87479 14.3495 6.91429 14.4449 6.98462 14.5152C7.05495 14.5855 7.15033 14.625 7.24979 14.625Z" fill="#040D12"/>
<path fill-rule="evenodd" clip-rule="evenodd" d="M3.23466 7.01516L3.98466 7.76516C4.01946 7.80001 4.06078 7.82766 4.10628 7.84653C4.15177 7.86539 4.20054 7.87511 4.24979 7.87511C4.29904 7.87511 4.3478 7.86539 4.3933 7.84653C4.43879 7.82766 4.48012 7.80001 4.51491 7.76516L6.01491 6.26516C6.08322 6.19443 6.12102 6.0997 6.12016 6.00138C6.11931 5.90306 6.07987 5.809 6.01034 5.73947C5.94082 5.66995 5.84676 5.63051 5.74844 5.62965C5.65011 5.6288 5.55539 5.6666 5.48466 5.73491L4.24979 6.96978L3.76491 6.48491C3.69419 6.4166 3.59946 6.3788 3.50114 6.37965C3.40281 6.38051 3.30876 6.41995 3.23923 6.48947C3.1697 6.559 3.13026 6.65306 3.12941 6.75138C3.12855 6.8497 3.16635 6.94443 3.23466 7.01516ZM3.23466 10.7652L3.98466 11.5152C4.01946 11.55 4.06078 11.5777 4.10628 11.5965C4.15177 11.6154 4.20054 11.6251 4.24979 11.6251C4.29904 11.6251 4.3478 11.6154 4.3933 11.5965C4.43879 11.5777 4.48012 11.55 4.51491 11.5152L6.01491 10.0152C6.08322 9.94443 6.12102 9.8497 6.12016 9.75138C6.11931 9.65306 6.07987 9.559 6.01034 9.48947C5.94082 9.41995 5.84676 9.38051 5.74844 9.37965C5.65011 9.3788 5.55539 9.4166 5.48466 9.48491L4.24979 10.7198L3.76491 10.2349C3.69419 10.1666 3.59946 10.1288 3.50114 10.1297C3.40281 10.1305 3.30876 10.1699 3.23923 10.2395C3.1697 10.309 3.13026 10.4031 3.12941 10.5014C3.12855 10.5997 3.16635 10.6944 3.23466 10.7652ZM3.23466 14.5152L3.98466 15.2652C4.01946 15.3 4.06078 15.3277 4.10628 15.3465C4.15177 15.3654 4.20054 15.3751 4.24979 15.3751C4.29904 15.3751 4.3478 15.3654 4.3933 15.3465C4.43879 15.3277 4.48012 15.3 4.51491 15.2652L6.01491 13.7652C6.08322 13.6944 6.12102 13.5997 6.12016 13.5014C6.11931 13.4031 6.07987 13.309 6.01034 13.2395C5.94082 13.1699 5.84676 13.1305 5.74844 13.1297C5.65011 13.1288 5.55539 13.1666 5.48466 13.2349L4.24979 14.4698L3.76491 13.9849C3.69419 13.9166 3.59946 13.8788 3.50114 13.8797C3.40281 13.8805 3.30876 13.9199 3.23923 13.9895C3.1697 14.059 3.13026 14.1531 3.12941 14.2514C3.12855 14.3497 3.16635 14.4444 3.23466 14.5152ZM7.24979 7.12503H12.4998C12.5992 7.12503 12.6946 7.08552 12.765 7.0152C12.8353 6.94487 12.8748 6.84949 12.8748 6.75003C12.8748 6.65057 12.8353 6.55519 12.765 6.48487C12.6946 6.41454 12.5992 6.37503 12.4998 6.37503H7.24979C7.15033 6.37503 7.05495 6.41454 6.98462 6.48487C6.91429 6.55519 6.87479 6.65057 6.87479 6.75003C6.87479 6.84949 6.91429 6.94487 6.98462 7.0152C7.05495 7.08552 7.15033 7.12503 7.24979 7.12503ZM7.24979 10.875H12.4998C12.5992 10.875 12.6946 10.8355 12.765 10.7652C12.8353 10.6949 12.8748 10.5995 12.8748 10.5C12.8748 10.4006 12.8353 10.3052 12.765 10.2349C12.6946 10.1645 12.5992 10.125 12.4998 10.125H7.24979C7.15033 10.125 7.05495 10.1645 6.98462 10.2349C6.91429 10.3052 6.87479 10.4006 6.87479 10.5C6.87479 10.5995 6.91429 10.6949 6.98462 10.7652C7.05495 10.8355 7.15033 10.875 7.24979 10.875ZM7.24979 14.625H12.4998C12.5992 14.625 12.6946 14.5855 12.765 14.5152C12.8353 14.4449 12.8748 14.3495 12.8748 14.25C12.8748 14.1506 12.8353 14.0552 12.765 13.9849C12.6946 13.9145 12.5992 13.875 12.4998 13.875H7.24979C7.15033 13.875 7.05495 13.9145 6.98462 13.9849C6.91429 14.0552 6.87479 14.1506 6.87479 14.25C6.87479 14.3495 6.91429 14.4449 6.98462 14.5152C7.05495 14.5855 7.15033 14.625 7.24979 14.625Z" fill="black" fill-opacity="0.2"/>
<path fill-rule="evenodd" clip-rule="evenodd" d="M3.23466 7.01516L3.98466 7.76516C4.01946 7.80001 4.06078 7.82766 4.10628 7.84653C4.15177 7.86539 4.20054 7.87511 4.24979 7.87511C4.29904 7.87511 4.3478 7.86539 4.3933 7.84653C4.43879 7.82766 4.48012 7.80001 4.51491 7.76516L6.01491 6.26516C6.08322 6.19443 6.12102 6.0997 6.12016 6.00138C6.11931 5.90306 6.07987 5.809 6.01034 5.73947C5.94082 5.66995 5.84676 5.63051 5.74844 5.62965C5.65011 5.6288 5.55539 5.6666 5.48466 5.73491L4.24979 6.96978L3.76491 6.48491C3.69419 6.4166 3.59946 6.3788 3.50114 6.37965C3.40281 6.38051 3.30876 6.41995 3.23923 6.48947C3.1697 6.559 3.13026 6.65306 3.12941 6.75138C3.12855 6.8497 3.16635 6.94443 3.23466 7.01516ZM3.23466 10.7652L3.98466 11.5152C4.01946 11.55 4.06078 11.5777 4.10628 11.5965C4.15177 11.6154 4.20054 11.6251 4.24979 11.6251C4.29904 11.6251 4.3478 11.6154 4.3933 11.5965C4.43879 11.5777 4.48012 11.55 4.51491 11.5152L6.01491 10.0152C6.08322 9.94443 6.12102 9.8497 6.12016 9.75138C6.11931 9.65306 6.07987 9.559 6.01034 9.48947C5.94082 9.41995 5.84676 9.38051 5.74844 9.37965C5.65011 9.3788 5.55539 9.4166 5.48466 9.48491L4.24979 10.7198L3.76491 10.2349C3.69419 10.1666 3.59946 10.1288 3.50114 10.1297C3.40281 10.1305 3.30876 10.1699 3.23923 10.2395C3.1697 10.309 3.13026 10.4031 3.12941 10.5014C3.12855 10.5997 3.16635 10.6944 3.23466 10.7652ZM3.23466 14.5152L3.98466 15.2652C4.01946 15.3 4.06078 15.3277 4.10628 15.3465C4.15177 15.3654 4.20054 15.3751 4.24979 15.3751C4.29904 15.3751 4.3478 15.3654 4.3933 15.3465C4.43879 15.3277 4.48012 15.3 4.51491 15.2652L6.01491 13.7652C6.08322 13.6944 6.12102 13.5997 6.12016 13.5014C6.11931 13.4031 6.07987 13.309 6.01034 13.2395C5.94082 13.1699 5.84676 13.1305 5.74844 13.1297C5.65011 13.1288 5.55539 13.1666 5.48466 13.2349L4.24979 14.4698L3.76491 13.9849C3.69419 13.9166 3.59946 13.8788 3.50114 13.8797C3.40281 13.8805 3.30876 13.9199 3.23923 13.9895C3.1697 14.059 3.13026 14.1531 3.12941 14.2514C3.12855 14.3497 3.16635 14.4444 3.23466 14.5152ZM7.24979 7.12503H12.4998C12.5992 7.12503 12.6946 7.08552 12.765 7.0152C12.8353 6.94487 12.8748 6.84949 12.8748 6.75003C12.8748 6.65057 12.8353 6.55519 12.765 6.48487C12.6946 6.41454 12.5992 6.37503 12.4998 6.37503H7.24979C7.15033 6.37503 7.05495 6.41454 6.98462 6.48487C6.91429 6.55519 6.87479 6.65057 6.87479 6.75003C6.87479 6.84949 6.91429 6.94487 6.98462 7.0152C7.05495 7.08552 7.15033 7.12503 7.24979 7.12503ZM7.24979 10.875H12.4998C12.5992 10.875 12.6946 10.8355 12.765 10.7652C12.8353 10.6949 12.8748 10.5995 12.8748 10.5C12.8748 10.4006 12.8353 10.3052 12.765 10.2349C12.6946 10.1645 12.5992 10.125 12.4998 10.125H7.24979C7.15033 10.125 7.05495 10.1645 6.98462 10.2349C6.91429 10.3052 6.87479 10.4006 6.87479 10.5C6.87479 10.5995 6.91429 10.6949 6.98462 10.7652C7.05495 10.8355 7.15033 10.875 7.24979 10.875ZM7.24979 14.625H12.4998C12.5992 14.625 12.6946 14.5855 12.765 14.5152C12.8353 14.4449 12.8748 14.3495 12.8748 14.25C12.8748 14.1506 12.8353 14.0552 12.765 13.9849C12.6946 13.9145 12.5992 13.875 12.4998 13.875H7.24979C7.15033 13.875 7.05495 13.9145 6.98462 13.9849C6.91429 14.0552 6.87479 14.1506 6.87479 14.25C6.87479 14.3495 6.91429 14.4449 6.98462 14.5152C7.05495 14.5855 7.15033 14.625 7.24979 14.625Z" fill="black" fill-opacity="0.2"/>
<path fill-rule="evenodd" clip-rule="evenodd" d="M3.23466 7.01516L3.98466 7.76516C4.01946 7.80001 4.06078 7.82766 4.10628 7.84653C4.15177 7.86539 4.20054 7.87511 4.24979 7.87511C4.29904 7.87511 4.3478 7.86539 4.3933 7.84653C4.43879 7.82766 4.48012 7.80001 4.51491 7.76516L6.01491 6.26516C6.08322 6.19443 6.12102 6.0997 6.12016 6.00138C6.11931 5.90306 6.07987 5.809 6.01034 5.73947C5.94082 5.66995 5.84676 5.63051 5.74844 5.62965C5.65011 5.6288 5.55539 5.6666 5.48466 5.73491L4.24979 6.96978L3.76491 6.48491C3.69419 6.4166 3.59946 6.3788 3.50114 6.37965C3.40281 6.38051 3.30876 6.41995 3.23923 6.48947C3.1697 6.559 3.13026 6.65306 3.12941 6.75138C3.12855 6.8497 3.16635 6.94443 3.23466 7.01516ZM3.23466 10.7652L3.98466 11.5152C4.01946 11.55 4.06078 11.5777 4.10628 11.5965C4.15177 11.6154 4.20054 11.6251 4.24979 11.6251C4.29904 11.6251 4.3478 11.6154 4.3933 11.5965C4.43879 11.5777 4.48012 11.55 4.51491 11.5152L6.01491 10.0152C6.08322 9.94443 6.12102 9.8497 6.12016 9.75138C6.11931 9.65306 6.07987 9.559 6.01034 9.48947C5.94082 9.41995 5.84676 9.38051 5.74844 9.37965C5.65011 9.3788 5.55539 9.4166 5.48466 9.48491L4.24979 10.7198L3.76491 10.2349C3.69419 10.1666 3.59946 10.1288 3.50114 10.1297C3.40281 10.1305 3.30876 10.1699 3.23923 10.2395C3.1697 10.309 3.13026 10.4031 3.12941 10.5014C3.12855 10.5997 3.16635 10.6944 3.23466 10.7652ZM3.23466 14.5152L3.98466 15.2652C4.01946 15.3 4.06078 15.3277 4.10628 15.3465C4.15177 15.3654 4.20054 15.3751 4.24979 15.3751C4.29904 15.3751 4.3478 15.3654 4.3933 15.3465C4.43879 15.3277 4.48012 15.3 4.51491 15.2652L6.01491 13.7652C6.08322 13.6944 6.12102 13.5997 6.12016 13.5014C6.11931 13.4031 6.07987 13.309 6.01034 13.2395C5.94082 13.1699 5.84676 13.1305 5.74844 13.1297C5.65011 13.1288 5.55539 13.1666 5.48466 13.2349L4.24979 14.4698L3.76491 13.9849C3.69419 13.9166 3.59946 13.8788 3.50114 13.8797C3.40281 13.8805 3.30876 13.9199 3.23923 13.9895C3.1697 14.059 3.13026 14.1531 3.12941 14.2514C3.12855 14.3497 3.16635 14.4444 3.23466 14.5152ZM7.24979 7.12503H12.4998C12.5992 7.12503 12.6946 7.08552 12.765 7.0152C12.8353 6.94487 12.8748 6.84949 12.8748 6.75003C12.8748 6.65057 12.8353 6.55519 12.765 6.48487C12.6946 6.41454 12.5992 6.37503 12.4998 6.37503H7.24979C7.15033 6.37503 7.05495 6.41454 6.98462 6.48487C6.91429 6.55519 6.87479 6.65057 6.87479 6.75003C6.87479 6.84949 6.91429 6.94487 6.98462 7.0152C7.05495 7.08552 7.15033 7.12503 7.24979 7.12503ZM7.24979 10.875H12.4998C12.5992 10.875 12.6946 10.8355 12.765 10.7652C12.8353 10.6949 12.8748 10.5995 12.8748 10.5C12.8748 10.4006 12.8353 10.3052 12.765 10.2349C12.6946 10.1645 12.5992 10.125 12.4998 10.125H7.24979C7.15033 10.125 7.05495 10.1645 6.98462 10.2349C6.91429 10.3052 6.87479 10.4006 6.87479 10.5C6.87479 10.5995 6.91429 10.6949 6.98462 10.7652C7.05495 10.8355 7.15033 10.875 7.24979 10.875ZM7.24979 14.625H12.4998C12.5992 14.625 12.6946 14.5855 12.765 14.5152C12.8353 14.4449 12.8748 14.3495 12.8748 14.25C12.8748 14.1506 12.8353 14.0552 12.765 13.9849C12.6946 13.9145 12.5992 13.875 12.4998 13.875H7.24979C7.15033 13.875 7.05495 13.9145 6.98462 13.9849C6.91429 14.0552 6.87479 14.1506 6.87479 14.25C6.87479 14.3495 6.91429 14.4449 6.98462 14.5152C7.05495 14.5855 7.15033 14.625 7.24979 14.625Z" fill="black" fill-opacity="0.2"/>
<path fill-rule="evenodd" clip-rule="evenodd" d="M3.23466 7.01516L3.98466 7.76516C4.01946 7.80001 4.06078 7.82766 4.10628 7.84653C4.15177 7.86539 4.20054 7.87511 4.24979 7.87511C4.29904 7.87511 4.3478 7.86539 4.3933 7.84653C4.43879 7.82766 4.48012 7.80001 4.51491 7.76516L6.01491 6.26516C6.08322 6.19443 6.12102 6.0997 6.12016 6.00138C6.11931 5.90306 6.07987 5.809 6.01034 5.73947C5.94082 5.66995 5.84676 5.63051 5.74844 5.62965C5.65011 5.6288 5.55539 5.6666 5.48466 5.73491L4.24979 6.96978L3.76491 6.48491C3.69419 6.4166 3.59946 6.3788 3.50114 6.37965C3.40281 6.38051 3.30876 6.41995 3.23923 6.48947C3.1697 6.559 3.13026 6.65306 3.12941 6.75138C3.12855 6.8497 3.16635 6.94443 3.23466 7.01516ZM3.23466 10.7652L3.98466 11.5152C4.01946 11.55 4.06078 11.5777 4.10628 11.5965C4.15177 11.6154 4.20054 11.6251 4.24979 11.6251C4.29904 11.6251 4.3478 11.6154 4.3933 11.5965C4.43879 11.5777 4.48012 11.55 4.51491 11.5152L6.01491 10.0152C6.08322 9.94443 6.12102 9.8497 6.12016 9.75138C6.11931 9.65306 6.07987 9.559 6.01034 9.48947C5.94082 9.41995 5.84676 9.38051 5.74844 9.37965C5.65011 9.3788 5.55539 9.4166 5.48466 9.48491L4.24979 10.7198L3.76491 10.2349C3.69419 10.1666 3.59946 10.1288 3.50114 10.1297C3.40281 10.1305 3.30876 10.1699 3.23923 10.2395C3.1697 10.309 3.13026 10.4031 3.12941 10.5014C3.12855 10.5997 3.16635 10.6944 3.23466 10.7652ZM3.23466 14.5152L3.98466 15.2652C4.01946 15.3 4.06078 15.3277 4.10628 15.3465C4.15177 15.3654 4.20054 15.3751 4.24979 15.3751C4.29904 15.3751 4.3478 15.3654 4.3933 15.3465C4.43879 15.3277 4.48012 15.3 4.51491 15.2652L6.01491 13.7652C6.08322 13.6944 6.12102 13.5997 6.12016 13.5014C6.11931 13.4031 6.07987 13.309 6.01034 13.2395C5.94082 13.1699 5.84676 13.1305 5.74844 13.1297C5.65011 13.1288 5.55539 13.1666 5.48466 13.2349L4.24979 14.4698L3.76491 13.9849C3.69419 13.9166 3.59946 13.8788 3.50114 13.8797C3.40281 13.8805 3.30876 13.9199 3.23923 13.9895C3.1697 14.059 3.13026 14.1531 3.12941 14.2514C3.12855 14.3497 3.16635 14.4444 3.23466 14.5152ZM7.24979 7.12503H12.4998C12.5992 7.12503 12.6946 7.08552 12.765 7.0152C12.8353 6.94487 12.8748 6.84949 12.8748 6.75003C12.8748 6.65057 12.8353 6.55519 12.765 6.48487C12.6946 6.41454 12.5992 6.37503 12.4998 6.37503H7.24979C7.15033 6.37503 7.05495 6.41454 6.98462 6.48487C6.91429 6.55519 6.87479 6.65057 6.87479 6.75003C6.87479 6.84949 6.91429 6.94487 6.98462 7.0152C7.05495 7.08552 7.15033 7.12503 7.24979 7.12503ZM7.24979 10.875H12.4998C12.5992 10.875 12.6946 10.8355 12.765 10.7652C12.8353 10.6949 12.8748 10.5995 12.8748 10.5C12.8748 10.4006 12.8353 10.3052 12.765 10.2349C12.6946 10.1645 12.5992 10.125 12.4998 10.125H7.24979C7.15033 10.125 7.05495 10.1645 6.98462 10.2349C6.91429 10.3052 6.87479 10.4006 6.87479 10.5C6.87479 10.5995 6.91429 10.6949 6.98462 10.7652C7.05495 10.8355 7.15033 10.875 7.24979 10.875ZM7.24979 14.625H12.4998C12.5992 14.625 12.6946 14.5855 12.765 14.5152C12.8353 14.4449 12.8748 14.3495 12.8748 14.25C12.8748 14.1506 12.8353 14.0552 12.765 13.9849C12.6946 13.9145 12.5992 13.875 12.4998 13.875H7.24979C7.15033 13.875 7.05495 13.9145 6.98462 13.9849C6.91429 14.0552 6.87479 14.1506 6.87479 14.25C6.87479 14.3495 6.91429 14.4449 6.98462 14.5152C7.05495 14.5855 7.15033 14.625 7.24979 14.625Z" fill="black" fill-opacity="0.2"/>
<path fill-rule="evenodd" clip-rule="evenodd" d="M3.23466 7.01516L3.98466 7.76516C4.01946 7.80001 4.06078 7.82766 4.10628 7.84653C4.15177 7.86539 4.20054 7.87511 4.24979 7.87511C4.29904 7.87511 4.3478 7.86539 4.3933 7.84653C4.43879 7.82766 4.48012 7.80001 4.51491 7.76516L6.01491 6.26516C6.08322 6.19443 6.12102 6.0997 6.12016 6.00138C6.11931 5.90306 6.07987 5.809 6.01034 5.73947C5.94082 5.66995 5.84676 5.63051 5.74844 5.62965C5.65011 5.6288 5.55539 5.6666 5.48466 5.73491L4.24979 6.96978L3.76491 6.48491C3.69419 6.4166 3.59946 6.3788 3.50114 6.37965C3.40281 6.38051 3.30876 6.41995 3.23923 6.48947C3.1697 6.559 3.13026 6.65306 3.12941 6.75138C3.12855 6.8497 3.16635 6.94443 3.23466 7.01516ZM3.23466 10.7652L3.98466 11.5152C4.01946 11.55 4.06078 11.5777 4.10628 11.5965C4.15177 11.6154 4.20054 11.6251 4.24979 11.6251C4.29904 11.6251 4.3478 11.6154 4.3933 11.5965C4.43879 11.5777 4.48012 11.55 4.51491 11.5152L6.01491 10.0152C6.08322 9.94443 6.12102 9.8497 6.12016 9.75138C6.11931 9.65306 6.07987 9.559 6.01034 9.48947C5.94082 9.41995 5.84676 9.38051 5.74844 9.37965C5.65011 9.3788 5.55539 9.4166 5.48466 9.48491L4.24979 10.7198L3.76491 10.2349C3.69419 10.1666 3.59946 10.1288 3.50114 10.1297C3.40281 10.1305 3.30876 10.1699 3.23923 10.2395C3.1697 10.309 3.13026 10.4031 3.12941 10.5014C3.12855 10.5997 3.16635 10.6944 3.23466 10.7652ZM3.23466 14.5152L3.98466 15.2652C4.01946 15.3 4.06078 15.3277 4.10628 15.3465C4.15177 15.3654 4.20054 15.3751 4.24979 15.3751C4.29904 15.3751 4.3478 15.3654 4.3933 15.3465C4.43879 15.3277 4.48012 15.3 4.51491 15.2652L6.01491 13.7652C6.08322 13.6944 6.12102 13.5997 6.12016 13.5014C6.11931 13.4031 6.07987 13.309 6.01034 13.2395C5.94082 13.1699 5.84676 13.1305 5.74844 13.1297C5.65011 13.1288 5.55539 13.1666 5.48466 13.2349L4.24979 14.4698L3.76491 13.9849C3.69419 13.9166 3.59946 13.8788 3.50114 13.8797C3.40281 13.8805 3.30876 13.9199 3.23923 13.9895C3.1697 14.059 3.13026 14.1531 3.12941 14.2514C3.12855 14.3497 3.16635 14.4444 3.23466 14.5152ZM7.24979 7.12503H12.4998C12.5992 7.12503 12.6946 7.08552 12.765 7.0152C12.8353 6.94487 12.8748 6.84949 12.8748 6.75003C12.8748 6.65057 12.8353 6.55519 12.765 6.48487C12.6946 6.41454 12.5992 6.37503 12.4998 6.37503H7.24979C7.15033 6.37503 7.05495 6.41454 6.98462 6.48487C6.91429 6.55519 6.87479 6.65057 6.87479 6.75003C6.87479 6.84949 6.91429 6.94487 6.98462 7.0152C7.05495 7.08552 7.15033 7.12503 7.24979 7.12503ZM7.24979 10.875H12.4998C12.5992 10.875 12.6946 10.8355 12.765 10.7652C12.8353 10.6949 12.8748 10.5995 12.8748 10.5C12.8748 10.4006 12.8353 10.3052 12.765 10.2349C12.6946 10.1645 12.5992 10.125 12.4998 10.125H7.24979C7.15033 10.125 7.05495 10.1645 6.98462 10.2349C6.91429 10.3052 6.87479 10.4006 6.87479 10.5C6.87479 10.5995 6.91429 10.6949 6.98462 10.7652C7.05495 10.8355 7.15033 10.875 7.24979 10.875ZM7.24979 14.625H12.4998C12.5992 14.625 12.6946 14.5855 12.765 14.5152C12.8353 14.4449 12.8748 14.3495 12.8748 14.25C12.8748 14.1506 12.8353 14.0552 12.765 13.9849C12.6946 13.9145 12.5992 13.875 12.4998 13.875H7.24979C7.15033 13.875 7.05495 13.9145 6.98462 13.9849C6.91429 14.0552 6.87479 14.1506 6.87479 14.25C6.87479 14.3495 6.91429 14.4449 6.98462 14.5152C7.05495 14.5855 7.15033 14.625 7.24979 14.625Z" fill="black" fill-opacity="0.2"/>
<path fill-rule="evenodd" clip-rule="evenodd" d="M3.23466 7.01516L3.98466 7.76516C4.01946 7.80001 4.06078 7.82766 4.10628 7.84653C4.15177 7.86539 4.20054 7.87511 4.24979 7.87511C4.29904 7.87511 4.3478 7.86539 4.3933 7.84653C4.43879 7.82766 4.48012 7.80001 4.51491 7.76516L6.01491 6.26516C6.08322 6.19443 6.12102 6.0997 6.12016 6.00138C6.11931 5.90306 6.07987 5.809 6.01034 5.73947C5.94082 5.66995 5.84676 5.63051 5.74844 5.62965C5.65011 5.6288 5.55539 5.6666 5.48466 5.73491L4.24979 6.96978L3.76491 6.48491C3.69419 6.4166 3.59946 6.3788 3.50114 6.37965C3.40281 6.38051 3.30876 6.41995 3.23923 6.48947C3.1697 6.559 3.13026 6.65306 3.12941 6.75138C3.12855 6.8497 3.16635 6.94443 3.23466 7.01516ZM3.23466 10.7652L3.98466 11.5152C4.01946 11.55 4.06078 11.5777 4.10628 11.5965C4.15177 11.6154 4.20054 11.6251 4.24979 11.6251C4.29904 11.6251 4.3478 11.6154 4.3933 11.5965C4.43879 11.5777 4.48012 11.55 4.51491 11.5152L6.01491 10.0152C6.08322 9.94443 6.12102 9.8497 6.12016 9.75138C6.11931 9.65306 6.07987 9.559 6.01034 9.48947C5.94082 9.41995 5.84676 9.38051 5.74844 9.37965C5.65011 9.3788 5.55539 9.4166 5.48466 9.48491L4.24979 10.7198L3.76491 10.2349C3.69419 10.1666 3.59946 10.1288 3.50114 10.1297C3.40281 10.1305 3.30876 10.1699 3.23923 10.2395C3.1697 10.309 3.13026 10.4031 3.12941 10.5014C3.12855 10.5997 3.16635 10.6944 3.23466 10.7652ZM3.23466 14.5152L3.98466 15.2652C4.01946 15.3 4.06078 15.3277 4.10628 15.3465C4.15177 15.3654 4.20054 15.3751 4.24979 15.3751C4.29904 15.3751 4.3478 15.3654 4.3933 15.3465C4.43879 15.3277 4.48012 15.3 4.51491 15.2652L6.01491 13.7652C6.08322 13.6944 6.12102 13.5997 6.12016 13.5014C6.11931 13.4031 6.07987 13.309 6.01034 13.2395C5.94082 13.1699 5.84676 13.1305 5.74844 13.1297C5.65011 13.1288 5.55539 13.1666 5.48466 13.2349L4.24979 14.4698L3.76491 13.9849C3.69419 13.9166 3.59946 13.8788 3.50114 13.8797C3.40281 13.8805 3.30876 13.9199 3.23923 13.9895C3.1697 14.059 3.13026 14.1531 3.12941 14.2514C3.12855 14.3497 3.16635 14.4444 3.23466 14.5152ZM7.24979 7.12503H12.4998C12.5992 7.12503 12.6946 7.08552 12.765 7.0152C12.8353 6.94487 12.8748 6.84949 12.8748 6.75003C12.8748 6.65057 12.8353 6.55519 12.765 6.48487C12.6946 6.41454 12.5992 6.37503 12.4998 6.37503H7.24979C7.15033 6.37503 7.05495 6.41454 6.98462 6.48487C6.91429 6.55519 6.87479 6.65057 6.87479 6.75003C6.87479 6.84949 6.91429 6.94487 6.98462 7.0152C7.05495 7.08552 7.15033 7.12503 7.24979 7.12503ZM7.24979 10.875H12.4998C12.5992 10.875 12.6946 10.8355 12.765 10.7652C12.8353 10.6949 12.8748 10.5995 12.8748 10.5C12.8748 10.4006 12.8353 10.3052 12.765 10.2349C12.6946 10.1645 12.5992 10.125 12.4998 10.125H7.24979C7.15033 10.125 7.05495 10.1645 6.98462 10.2349C6.91429 10.3052 6.87479 10.4006 6.87479 10.5C6.87479 10.5995 6.91429 10.6949 6.98462 10.7652C7.05495 10.8355 7.15033 10.875 7.24979 10.875ZM7.24979 14.625H12.4998C12.5992 14.625 12.6946 14.5855 12.765 14.5152C12.8353 14.4449 12.8748 14.3495 12.8748 14.25C12.8748 14.1506 12.8353 14.0552 12.765 13.9849C12.6946 13.9145 12.5992 13.875 12.4998 13.875H7.24979C7.15033 13.875 7.05495 13.9145 6.98462 13.9849C6.91429 14.0552 6.87479 14.1506 6.87479 14.25C6.87479 14.3495 6.91429 14.4449 6.98462 14.5152C7.05495 14.5855 7.15033 14.625 7.24979 14.625Z" fill="black" fill-opacity="0.2"/>
<path fill-rule="evenodd" clip-rule="evenodd" d="M3.23466 7.01516L3.98466 7.76516C4.01946 7.80001 4.06078 7.82766 4.10628 7.84653C4.15177 7.86539 4.20054 7.87511 4.24979 7.87511C4.29904 7.87511 4.3478 7.86539 4.3933 7.84653C4.43879 7.82766 4.48012 7.80001 4.51491 7.76516L6.01491 6.26516C6.08322 6.19443 6.12102 6.0997 6.12016 6.00138C6.11931 5.90306 6.07987 5.809 6.01034 5.73947C5.94082 5.66995 5.84676 5.63051 5.74844 5.62965C5.65011 5.6288 5.55539 5.6666 5.48466 5.73491L4.24979 6.96978L3.76491 6.48491C3.69419 6.4166 3.59946 6.3788 3.50114 6.37965C3.40281 6.38051 3.30876 6.41995 3.23923 6.48947C3.1697 6.559 3.13026 6.65306 3.12941 6.75138C3.12855 6.8497 3.16635 6.94443 3.23466 7.01516ZM3.23466 10.7652L3.98466 11.5152C4.01946 11.55 4.06078 11.5777 4.10628 11.5965C4.15177 11.6154 4.20054 11.6251 4.24979 11.6251C4.29904 11.6251 4.3478 11.6154 4.3933 11.5965C4.43879 11.5777 4.48012 11.55 4.51491 11.5152L6.01491 10.0152C6.08322 9.94443 6.12102 9.8497 6.12016 9.75138C6.11931 9.65306 6.07987 9.559 6.01034 9.48947C5.94082 9.41995 5.84676 9.38051 5.74844 9.37965C5.65011 9.3788 5.55539 9.4166 5.48466 9.48491L4.24979 10.7198L3.76491 10.2349C3.69419 10.1666 3.59946 10.1288 3.50114 10.1297C3.40281 10.1305 3.30876 10.1699 3.23923 10.2395C3.1697 10.309 3.13026 10.4031 3.12941 10.5014C3.12855 10.5997 3.16635 10.6944 3.23466 10.7652ZM3.23466 14.5152L3.98466 15.2652C4.01946 15.3 4.06078 15.3277 4.10628 15.3465C4.15177 15.3654 4.20054 15.3751 4.24979 15.3751C4.29904 15.3751 4.3478 15.3654 4.3933 15.3465C4.43879 15.3277 4.48012 15.3 4.51491 15.2652L6.01491 13.7652C6.08322 13.6944 6.12102 13.5997 6.12016 13.5014C6.11931 13.4031 6.07987 13.309 6.01034 13.2395C5.94082 13.1699 5.84676 13.1305 5.74844 13.1297C5.65011 13.1288 5.55539 13.1666 5.48466 13.2349L4.24979 14.4698L3.76491 13.9849C3.69419 13.9166 3.59946 13.8788 3.50114 13.8797C3.40281 13.8805 3.30876 13.9199 3.23923 13.9895C3.1697 14.059 3.13026 14.1531 3.12941 14.2514C3.12855 14.3497 3.16635 14.4444 3.23466 14.5152ZM7.24979 7.12503H12.4998C12.5992 7.12503 12.6946 7.08552 12.765 7.0152C12.8353 6.94487 12.8748 6.84949 12.8748 6.75003C12.8748 6.65057 12.8353 6.55519 12.765 6.48487C12.6946 6.41454 12.5992 6.37503 12.4998 6.37503H7.24979C7.15033 6.37503 7.05495 6.41454 6.98462 6.48487C6.91429 6.55519 6.87479 6.65057 6.87479 6.75003C6.87479 6.84949 6.91429 6.94487 6.98462 7.0152C7.05495 7.08552 7.15033 7.12503 7.24979 7.12503ZM7.24979 10.875H12.4998C12.5992 10.875 12.6946 10.8355 12.765 10.7652C12.8353 10.6949 12.8748 10.5995 12.8748 10.5C12.8748 10.4006 12.8353 10.3052 12.765 10.2349C12.6946 10.1645 12.5992 10.125 12.4998 10.125H7.24979C7.15033 10.125 7.05495 10.1645 6.98462 10.2349C6.91429 10.3052 6.87479 10.4006 6.87479 10.5C6.87479 10.5995 6.91429 10.6949 6.98462 10.7652C7.05495 10.8355 7.15033 10.875 7.24979 10.875ZM7.24979 14.625H12.4998C12.5992 14.625 12.6946 14.5855 12.765 14.5152C12.8353 14.4449 12.8748 14.3495 12.8748 14.25C12.8748 14.1506 12.8353 14.0552 12.765 13.9849C12.6946 13.9145 12.5992 13.875 12.4998 13.875H7.24979C7.15033 13.875 7.05495 13.9145 6.98462 13.9849C6.91429 14.0552 6.87479 14.1506 6.87479 14.25C6.87479 14.3495 6.91429 14.4449 6.98462 14.5152C7.05495 14.5855 7.15033 14.625 7.24979 14.625Z" fill="black" fill-opacity="0.2"/>
<path fill-rule="evenodd" clip-rule="evenodd" d="M3.23466 7.01516L3.98466 7.76516C4.01946 7.80001 4.06078 7.82766 4.10628 7.84653C4.15177 7.86539 4.20054 7.87511 4.24979 7.87511C4.29904 7.87511 4.3478 7.86539 4.3933 7.84653C4.43879 7.82766 4.48012 7.80001 4.51491 7.76516L6.01491 6.26516C6.08322 6.19443 6.12102 6.0997 6.12016 6.00138C6.11931 5.90306 6.07987 5.809 6.01034 5.73947C5.94082 5.66995 5.84676 5.63051 5.74844 5.62965C5.65011 5.6288 5.55539 5.6666 5.48466 5.73491L4.24979 6.96978L3.76491 6.48491C3.69419 6.4166 3.59946 6.3788 3.50114 6.37965C3.40281 6.38051 3.30876 6.41995 3.23923 6.48947C3.1697 6.559 3.13026 6.65306 3.12941 6.75138C3.12855 6.8497 3.16635 6.94443 3.23466 7.01516ZM3.23466 10.7652L3.98466 11.5152C4.01946 11.55 4.06078 11.5777 4.10628 11.5965C4.15177 11.6154 4.20054 11.6251 4.24979 11.6251C4.29904 11.6251 4.3478 11.6154 4.3933 11.5965C4.43879 11.5777 4.48012 11.55 4.51491 11.5152L6.01491 10.0152C6.08322 9.94443 6.12102 9.8497 6.12016 9.75138C6.11931 9.65306 6.07987 9.559 6.01034 9.48947C5.94082 9.41995 5.84676 9.38051 5.74844 9.37965C5.65011 9.3788 5.55539 9.4166 5.48466 9.48491L4.24979 10.7198L3.76491 10.2349C3.69419 10.1666 3.59946 10.1288 3.50114 10.1297C3.40281 10.1305 3.30876 10.1699 3.23923 10.2395C3.1697 10.309 3.13026 10.4031 3.12941 10.5014C3.12855 10.5997 3.16635 10.6944 3.23466 10.7652ZM3.23466 14.5152L3.98466 15.2652C4.01946 15.3 4.06078 15.3277 4.10628 15.3465C4.15177 15.3654 4.20054 15.3751 4.24979 15.3751C4.29904 15.3751 4.3478 15.3654 4.3933 15.3465C4.43879 15.3277 4.48012 15.3 4.51491 15.2652L6.01491 13.7652C6.08322 13.6944 6.12102 13.5997 6.12016 13.5014C6.11931 13.4031 6.07987 13.309 6.01034 13.2395C5.94082 13.1699 5.84676 13.1305 5.74844 13.1297C5.65011 13.1288 5.55539 13.1666 5.48466 13.2349L4.24979 14.4698L3.76491 13.9849C3.69419 13.9166 3.59946 13.8788 3.50114 13.8797C3.40281 13.8805 3.30876 13.9199 3.23923 13.9895C3.1697 14.059 3.13026 14.1531 3.12941 14.2514C3.12855 14.3497 3.16635 14.4444 3.23466 14.5152ZM7.24979 7.12503H12.4998C12.5992 7.12503 12.6946 7.08552 12.765 7.0152C12.8353 6.94487 12.8748 6.84949 12.8748 6.75003C12.8748 6.65057 12.8353 6.55519 12.765 6.48487C12.6946 6.41454 12.5992 6.37503 12.4998 6.37503H7.24979C7.15033 6.37503 7.05495 6.41454 6.98462 6.48487C6.91429 6.55519 6.87479 6.65057 6.87479 6.75003C6.87479 6.84949 6.91429 6.94487 6.98462 7.0152C7.05495 7.08552 7.15033 7.12503 7.24979 7.12503ZM7.24979 10.875H12.4998C12.5992 10.875 12.6946 10.8355 12.765 10.7652C12.8353 10.6949 12.8748 10.5995 12.8748 10.5C12.8748 10.4006 12.8353 10.3052 12.765 10.2349C12.6946 10.1645 12.5992 10.125 12.4998 10.125H7.24979C7.15033 10.125 7.05495 10.1645 6.98462 10.2349C6.91429 10.3052 6.87479 10.4006 6.87479 10.5C6.87479 10.5995 6.91429 10.6949 6.98462 10.7652C7.05495 10.8355 7.15033 10.875 7.24979 10.875ZM7.24979 14.625H12.4998C12.5992 14.625 12.6946 14.5855 12.765 14.5152C12.8353 14.4449 12.8748 14.3495 12.8748 14.25C12.8748 14.1506 12.8353 14.0552 12.765 13.9849C12.6946 13.9145 12.5992 13.875 12.4998 13.875H7.24979C7.15033 13.875 7.05495 13.9145 6.98462 13.9849C6.91429 14.0552 6.87479 14.1506 6.87479 14.25C6.87479 14.3495 6.91429 14.4449 6.98462 14.5152C7.05495 14.5855 7.15033 14.625 7.24979 14.625Z" fill="black" fill-opacity="0.2"/>
<path fill-rule="evenodd" clip-rule="evenodd" d="M3.23466 7.01516L3.98466 7.76516C4.01946 7.80001 4.06078 7.82766 4.10628 7.84653C4.15177 7.86539 4.20054 7.87511 4.24979 7.87511C4.29904 7.87511 4.3478 7.86539 4.3933 7.84653C4.43879 7.82766 4.48012 7.80001 4.51491 7.76516L6.01491 6.26516C6.08322 6.19443 6.12102 6.0997 6.12016 6.00138C6.11931 5.90306 6.07987 5.809 6.01034 5.73947C5.94082 5.66995 5.84676 5.63051 5.74844 5.62965C5.65011 5.6288 5.55539 5.6666 5.48466 5.73491L4.24979 6.96978L3.76491 6.48491C3.69419 6.4166 3.59946 6.3788 3.50114 6.37965C3.40281 6.38051 3.30876 6.41995 3.23923 6.48947C3.1697 6.559 3.13026 6.65306 3.12941 6.75138C3.12855 6.8497 3.16635 6.94443 3.23466 7.01516ZM3.23466 10.7652L3.98466 11.5152C4.01946 11.55 4.06078 11.5777 4.10628 11.5965C4.15177 11.6154 4.20054 11.6251 4.24979 11.6251C4.29904 11.6251 4.3478 11.6154 4.3933 11.5965C4.43879 11.5777 4.48012 11.55 4.51491 11.5152L6.01491 10.0152C6.08322 9.94443 6.12102 9.8497 6.12016 9.75138C6.11931 9.65306 6.07987 9.559 6.01034 9.48947C5.94082 9.41995 5.84676 9.38051 5.74844 9.37965C5.65011 9.3788 5.55539 9.4166 5.48466 9.48491L4.24979 10.7198L3.76491 10.2349C3.69419 10.1666 3.59946 10.1288 3.50114 10.1297C3.40281 10.1305 3.30876 10.1699 3.23923 10.2395C3.1697 10.309 3.13026 10.4031 3.12941 10.5014C3.12855 10.5997 3.16635 10.6944 3.23466 10.7652ZM3.23466 14.5152L3.98466 15.2652C4.01946 15.3 4.06078 15.3277 4.10628 15.3465C4.15177 15.3654 4.20054 15.3751 4.24979 15.3751C4.29904 15.3751 4.3478 15.3654 4.3933 15.3465C4.43879 15.3277 4.48012 15.3 4.51491 15.2652L6.01491 13.7652C6.08322 13.6944 6.12102 13.5997 6.12016 13.5014C6.11931 13.4031 6.07987 13.309 6.01034 13.2395C5.94082 13.1699 5.84676 13.1305 5.74844 13.1297C5.65011 13.1288 5.55539 13.1666 5.48466 13.2349L4.24979 14.4698L3.76491 13.9849C3.69419 13.9166 3.59946 13.8788 3.50114 13.8797C3.40281 13.8805 3.30876 13.9199 3.23923 13.9895C3.1697 14.059 3.13026 14.1531 3.12941 14.2514C3.12855 14.3497 3.16635 14.4444 3.23466 14.5152ZM7.24979 7.12503H12.4998C12.5992 7.12503 12.6946 7.08552 12.765 7.0152C12.8353 6.94487 12.8748 6.84949 12.8748 6.75003C12.8748 6.65057 12.8353 6.55519 12.765 6.48487C12.6946 6.41454 12.5992 6.37503 12.4998 6.37503H7.24979C7.15033 6.37503 7.05495 6.41454 6.98462 6.48487C6.91429 6.55519 6.87479 6.65057 6.87479 6.75003C6.87479 6.84949 6.91429 6.94487 6.98462 7.0152C7.05495 7.08552 7.15033 7.12503 7.24979 7.12503ZM7.24979 10.875H12.4998C12.5992 10.875 12.6946 10.8355 12.765 10.7652C12.8353 10.6949 12.8748 10.5995 12.8748 10.5C12.8748 10.4006 12.8353 10.3052 12.765 10.2349C12.6946 10.1645 12.5992 10.125 12.4998 10.125H7.24979C7.15033 10.125 7.05495 10.1645 6.98462 10.2349C6.91429 10.3052 6.87479 10.4006 6.87479 10.5C6.87479 10.5995 6.91429 10.6949 6.98462 10.7652C7.05495 10.8355 7.15033 10.875 7.24979 10.875ZM7.24979 14.625H12.4998C12.5992 14.625 12.6946 14.5855 12.765 14.5152C12.8353 14.4449 12.8748 14.3495 12.8748 14.25C12.8748 14.1506 12.8353 14.0552 12.765 13.9849C12.6946 13.9145 12.5992 13.875 12.4998 13.875H7.24979C7.15033 13.875 7.05495 13.9145 6.98462 13.9849C6.91429 14.0552 6.87479 14.1506 6.87479 14.25C6.87479 14.3495 6.91429 14.4449 6.98462 14.5152C7.05495 14.5855 7.15033 14.625 7.24979 14.625Z" fill="black" fill-opacity="0.2"/>
<path fill-rule="evenodd" clip-rule="evenodd" d="M3.23466 7.01516L3.98466 7.76516C4.01946 7.80001 4.06078 7.82766 4.10628 7.84653C4.15177 7.86539 4.20054 7.87511 4.24979 7.87511C4.29904 7.87511 4.3478 7.86539 4.3933 7.84653C4.43879 7.82766 4.48012 7.80001 4.51491 7.76516L6.01491 6.26516C6.08322 6.19443 6.12102 6.0997 6.12016 6.00138C6.11931 5.90306 6.07987 5.809 6.01034 5.73947C5.94082 5.66995 5.84676 5.63051 5.74844 5.62965C5.65011 5.6288 5.55539 5.6666 5.48466 5.73491L4.24979 6.96978L3.76491 6.48491C3.69419 6.4166 3.59946 6.3788 3.50114 6.37965C3.40281 6.38051 3.30876 6.41995 3.23923 6.48947C3.1697 6.559 3.13026 6.65306 3.12941 6.75138C3.12855 6.8497 3.16635 6.94443 3.23466 7.01516ZM3.23466 10.7652L3.98466 11.5152C4.01946 11.55 4.06078 11.5777 4.10628 11.5965C4.15177 11.6154 4.20054 11.6251 4.24979 11.6251C4.29904 11.6251 4.3478 11.6154 4.3933 11.5965C4.43879 11.5777 4.48012 11.55 4.51491 11.5152L6.01491 10.0152C6.08322 9.94443 6.12102 9.8497 6.12016 9.75138C6.11931 9.65306 6.07987 9.559 6.01034 9.48947C5.94082 9.41995 5.84676 9.38051 5.74844 9.37965C5.65011 9.3788 5.55539 9.4166 5.48466 9.48491L4.24979 10.7198L3.76491 10.2349C3.69419 10.1666 3.59946 10.1288 3.50114 10.1297C3.40281 10.1305 3.30876 10.1699 3.23923 10.2395C3.1697 10.309 3.13026 10.4031 3.12941 10.5014C3.12855 10.5997 3.16635 10.6944 3.23466 10.7652ZM3.23466 14.5152L3.98466 15.2652C4.01946 15.3 4.06078 15.3277 4.10628 15.3465C4.15177 15.3654 4.20054 15.3751 4.24979 15.3751C4.29904 15.3751 4.3478 15.3654 4.3933 15.3465C4.43879 15.3277 4.48012 15.3 4.51491 15.2652L6.01491 13.7652C6.08322 13.6944 6.12102 13.5997 6.12016 13.5014C6.11931 13.4031 6.07987 13.309 6.01034 13.2395C5.94082 13.1699 5.84676 13.1305 5.74844 13.1297C5.65011 13.1288 5.55539 13.1666 5.48466 13.2349L4.24979 14.4698L3.76491 13.9849C3.69419 13.9166 3.59946 13.8788 3.50114 13.8797C3.40281 13.8805 3.30876 13.9199 3.23923 13.9895C3.1697 14.059 3.13026 14.1531 3.12941 14.2514C3.12855 14.3497 3.16635 14.4444 3.23466 14.5152ZM7.24979 7.12503H12.4998C12.5992 7.12503 12.6946 7.08552 12.765 7.0152C12.8353 6.94487 12.8748 6.84949 12.8748 6.75003C12.8748 6.65057 12.8353 6.55519 12.765 6.48487C12.6946 6.41454 12.5992 6.37503 12.4998 6.37503H7.24979C7.15033 6.37503 7.05495 6.41454 6.98462 6.48487C6.91429 6.55519 6.87479 6.65057 6.87479 6.75003C6.87479 6.84949 6.91429 6.94487 6.98462 7.0152C7.05495 7.08552 7.15033 7.12503 7.24979 7.12503ZM7.24979 10.875H12.4998C12.5992 10.875 12.6946 10.8355 12.765 10.7652C12.8353 10.6949 12.8748 10.5995 12.8748 10.5C12.8748 10.4006 12.8353 10.3052 12.765 10.2349C12.6946 10.1645 12.5992 10.125 12.4998 10.125H7.24979C7.15033 10.125 7.05495 10.1645 6.98462 10.2349C6.91429 10.3052 6.87479 10.4006 6.87479 10.5C6.87479 10.5995 6.91429 10.6949 6.98462 10.7652C7.05495 10.8355 7.15033 10.875 7.24979 10.875ZM7.24979 14.625H12.4998C12.5992 14.625 12.6946 14.5855 12.765 14.5152C12.8353 14.4449 12.8748 14.3495 12.8748 14.25C12.8748 14.1506 12.8353 14.0552 12.765 13.9849C12.6946 13.9145 12.5992 13.875 12.4998 13.875H7.24979C7.15033 13.875 7.05495 13.9145 6.98462 13.9849C6.91429 14.0552 6.87479 14.1506 6.87479 14.25C6.87479 14.3495 6.91429 14.4449 6.98462 14.5152C7.05495 14.5855 7.15033 14.625 7.24979 14.625Z" fill="black" fill-opacity="0.2"/>
<path fill-rule="evenodd" clip-rule="evenodd" d="M3.23466 7.01516L3.98466 7.76516C4.01946 7.80001 4.06078 7.82766 4.10628 7.84653C4.15177 7.86539 4.20054 7.87511 4.24979 7.87511C4.29904 7.87511 4.3478 7.86539 4.3933 7.84653C4.43879 7.82766 4.48012 7.80001 4.51491 7.76516L6.01491 6.26516C6.08322 6.19443 6.12102 6.0997 6.12016 6.00138C6.11931 5.90306 6.07987 5.809 6.01034 5.73947C5.94082 5.66995 5.84676 5.63051 5.74844 5.62965C5.65011 5.6288 5.55539 5.6666 5.48466 5.73491L4.24979 6.96978L3.76491 6.48491C3.69419 6.4166 3.59946 6.3788 3.50114 6.37965C3.40281 6.38051 3.30876 6.41995 3.23923 6.48947C3.1697 6.559 3.13026 6.65306 3.12941 6.75138C3.12855 6.8497 3.16635 6.94443 3.23466 7.01516ZM3.23466 10.7652L3.98466 11.5152C4.01946 11.55 4.06078 11.5777 4.10628 11.5965C4.15177 11.6154 4.20054 11.6251 4.24979 11.6251C4.29904 11.6251 4.3478 11.6154 4.3933 11.5965C4.43879 11.5777 4.48012 11.55 4.51491 11.5152L6.01491 10.0152C6.08322 9.94443 6.12102 9.8497 6.12016 9.75138C6.11931 9.65306 6.07987 9.559 6.01034 9.48947C5.94082 9.41995 5.84676 9.38051 5.74844 9.37965C5.65011 9.3788 5.55539 9.4166 5.48466 9.48491L4.24979 10.7198L3.76491 10.2349C3.69419 10.1666 3.59946 10.1288 3.50114 10.1297C3.40281 10.1305 3.30876 10.1699 3.23923 10.2395C3.1697 10.309 3.13026 10.4031 3.12941 10.5014C3.12855 10.5997 3.16635 10.6944 3.23466 10.7652ZM3.23466 14.5152L3.98466 15.2652C4.01946 15.3 4.06078 15.3277 4.10628 15.3465C4.15177 15.3654 4.20054 15.3751 4.24979 15.3751C4.29904 15.3751 4.3478 15.3654 4.3933 15.3465C4.43879 15.3277 4.48012 15.3 4.51491 15.2652L6.01491 13.7652C6.08322 13.6944 6.12102 13.5997 6.12016 13.5014C6.11931 13.4031 6.07987 13.309 6.01034 13.2395C5.94082 13.1699 5.84676 13.1305 5.74844 13.1297C5.65011 13.1288 5.55539 13.1666 5.48466 13.2349L4.24979 14.4698L3.76491 13.9849C3.69419 13.9166 3.59946 13.8788 3.50114 13.8797C3.40281 13.8805 3.30876 13.9199 3.23923 13.9895C3.1697 14.059 3.13026 14.1531 3.12941 14.2514C3.12855 14.3497 3.16635 14.4444 3.23466 14.5152ZM7.24979 7.12503H12.4998C12.5992 7.12503 12.6946 7.08552 12.765 7.0152C12.8353 6.94487 12.8748 6.84949 12.8748 6.75003C12.8748 6.65057 12.8353 6.55519 12.765 6.48487C12.6946 6.41454 12.5992 6.37503 12.4998 6.37503H7.24979C7.15033 6.37503 7.05495 6.41454 6.98462 6.48487C6.91429 6.55519 6.87479 6.65057 6.87479 6.75003C6.87479 6.84949 6.91429 6.94487 6.98462 7.0152C7.05495 7.08552 7.15033 7.12503 7.24979 7.12503ZM7.24979 10.875H12.4998C12.5992 10.875 12.6946 10.8355 12.765 10.7652C12.8353 10.6949 12.8748 10.5995 12.8748 10.5C12.8748 10.4006 12.8353 10.3052 12.765 10.2349C12.6946 10.1645 12.5992 10.125 12.4998 10.125H7.24979C7.15033 10.125 7.05495 10.1645 6.98462 10.2349C6.91429 10.3052 6.87479 10.4006 6.87479 10.5C6.87479 10.5995 6.91429 10.6949 6.98462 10.7652C7.05495 10.8355 7.15033 10.875 7.24979 10.875ZM7.24979 14.625H12.4998C12.5992 14.625 12.6946 14.5855 12.765 14.5152C12.8353 14.4449 12.8748 14.3495 12.8748 14.25C12.8748 14.1506 12.8353 14.0552 12.765 13.9849C12.6946 13.9145 12.5992 13.875 12.4998 13.875H7.24979C7.15033 13.875 7.05495 13.9145 6.98462 13.9849C6.91429 14.0552 6.87479 14.1506 6.87479 14.25C6.87479 14.3495 6.91429 14.4449 6.98462 14.5152C7.05495 14.5855 7.15033 14.625 7.24979 14.625Z" fill="black" fill-opacity="0.2"/>
</g>
</g>
</svg>
