<svg width="18" height="18" viewBox="0 0 18 18" fill="none" xmlns="http://www.w3.org/2000/svg">
<g id="Group">
<g id="Vector">
<path d="M17.0007 4.81067L9.12572 0.873168C9.08668 0.853661 9.04364 0.843506 9 0.843506C8.95636 0.843506 8.91332 0.853661 8.87428 0.873168L0.999285 4.81067C0.952532 4.83403 0.913214 4.86996 0.885742 4.91442C0.858269 4.95888 0.84373 5.01012 0.843754 5.06239V12.9374C0.843468 12.9899 0.857884 13.0414 0.885371 13.0862C0.912858 13.1309 0.952318 13.167 0.999285 13.1905L8.87428 17.128C8.91332 17.1475 8.95636 17.1577 9 17.1577C9.04364 17.1577 9.08668 17.1475 9.12572 17.128L17.0007 13.1905C17.0477 13.167 17.0871 13.1309 17.1146 13.0862C17.1421 13.0414 17.1565 12.9899 17.1563 12.9374V5.06239C17.1563 5.01012 17.1417 4.95888 17.1143 4.91442C17.0868 4.86996 17.0475 4.83403 17.0007 4.81067ZM9 8.68545L6.80147 7.58604L13.8288 3.85301L16.2475 5.06239L9 8.68545ZM4.55147 6.46104L11.5788 2.72801L13.21 3.54364L6.18357 7.27723L4.55147 6.46104ZM4.21875 6.9237L5.90625 7.76745V10.0084L5.26135 9.36354C5.20862 9.31079 5.13709 9.28115 5.0625 9.28114H4.21875V6.9237ZM9 1.43932L10.9609 2.41864L3.93357 6.15223L1.75388 5.06239L9 1.43932ZM1.40625 5.51745L3.65625 6.64245V9.56239C3.65625 9.63698 3.68589 9.70852 3.73863 9.76126C3.79137 9.814 3.86291 9.84364 3.9375 9.84364H4.94607L5.98866 10.8862C6.02799 10.9256 6.0781 10.9523 6.13265 10.9632C6.1872 10.974 6.24374 10.9685 6.29513 10.9472C6.34651 10.9259 6.39043 10.8898 6.42134 10.8436C6.45224 10.7974 6.46874 10.743 6.46875 10.6874V8.0487L8.71875 9.1737V16.4198L1.40625 12.7636V5.51745ZM9.28125 16.4198V9.1737L16.5938 5.51745V12.7636L9.28125 16.4198Z" fill="#040D12"/>
<path d="M17.0007 4.81067L9.12572 0.873168C9.08668 0.853661 9.04364 0.843506 9 0.843506C8.95636 0.843506 8.91332 0.853661 8.87428 0.873168L0.999285 4.81067C0.952532 4.83403 0.913214 4.86996 0.885742 4.91442C0.858269 4.95888 0.84373 5.01012 0.843754 5.06239V12.9374C0.843468 12.9899 0.857884 13.0414 0.885371 13.0862C0.912858 13.1309 0.952318 13.167 0.999285 13.1905L8.87428 17.128C8.91332 17.1475 8.95636 17.1577 9 17.1577C9.04364 17.1577 9.08668 17.1475 9.12572 17.128L17.0007 13.1905C17.0477 13.167 17.0871 13.1309 17.1146 13.0862C17.1421 13.0414 17.1565 12.9899 17.1563 12.9374V5.06239C17.1563 5.01012 17.1417 4.95888 17.1143 4.91442C17.0868 4.86996 17.0475 4.83403 17.0007 4.81067ZM9 8.68545L6.80147 7.58604L13.8288 3.85301L16.2475 5.06239L9 8.68545ZM4.55147 6.46104L11.5788 2.72801L13.21 3.54364L6.18357 7.27723L4.55147 6.46104ZM4.21875 6.9237L5.90625 7.76745V10.0084L5.26135 9.36354C5.20862 9.31079 5.13709 9.28115 5.0625 9.28114H4.21875V6.9237ZM9 1.43932L10.9609 2.41864L3.93357 6.15223L1.75388 5.06239L9 1.43932ZM1.40625 5.51745L3.65625 6.64245V9.56239C3.65625 9.63698 3.68589 9.70852 3.73863 9.76126C3.79137 9.814 3.86291 9.84364 3.9375 9.84364H4.94607L5.98866 10.8862C6.02799 10.9256 6.0781 10.9523 6.13265 10.9632C6.1872 10.974 6.24374 10.9685 6.29513 10.9472C6.34651 10.9259 6.39043 10.8898 6.42134 10.8436C6.45224 10.7974 6.46874 10.743 6.46875 10.6874V8.0487L8.71875 9.1737V16.4198L1.40625 12.7636V5.51745ZM9.28125 16.4198V9.1737L16.5938 5.51745V12.7636L9.28125 16.4198Z" fill="black" fill-opacity="0.2"/>
<path d="M17.0007 4.81067L9.12572 0.873168C9.08668 0.853661 9.04364 0.843506 9 0.843506C8.95636 0.843506 8.91332 0.853661 8.87428 0.873168L0.999285 4.81067C0.952532 4.83403 0.913214 4.86996 0.885742 4.91442C0.858269 4.95888 0.84373 5.01012 0.843754 5.06239V12.9374C0.843468 12.9899 0.857884 13.0414 0.885371 13.0862C0.912858 13.1309 0.952318 13.167 0.999285 13.1905L8.87428 17.128C8.91332 17.1475 8.95636 17.1577 9 17.1577C9.04364 17.1577 9.08668 17.1475 9.12572 17.128L17.0007 13.1905C17.0477 13.167 17.0871 13.1309 17.1146 13.0862C17.1421 13.0414 17.1565 12.9899 17.1563 12.9374V5.06239C17.1563 5.01012 17.1417 4.95888 17.1143 4.91442C17.0868 4.86996 17.0475 4.83403 17.0007 4.81067ZM9 8.68545L6.80147 7.58604L13.8288 3.85301L16.2475 5.06239L9 8.68545ZM4.55147 6.46104L11.5788 2.72801L13.21 3.54364L6.18357 7.27723L4.55147 6.46104ZM4.21875 6.9237L5.90625 7.76745V10.0084L5.26135 9.36354C5.20862 9.31079 5.13709 9.28115 5.0625 9.28114H4.21875V6.9237ZM9 1.43932L10.9609 2.41864L3.93357 6.15223L1.75388 5.06239L9 1.43932ZM1.40625 5.51745L3.65625 6.64245V9.56239C3.65625 9.63698 3.68589 9.70852 3.73863 9.76126C3.79137 9.814 3.86291 9.84364 3.9375 9.84364H4.94607L5.98866 10.8862C6.02799 10.9256 6.0781 10.9523 6.13265 10.9632C6.1872 10.974 6.24374 10.9685 6.29513 10.9472C6.34651 10.9259 6.39043 10.8898 6.42134 10.8436C6.45224 10.7974 6.46874 10.743 6.46875 10.6874V8.0487L8.71875 9.1737V16.4198L1.40625 12.7636V5.51745ZM9.28125 16.4198V9.1737L16.5938 5.51745V12.7636L9.28125 16.4198Z" fill="black" fill-opacity="0.2"/>
<path d="M17.0007 4.81067L9.12572 0.873168C9.08668 0.853661 9.04364 0.843506 9 0.843506C8.95636 0.843506 8.91332 0.853661 8.87428 0.873168L0.999285 4.81067C0.952532 4.83403 0.913214 4.86996 0.885742 4.91442C0.858269 4.95888 0.84373 5.01012 0.843754 5.06239V12.9374C0.843468 12.9899 0.857884 13.0414 0.885371 13.0862C0.912858 13.1309 0.952318 13.167 0.999285 13.1905L8.87428 17.128C8.91332 17.1475 8.95636 17.1577 9 17.1577C9.04364 17.1577 9.08668 17.1475 9.12572 17.128L17.0007 13.1905C17.0477 13.167 17.0871 13.1309 17.1146 13.0862C17.1421 13.0414 17.1565 12.9899 17.1563 12.9374V5.06239C17.1563 5.01012 17.1417 4.95888 17.1143 4.91442C17.0868 4.86996 17.0475 4.83403 17.0007 4.81067ZM9 8.68545L6.80147 7.58604L13.8288 3.85301L16.2475 5.06239L9 8.68545ZM4.55147 6.46104L11.5788 2.72801L13.21 3.54364L6.18357 7.27723L4.55147 6.46104ZM4.21875 6.9237L5.90625 7.76745V10.0084L5.26135 9.36354C5.20862 9.31079 5.13709 9.28115 5.0625 9.28114H4.21875V6.9237ZM9 1.43932L10.9609 2.41864L3.93357 6.15223L1.75388 5.06239L9 1.43932ZM1.40625 5.51745L3.65625 6.64245V9.56239C3.65625 9.63698 3.68589 9.70852 3.73863 9.76126C3.79137 9.814 3.86291 9.84364 3.9375 9.84364H4.94607L5.98866 10.8862C6.02799 10.9256 6.0781 10.9523 6.13265 10.9632C6.1872 10.974 6.24374 10.9685 6.29513 10.9472C6.34651 10.9259 6.39043 10.8898 6.42134 10.8436C6.45224 10.7974 6.46874 10.743 6.46875 10.6874V8.0487L8.71875 9.1737V16.4198L1.40625 12.7636V5.51745ZM9.28125 16.4198V9.1737L16.5938 5.51745V12.7636L9.28125 16.4198Z" fill="black" fill-opacity="0.2"/>
<path d="M17.0007 4.81067L9.12572 0.873168C9.08668 0.853661 9.04364 0.843506 9 0.843506C8.95636 0.843506 8.91332 0.853661 8.87428 0.873168L0.999285 4.81067C0.952532 4.83403 0.913214 4.86996 0.885742 4.91442C0.858269 4.95888 0.84373 5.01012 0.843754 5.06239V12.9374C0.843468 12.9899 0.857884 13.0414 0.885371 13.0862C0.912858 13.1309 0.952318 13.167 0.999285 13.1905L8.87428 17.128C8.91332 17.1475 8.95636 17.1577 9 17.1577C9.04364 17.1577 9.08668 17.1475 9.12572 17.128L17.0007 13.1905C17.0477 13.167 17.0871 13.1309 17.1146 13.0862C17.1421 13.0414 17.1565 12.9899 17.1563 12.9374V5.06239C17.1563 5.01012 17.1417 4.95888 17.1143 4.91442C17.0868 4.86996 17.0475 4.83403 17.0007 4.81067ZM9 8.68545L6.80147 7.58604L13.8288 3.85301L16.2475 5.06239L9 8.68545ZM4.55147 6.46104L11.5788 2.72801L13.21 3.54364L6.18357 7.27723L4.55147 6.46104ZM4.21875 6.9237L5.90625 7.76745V10.0084L5.26135 9.36354C5.20862 9.31079 5.13709 9.28115 5.0625 9.28114H4.21875V6.9237ZM9 1.43932L10.9609 2.41864L3.93357 6.15223L1.75388 5.06239L9 1.43932ZM1.40625 5.51745L3.65625 6.64245V9.56239C3.65625 9.63698 3.68589 9.70852 3.73863 9.76126C3.79137 9.814 3.86291 9.84364 3.9375 9.84364H4.94607L5.98866 10.8862C6.02799 10.9256 6.0781 10.9523 6.13265 10.9632C6.1872 10.974 6.24374 10.9685 6.29513 10.9472C6.34651 10.9259 6.39043 10.8898 6.42134 10.8436C6.45224 10.7974 6.46874 10.743 6.46875 10.6874V8.0487L8.71875 9.1737V16.4198L1.40625 12.7636V5.51745ZM9.28125 16.4198V9.1737L16.5938 5.51745V12.7636L9.28125 16.4198Z" fill="black" fill-opacity="0.2"/>
<path d="M17.0007 4.81067L9.12572 0.873168C9.08668 0.853661 9.04364 0.843506 9 0.843506C8.95636 0.843506 8.91332 0.853661 8.87428 0.873168L0.999285 4.81067C0.952532 4.83403 0.913214 4.86996 0.885742 4.91442C0.858269 4.95888 0.84373 5.01012 0.843754 5.06239V12.9374C0.843468 12.9899 0.857884 13.0414 0.885371 13.0862C0.912858 13.1309 0.952318 13.167 0.999285 13.1905L8.87428 17.128C8.91332 17.1475 8.95636 17.1577 9 17.1577C9.04364 17.1577 9.08668 17.1475 9.12572 17.128L17.0007 13.1905C17.0477 13.167 17.0871 13.1309 17.1146 13.0862C17.1421 13.0414 17.1565 12.9899 17.1563 12.9374V5.06239C17.1563 5.01012 17.1417 4.95888 17.1143 4.91442C17.0868 4.86996 17.0475 4.83403 17.0007 4.81067ZM9 8.68545L6.80147 7.58604L13.8288 3.85301L16.2475 5.06239L9 8.68545ZM4.55147 6.46104L11.5788 2.72801L13.21 3.54364L6.18357 7.27723L4.55147 6.46104ZM4.21875 6.9237L5.90625 7.76745V10.0084L5.26135 9.36354C5.20862 9.31079 5.13709 9.28115 5.0625 9.28114H4.21875V6.9237ZM9 1.43932L10.9609 2.41864L3.93357 6.15223L1.75388 5.06239L9 1.43932ZM1.40625 5.51745L3.65625 6.64245V9.56239C3.65625 9.63698 3.68589 9.70852 3.73863 9.76126C3.79137 9.814 3.86291 9.84364 3.9375 9.84364H4.94607L5.98866 10.8862C6.02799 10.9256 6.0781 10.9523 6.13265 10.9632C6.1872 10.974 6.24374 10.9685 6.29513 10.9472C6.34651 10.9259 6.39043 10.8898 6.42134 10.8436C6.45224 10.7974 6.46874 10.743 6.46875 10.6874V8.0487L8.71875 9.1737V16.4198L1.40625 12.7636V5.51745ZM9.28125 16.4198V9.1737L16.5938 5.51745V12.7636L9.28125 16.4198Z" fill="black" fill-opacity="0.2"/>
<path d="M17.0007 4.81067L9.12572 0.873168C9.08668 0.853661 9.04364 0.843506 9 0.843506C8.95636 0.843506 8.91332 0.853661 8.87428 0.873168L0.999285 4.81067C0.952532 4.83403 0.913214 4.86996 0.885742 4.91442C0.858269 4.95888 0.84373 5.01012 0.843754 5.06239V12.9374C0.843468 12.9899 0.857884 13.0414 0.885371 13.0862C0.912858 13.1309 0.952318 13.167 0.999285 13.1905L8.87428 17.128C8.91332 17.1475 8.95636 17.1577 9 17.1577C9.04364 17.1577 9.08668 17.1475 9.12572 17.128L17.0007 13.1905C17.0477 13.167 17.0871 13.1309 17.1146 13.0862C17.1421 13.0414 17.1565 12.9899 17.1563 12.9374V5.06239C17.1563 5.01012 17.1417 4.95888 17.1143 4.91442C17.0868 4.86996 17.0475 4.83403 17.0007 4.81067ZM9 8.68545L6.80147 7.58604L13.8288 3.85301L16.2475 5.06239L9 8.68545ZM4.55147 6.46104L11.5788 2.72801L13.21 3.54364L6.18357 7.27723L4.55147 6.46104ZM4.21875 6.9237L5.90625 7.76745V10.0084L5.26135 9.36354C5.20862 9.31079 5.13709 9.28115 5.0625 9.28114H4.21875V6.9237ZM9 1.43932L10.9609 2.41864L3.93357 6.15223L1.75388 5.06239L9 1.43932ZM1.40625 5.51745L3.65625 6.64245V9.56239C3.65625 9.63698 3.68589 9.70852 3.73863 9.76126C3.79137 9.814 3.86291 9.84364 3.9375 9.84364H4.94607L5.98866 10.8862C6.02799 10.9256 6.0781 10.9523 6.13265 10.9632C6.1872 10.974 6.24374 10.9685 6.29513 10.9472C6.34651 10.9259 6.39043 10.8898 6.42134 10.8436C6.45224 10.7974 6.46874 10.743 6.46875 10.6874V8.0487L8.71875 9.1737V16.4198L1.40625 12.7636V5.51745ZM9.28125 16.4198V9.1737L16.5938 5.51745V12.7636L9.28125 16.4198Z" fill="black" fill-opacity="0.2"/>
<path d="M17.0007 4.81067L9.12572 0.873168C9.08668 0.853661 9.04364 0.843506 9 0.843506C8.95636 0.843506 8.91332 0.853661 8.87428 0.873168L0.999285 4.81067C0.952532 4.83403 0.913214 4.86996 0.885742 4.91442C0.858269 4.95888 0.84373 5.01012 0.843754 5.06239V12.9374C0.843468 12.9899 0.857884 13.0414 0.885371 13.0862C0.912858 13.1309 0.952318 13.167 0.999285 13.1905L8.87428 17.128C8.91332 17.1475 8.95636 17.1577 9 17.1577C9.04364 17.1577 9.08668 17.1475 9.12572 17.128L17.0007 13.1905C17.0477 13.167 17.0871 13.1309 17.1146 13.0862C17.1421 13.0414 17.1565 12.9899 17.1563 12.9374V5.06239C17.1563 5.01012 17.1417 4.95888 17.1143 4.91442C17.0868 4.86996 17.0475 4.83403 17.0007 4.81067ZM9 8.68545L6.80147 7.58604L13.8288 3.85301L16.2475 5.06239L9 8.68545ZM4.55147 6.46104L11.5788 2.72801L13.21 3.54364L6.18357 7.27723L4.55147 6.46104ZM4.21875 6.9237L5.90625 7.76745V10.0084L5.26135 9.36354C5.20862 9.31079 5.13709 9.28115 5.0625 9.28114H4.21875V6.9237ZM9 1.43932L10.9609 2.41864L3.93357 6.15223L1.75388 5.06239L9 1.43932ZM1.40625 5.51745L3.65625 6.64245V9.56239C3.65625 9.63698 3.68589 9.70852 3.73863 9.76126C3.79137 9.814 3.86291 9.84364 3.9375 9.84364H4.94607L5.98866 10.8862C6.02799 10.9256 6.0781 10.9523 6.13265 10.9632C6.1872 10.974 6.24374 10.9685 6.29513 10.9472C6.34651 10.9259 6.39043 10.8898 6.42134 10.8436C6.45224 10.7974 6.46874 10.743 6.46875 10.6874V8.0487L8.71875 9.1737V16.4198L1.40625 12.7636V5.51745ZM9.28125 16.4198V9.1737L16.5938 5.51745V12.7636L9.28125 16.4198Z" fill="black" fill-opacity="0.2"/>
<path d="M17.0007 4.81067L9.12572 0.873168C9.08668 0.853661 9.04364 0.843506 9 0.843506C8.95636 0.843506 8.91332 0.853661 8.87428 0.873168L0.999285 4.81067C0.952532 4.83403 0.913214 4.86996 0.885742 4.91442C0.858269 4.95888 0.84373 5.01012 0.843754 5.06239V12.9374C0.843468 12.9899 0.857884 13.0414 0.885371 13.0862C0.912858 13.1309 0.952318 13.167 0.999285 13.1905L8.87428 17.128C8.91332 17.1475 8.95636 17.1577 9 17.1577C9.04364 17.1577 9.08668 17.1475 9.12572 17.128L17.0007 13.1905C17.0477 13.167 17.0871 13.1309 17.1146 13.0862C17.1421 13.0414 17.1565 12.9899 17.1563 12.9374V5.06239C17.1563 5.01012 17.1417 4.95888 17.1143 4.91442C17.0868 4.86996 17.0475 4.83403 17.0007 4.81067ZM9 8.68545L6.80147 7.58604L13.8288 3.85301L16.2475 5.06239L9 8.68545ZM4.55147 6.46104L11.5788 2.72801L13.21 3.54364L6.18357 7.27723L4.55147 6.46104ZM4.21875 6.9237L5.90625 7.76745V10.0084L5.26135 9.36354C5.20862 9.31079 5.13709 9.28115 5.0625 9.28114H4.21875V6.9237ZM9 1.43932L10.9609 2.41864L3.93357 6.15223L1.75388 5.06239L9 1.43932ZM1.40625 5.51745L3.65625 6.64245V9.56239C3.65625 9.63698 3.68589 9.70852 3.73863 9.76126C3.79137 9.814 3.86291 9.84364 3.9375 9.84364H4.94607L5.98866 10.8862C6.02799 10.9256 6.0781 10.9523 6.13265 10.9632C6.1872 10.974 6.24374 10.9685 6.29513 10.9472C6.34651 10.9259 6.39043 10.8898 6.42134 10.8436C6.45224 10.7974 6.46874 10.743 6.46875 10.6874V8.0487L8.71875 9.1737V16.4198L1.40625 12.7636V5.51745ZM9.28125 16.4198V9.1737L16.5938 5.51745V12.7636L9.28125 16.4198Z" fill="black" fill-opacity="0.2"/>
<path d="M17.0007 4.81067L9.12572 0.873168C9.08668 0.853661 9.04364 0.843506 9 0.843506C8.95636 0.843506 8.91332 0.853661 8.87428 0.873168L0.999285 4.81067C0.952532 4.83403 0.913214 4.86996 0.885742 4.91442C0.858269 4.95888 0.84373 5.01012 0.843754 5.06239V12.9374C0.843468 12.9899 0.857884 13.0414 0.885371 13.0862C0.912858 13.1309 0.952318 13.167 0.999285 13.1905L8.87428 17.128C8.91332 17.1475 8.95636 17.1577 9 17.1577C9.04364 17.1577 9.08668 17.1475 9.12572 17.128L17.0007 13.1905C17.0477 13.167 17.0871 13.1309 17.1146 13.0862C17.1421 13.0414 17.1565 12.9899 17.1563 12.9374V5.06239C17.1563 5.01012 17.1417 4.95888 17.1143 4.91442C17.0868 4.86996 17.0475 4.83403 17.0007 4.81067ZM9 8.68545L6.80147 7.58604L13.8288 3.85301L16.2475 5.06239L9 8.68545ZM4.55147 6.46104L11.5788 2.72801L13.21 3.54364L6.18357 7.27723L4.55147 6.46104ZM4.21875 6.9237L5.90625 7.76745V10.0084L5.26135 9.36354C5.20862 9.31079 5.13709 9.28115 5.0625 9.28114H4.21875V6.9237ZM9 1.43932L10.9609 2.41864L3.93357 6.15223L1.75388 5.06239L9 1.43932ZM1.40625 5.51745L3.65625 6.64245V9.56239C3.65625 9.63698 3.68589 9.70852 3.73863 9.76126C3.79137 9.814 3.86291 9.84364 3.9375 9.84364H4.94607L5.98866 10.8862C6.02799 10.9256 6.0781 10.9523 6.13265 10.9632C6.1872 10.974 6.24374 10.9685 6.29513 10.9472C6.34651 10.9259 6.39043 10.8898 6.42134 10.8436C6.45224 10.7974 6.46874 10.743 6.46875 10.6874V8.0487L8.71875 9.1737V16.4198L1.40625 12.7636V5.51745ZM9.28125 16.4198V9.1737L16.5938 5.51745V12.7636L9.28125 16.4198Z" fill="black" fill-opacity="0.2"/>
<path d="M17.0007 4.81067L9.12572 0.873168C9.08668 0.853661 9.04364 0.843506 9 0.843506C8.95636 0.843506 8.91332 0.853661 8.87428 0.873168L0.999285 4.81067C0.952532 4.83403 0.913214 4.86996 0.885742 4.91442C0.858269 4.95888 0.84373 5.01012 0.843754 5.06239V12.9374C0.843468 12.9899 0.857884 13.0414 0.885371 13.0862C0.912858 13.1309 0.952318 13.167 0.999285 13.1905L8.87428 17.128C8.91332 17.1475 8.95636 17.1577 9 17.1577C9.04364 17.1577 9.08668 17.1475 9.12572 17.128L17.0007 13.1905C17.0477 13.167 17.0871 13.1309 17.1146 13.0862C17.1421 13.0414 17.1565 12.9899 17.1563 12.9374V5.06239C17.1563 5.01012 17.1417 4.95888 17.1143 4.91442C17.0868 4.86996 17.0475 4.83403 17.0007 4.81067ZM9 8.68545L6.80147 7.58604L13.8288 3.85301L16.2475 5.06239L9 8.68545ZM4.55147 6.46104L11.5788 2.72801L13.21 3.54364L6.18357 7.27723L4.55147 6.46104ZM4.21875 6.9237L5.90625 7.76745V10.0084L5.26135 9.36354C5.20862 9.31079 5.13709 9.28115 5.0625 9.28114H4.21875V6.9237ZM9 1.43932L10.9609 2.41864L3.93357 6.15223L1.75388 5.06239L9 1.43932ZM1.40625 5.51745L3.65625 6.64245V9.56239C3.65625 9.63698 3.68589 9.70852 3.73863 9.76126C3.79137 9.814 3.86291 9.84364 3.9375 9.84364H4.94607L5.98866 10.8862C6.02799 10.9256 6.0781 10.9523 6.13265 10.9632C6.1872 10.974 6.24374 10.9685 6.29513 10.9472C6.34651 10.9259 6.39043 10.8898 6.42134 10.8436C6.45224 10.7974 6.46874 10.743 6.46875 10.6874V8.0487L8.71875 9.1737V16.4198L1.40625 12.7636V5.51745ZM9.28125 16.4198V9.1737L16.5938 5.51745V12.7636L9.28125 16.4198Z" fill="black" fill-opacity="0.2"/>
<path d="M17.0007 4.81067L9.12572 0.873168C9.08668 0.853661 9.04364 0.843506 9 0.843506C8.95636 0.843506 8.91332 0.853661 8.87428 0.873168L0.999285 4.81067C0.952532 4.83403 0.913214 4.86996 0.885742 4.91442C0.858269 4.95888 0.84373 5.01012 0.843754 5.06239V12.9374C0.843468 12.9899 0.857884 13.0414 0.885371 13.0862C0.912858 13.1309 0.952318 13.167 0.999285 13.1905L8.87428 17.128C8.91332 17.1475 8.95636 17.1577 9 17.1577C9.04364 17.1577 9.08668 17.1475 9.12572 17.128L17.0007 13.1905C17.0477 13.167 17.0871 13.1309 17.1146 13.0862C17.1421 13.0414 17.1565 12.9899 17.1563 12.9374V5.06239C17.1563 5.01012 17.1417 4.95888 17.1143 4.91442C17.0868 4.86996 17.0475 4.83403 17.0007 4.81067ZM9 8.68545L6.80147 7.58604L13.8288 3.85301L16.2475 5.06239L9 8.68545ZM4.55147 6.46104L11.5788 2.72801L13.21 3.54364L6.18357 7.27723L4.55147 6.46104ZM4.21875 6.9237L5.90625 7.76745V10.0084L5.26135 9.36354C5.20862 9.31079 5.13709 9.28115 5.0625 9.28114H4.21875V6.9237ZM9 1.43932L10.9609 2.41864L3.93357 6.15223L1.75388 5.06239L9 1.43932ZM1.40625 5.51745L3.65625 6.64245V9.56239C3.65625 9.63698 3.68589 9.70852 3.73863 9.76126C3.79137 9.814 3.86291 9.84364 3.9375 9.84364H4.94607L5.98866 10.8862C6.02799 10.9256 6.0781 10.9523 6.13265 10.9632C6.1872 10.974 6.24374 10.9685 6.29513 10.9472C6.34651 10.9259 6.39043 10.8898 6.42134 10.8436C6.45224 10.7974 6.46874 10.743 6.46875 10.6874V8.0487L8.71875 9.1737V16.4198L1.40625 12.7636V5.51745ZM9.28125 16.4198V9.1737L16.5938 5.51745V12.7636L9.28125 16.4198Z" fill="black" fill-opacity="0.2"/>
</g>
</g>
</svg>
