<svg width="512" height="512" viewBox="0 0 512 512" fill="none" xmlns="http://www.w3.org/2000/svg">
<path d="M133.334 128C133.334 123.757 135.019 119.687 138.02 116.686C141.02 113.686 145.09 112 149.334 112H320C324.244 112 328.313 113.686 331.314 116.686C334.314 119.687 336 123.757 336 128C336 132.243 334.314 136.313 331.314 139.314C328.313 142.314 324.244 144 320 144H149.334C145.09 144 141.02 142.314 138.02 139.314C135.019 136.313 133.334 132.243 133.334 128ZM170.667 240H149.334C145.09 240 141.02 241.686 138.02 244.686C135.019 247.687 133.334 251.757 133.334 256C133.334 260.243 135.019 264.313 138.02 267.314C141.02 270.314 145.09 272 149.334 272H170.667C174.91 272 178.98 270.314 181.981 267.314C184.981 264.313 186.667 260.243 186.667 256C186.667 251.757 184.981 247.687 181.981 244.686C178.98 241.686 174.91 240 170.667 240ZM149.334 208H234.667C238.91 208 242.98 206.314 245.981 203.314C248.981 200.313 250.667 196.243 250.667 192C250.667 187.757 248.981 183.687 245.981 180.686C242.98 177.686 238.91 176 234.667 176H149.334C145.09 176 141.02 177.686 138.02 180.686C135.019 183.687 133.334 187.757 133.334 192C133.334 196.243 135.019 200.313 138.02 203.314C141.02 206.314 145.09 208 149.334 208ZM361.707 325.333H336V297.92C336 293.677 334.314 289.607 331.314 286.606C328.313 283.606 324.244 281.92 320 281.92C315.757 281.92 311.687 283.606 308.686 286.606C305.686 289.607 304 293.677 304 297.92V341.333C304 350.165 311.168 357.333 320 357.333H361.707C365.95 357.333 370.02 355.648 373.021 352.647C376.021 349.646 377.707 345.577 377.707 341.333C377.707 337.09 376.021 333.02 373.021 330.02C370.02 327.019 365.95 325.333 361.707 325.333ZM442.667 341.333C442.667 408.96 387.648 464 320 464C295.369 464.022 271.309 456.585 250.987 442.667H128C112.444 442.655 97.5287 436.471 86.529 425.471C75.5294 414.471 69.3448 399.556 69.3335 384V106.667C69.3448 91.1108 75.5294 76.1952 86.529 65.1956C97.5287 54.1959 112.444 48.0113 128 48H341.334C356.889 48.0113 371.805 54.1959 382.805 65.1956C393.804 76.1952 399.989 91.1108 400 106.667V248.555C413.375 260.033 424.112 274.266 431.476 290.28C438.84 306.293 442.658 323.708 442.667 341.333ZM128 410.667H218.902C204.831 390.285 197.307 366.1 197.334 341.333C197.334 273.707 252.352 218.667 320 218.667C336.498 218.652 352.827 221.984 368 228.459V106.667C368 91.968 356.032 80 341.334 80H128C113.302 80 101.333 91.968 101.333 106.667V384C101.333 398.699 113.302 410.667 128 410.667ZM410.667 341.333C410.667 291.349 370.006 250.667 320 250.667C269.995 250.667 229.334 291.349 229.334 341.333C229.334 391.317 269.995 432 320 432C370.006 432 410.667 391.317 410.667 341.333Z" fill="#040D12"/>
<path d="M133.334 128C133.334 123.757 135.019 119.687 138.02 116.686C141.02 113.686 145.09 112 149.334 112H320C324.244 112 328.313 113.686 331.314 116.686C334.314 119.687 336 123.757 336 128C336 132.243 334.314 136.313 331.314 139.314C328.313 142.314 324.244 144 320 144H149.334C145.09 144 141.02 142.314 138.02 139.314C135.019 136.313 133.334 132.243 133.334 128ZM170.667 240H149.334C145.09 240 141.02 241.686 138.02 244.686C135.019 247.687 133.334 251.757 133.334 256C133.334 260.243 135.019 264.313 138.02 267.314C141.02 270.314 145.09 272 149.334 272H170.667C174.91 272 178.98 270.314 181.981 267.314C184.981 264.313 186.667 260.243 186.667 256C186.667 251.757 184.981 247.687 181.981 244.686C178.98 241.686 174.91 240 170.667 240ZM149.334 208H234.667C238.91 208 242.98 206.314 245.981 203.314C248.981 200.313 250.667 196.243 250.667 192C250.667 187.757 248.981 183.687 245.981 180.686C242.98 177.686 238.91 176 234.667 176H149.334C145.09 176 141.02 177.686 138.02 180.686C135.019 183.687 133.334 187.757 133.334 192C133.334 196.243 135.019 200.313 138.02 203.314C141.02 206.314 145.09 208 149.334 208ZM361.707 325.333H336V297.92C336 293.677 334.314 289.607 331.314 286.606C328.313 283.606 324.244 281.92 320 281.92C315.757 281.92 311.687 283.606 308.686 286.606C305.686 289.607 304 293.677 304 297.92V341.333C304 350.165 311.168 357.333 320 357.333H361.707C365.95 357.333 370.02 355.648 373.021 352.647C376.021 349.646 377.707 345.577 377.707 341.333C377.707 337.09 376.021 333.02 373.021 330.02C370.02 327.019 365.95 325.333 361.707 325.333ZM442.667 341.333C442.667 408.96 387.648 464 320 464C295.369 464.022 271.309 456.585 250.987 442.667H128C112.444 442.655 97.5287 436.471 86.529 425.471C75.5294 414.471 69.3448 399.556 69.3335 384V106.667C69.3448 91.1108 75.5294 76.1952 86.529 65.1956C97.5287 54.1959 112.444 48.0113 128 48H341.334C356.889 48.0113 371.805 54.1959 382.805 65.1956C393.804 76.1952 399.989 91.1108 400 106.667V248.555C413.375 260.033 424.112 274.266 431.476 290.28C438.84 306.293 442.658 323.708 442.667 341.333ZM128 410.667H218.902C204.831 390.285 197.307 366.1 197.334 341.333C197.334 273.707 252.352 218.667 320 218.667C336.498 218.652 352.827 221.984 368 228.459V106.667C368 91.968 356.032 80 341.334 80H128C113.302 80 101.333 91.968 101.333 106.667V384C101.333 398.699 113.302 410.667 128 410.667ZM410.667 341.333C410.667 291.349 370.006 250.667 320 250.667C269.995 250.667 229.334 291.349 229.334 341.333C229.334 391.317 269.995 432 320 432C370.006 432 410.667 391.317 410.667 341.333Z" fill="black" fill-opacity="0.2"/>
<path d="M133.334 128C133.334 123.757 135.019 119.687 138.02 116.686C141.02 113.686 145.09 112 149.334 112H320C324.244 112 328.313 113.686 331.314 116.686C334.314 119.687 336 123.757 336 128C336 132.243 334.314 136.313 331.314 139.314C328.313 142.314 324.244 144 320 144H149.334C145.09 144 141.02 142.314 138.02 139.314C135.019 136.313 133.334 132.243 133.334 128ZM170.667 240H149.334C145.09 240 141.02 241.686 138.02 244.686C135.019 247.687 133.334 251.757 133.334 256C133.334 260.243 135.019 264.313 138.02 267.314C141.02 270.314 145.09 272 149.334 272H170.667C174.91 272 178.98 270.314 181.981 267.314C184.981 264.313 186.667 260.243 186.667 256C186.667 251.757 184.981 247.687 181.981 244.686C178.98 241.686 174.91 240 170.667 240ZM149.334 208H234.667C238.91 208 242.98 206.314 245.981 203.314C248.981 200.313 250.667 196.243 250.667 192C250.667 187.757 248.981 183.687 245.981 180.686C242.98 177.686 238.91 176 234.667 176H149.334C145.09 176 141.02 177.686 138.02 180.686C135.019 183.687 133.334 187.757 133.334 192C133.334 196.243 135.019 200.313 138.02 203.314C141.02 206.314 145.09 208 149.334 208ZM361.707 325.333H336V297.92C336 293.677 334.314 289.607 331.314 286.606C328.313 283.606 324.244 281.92 320 281.92C315.757 281.92 311.687 283.606 308.686 286.606C305.686 289.607 304 293.677 304 297.92V341.333C304 350.165 311.168 357.333 320 357.333H361.707C365.95 357.333 370.02 355.648 373.021 352.647C376.021 349.646 377.707 345.577 377.707 341.333C377.707 337.09 376.021 333.02 373.021 330.02C370.02 327.019 365.95 325.333 361.707 325.333ZM442.667 341.333C442.667 408.96 387.648 464 320 464C295.369 464.022 271.309 456.585 250.987 442.667H128C112.444 442.655 97.5287 436.471 86.529 425.471C75.5294 414.471 69.3448 399.556 69.3335 384V106.667C69.3448 91.1108 75.5294 76.1952 86.529 65.1956C97.5287 54.1959 112.444 48.0113 128 48H341.334C356.889 48.0113 371.805 54.1959 382.805 65.1956C393.804 76.1952 399.989 91.1108 400 106.667V248.555C413.375 260.033 424.112 274.266 431.476 290.28C438.84 306.293 442.658 323.708 442.667 341.333ZM128 410.667H218.902C204.831 390.285 197.307 366.1 197.334 341.333C197.334 273.707 252.352 218.667 320 218.667C336.498 218.652 352.827 221.984 368 228.459V106.667C368 91.968 356.032 80 341.334 80H128C113.302 80 101.333 91.968 101.333 106.667V384C101.333 398.699 113.302 410.667 128 410.667ZM410.667 341.333C410.667 291.349 370.006 250.667 320 250.667C269.995 250.667 229.334 291.349 229.334 341.333C229.334 391.317 269.995 432 320 432C370.006 432 410.667 391.317 410.667 341.333Z" fill="black" fill-opacity="0.2"/>
<path d="M133.334 128C133.334 123.757 135.019 119.687 138.02 116.686C141.02 113.686 145.09 112 149.334 112H320C324.244 112 328.313 113.686 331.314 116.686C334.314 119.687 336 123.757 336 128C336 132.243 334.314 136.313 331.314 139.314C328.313 142.314 324.244 144 320 144H149.334C145.09 144 141.02 142.314 138.02 139.314C135.019 136.313 133.334 132.243 133.334 128ZM170.667 240H149.334C145.09 240 141.02 241.686 138.02 244.686C135.019 247.687 133.334 251.757 133.334 256C133.334 260.243 135.019 264.313 138.02 267.314C141.02 270.314 145.09 272 149.334 272H170.667C174.91 272 178.98 270.314 181.981 267.314C184.981 264.313 186.667 260.243 186.667 256C186.667 251.757 184.981 247.687 181.981 244.686C178.98 241.686 174.91 240 170.667 240ZM149.334 208H234.667C238.91 208 242.98 206.314 245.981 203.314C248.981 200.313 250.667 196.243 250.667 192C250.667 187.757 248.981 183.687 245.981 180.686C242.98 177.686 238.91 176 234.667 176H149.334C145.09 176 141.02 177.686 138.02 180.686C135.019 183.687 133.334 187.757 133.334 192C133.334 196.243 135.019 200.313 138.02 203.314C141.02 206.314 145.09 208 149.334 208ZM361.707 325.333H336V297.92C336 293.677 334.314 289.607 331.314 286.606C328.313 283.606 324.244 281.92 320 281.92C315.757 281.92 311.687 283.606 308.686 286.606C305.686 289.607 304 293.677 304 297.92V341.333C304 350.165 311.168 357.333 320 357.333H361.707C365.95 357.333 370.02 355.648 373.021 352.647C376.021 349.646 377.707 345.577 377.707 341.333C377.707 337.09 376.021 333.02 373.021 330.02C370.02 327.019 365.95 325.333 361.707 325.333ZM442.667 341.333C442.667 408.96 387.648 464 320 464C295.369 464.022 271.309 456.585 250.987 442.667H128C112.444 442.655 97.5287 436.471 86.529 425.471C75.5294 414.471 69.3448 399.556 69.3335 384V106.667C69.3448 91.1108 75.5294 76.1952 86.529 65.1956C97.5287 54.1959 112.444 48.0113 128 48H341.334C356.889 48.0113 371.805 54.1959 382.805 65.1956C393.804 76.1952 399.989 91.1108 400 106.667V248.555C413.375 260.033 424.112 274.266 431.476 290.28C438.84 306.293 442.658 323.708 442.667 341.333ZM128 410.667H218.902C204.831 390.285 197.307 366.1 197.334 341.333C197.334 273.707 252.352 218.667 320 218.667C336.498 218.652 352.827 221.984 368 228.459V106.667C368 91.968 356.032 80 341.334 80H128C113.302 80 101.333 91.968 101.333 106.667V384C101.333 398.699 113.302 410.667 128 410.667ZM410.667 341.333C410.667 291.349 370.006 250.667 320 250.667C269.995 250.667 229.334 291.349 229.334 341.333C229.334 391.317 269.995 432 320 432C370.006 432 410.667 391.317 410.667 341.333Z" fill="black" fill-opacity="0.2"/>
<path d="M133.334 128C133.334 123.757 135.019 119.687 138.02 116.686C141.02 113.686 145.09 112 149.334 112H320C324.244 112 328.313 113.686 331.314 116.686C334.314 119.687 336 123.757 336 128C336 132.243 334.314 136.313 331.314 139.314C328.313 142.314 324.244 144 320 144H149.334C145.09 144 141.02 142.314 138.02 139.314C135.019 136.313 133.334 132.243 133.334 128ZM170.667 240H149.334C145.09 240 141.02 241.686 138.02 244.686C135.019 247.687 133.334 251.757 133.334 256C133.334 260.243 135.019 264.313 138.02 267.314C141.02 270.314 145.09 272 149.334 272H170.667C174.91 272 178.98 270.314 181.981 267.314C184.981 264.313 186.667 260.243 186.667 256C186.667 251.757 184.981 247.687 181.981 244.686C178.98 241.686 174.91 240 170.667 240ZM149.334 208H234.667C238.91 208 242.98 206.314 245.981 203.314C248.981 200.313 250.667 196.243 250.667 192C250.667 187.757 248.981 183.687 245.981 180.686C242.98 177.686 238.91 176 234.667 176H149.334C145.09 176 141.02 177.686 138.02 180.686C135.019 183.687 133.334 187.757 133.334 192C133.334 196.243 135.019 200.313 138.02 203.314C141.02 206.314 145.09 208 149.334 208ZM361.707 325.333H336V297.92C336 293.677 334.314 289.607 331.314 286.606C328.313 283.606 324.244 281.92 320 281.92C315.757 281.92 311.687 283.606 308.686 286.606C305.686 289.607 304 293.677 304 297.92V341.333C304 350.165 311.168 357.333 320 357.333H361.707C365.95 357.333 370.02 355.648 373.021 352.647C376.021 349.646 377.707 345.577 377.707 341.333C377.707 337.09 376.021 333.02 373.021 330.02C370.02 327.019 365.95 325.333 361.707 325.333ZM442.667 341.333C442.667 408.96 387.648 464 320 464C295.369 464.022 271.309 456.585 250.987 442.667H128C112.444 442.655 97.5287 436.471 86.529 425.471C75.5294 414.471 69.3448 399.556 69.3335 384V106.667C69.3448 91.1108 75.5294 76.1952 86.529 65.1956C97.5287 54.1959 112.444 48.0113 128 48H341.334C356.889 48.0113 371.805 54.1959 382.805 65.1956C393.804 76.1952 399.989 91.1108 400 106.667V248.555C413.375 260.033 424.112 274.266 431.476 290.28C438.84 306.293 442.658 323.708 442.667 341.333ZM128 410.667H218.902C204.831 390.285 197.307 366.1 197.334 341.333C197.334 273.707 252.352 218.667 320 218.667C336.498 218.652 352.827 221.984 368 228.459V106.667C368 91.968 356.032 80 341.334 80H128C113.302 80 101.333 91.968 101.333 106.667V384C101.333 398.699 113.302 410.667 128 410.667ZM410.667 341.333C410.667 291.349 370.006 250.667 320 250.667C269.995 250.667 229.334 291.349 229.334 341.333C229.334 391.317 269.995 432 320 432C370.006 432 410.667 391.317 410.667 341.333Z" fill="black" fill-opacity="0.2"/>
<path d="M133.334 128C133.334 123.757 135.019 119.687 138.02 116.686C141.02 113.686 145.09 112 149.334 112H320C324.244 112 328.313 113.686 331.314 116.686C334.314 119.687 336 123.757 336 128C336 132.243 334.314 136.313 331.314 139.314C328.313 142.314 324.244 144 320 144H149.334C145.09 144 141.02 142.314 138.02 139.314C135.019 136.313 133.334 132.243 133.334 128ZM170.667 240H149.334C145.09 240 141.02 241.686 138.02 244.686C135.019 247.687 133.334 251.757 133.334 256C133.334 260.243 135.019 264.313 138.02 267.314C141.02 270.314 145.09 272 149.334 272H170.667C174.91 272 178.98 270.314 181.981 267.314C184.981 264.313 186.667 260.243 186.667 256C186.667 251.757 184.981 247.687 181.981 244.686C178.98 241.686 174.91 240 170.667 240ZM149.334 208H234.667C238.91 208 242.98 206.314 245.981 203.314C248.981 200.313 250.667 196.243 250.667 192C250.667 187.757 248.981 183.687 245.981 180.686C242.98 177.686 238.91 176 234.667 176H149.334C145.09 176 141.02 177.686 138.02 180.686C135.019 183.687 133.334 187.757 133.334 192C133.334 196.243 135.019 200.313 138.02 203.314C141.02 206.314 145.09 208 149.334 208ZM361.707 325.333H336V297.92C336 293.677 334.314 289.607 331.314 286.606C328.313 283.606 324.244 281.92 320 281.92C315.757 281.92 311.687 283.606 308.686 286.606C305.686 289.607 304 293.677 304 297.92V341.333C304 350.165 311.168 357.333 320 357.333H361.707C365.95 357.333 370.02 355.648 373.021 352.647C376.021 349.646 377.707 345.577 377.707 341.333C377.707 337.09 376.021 333.02 373.021 330.02C370.02 327.019 365.95 325.333 361.707 325.333ZM442.667 341.333C442.667 408.96 387.648 464 320 464C295.369 464.022 271.309 456.585 250.987 442.667H128C112.444 442.655 97.5287 436.471 86.529 425.471C75.5294 414.471 69.3448 399.556 69.3335 384V106.667C69.3448 91.1108 75.5294 76.1952 86.529 65.1956C97.5287 54.1959 112.444 48.0113 128 48H341.334C356.889 48.0113 371.805 54.1959 382.805 65.1956C393.804 76.1952 399.989 91.1108 400 106.667V248.555C413.375 260.033 424.112 274.266 431.476 290.28C438.84 306.293 442.658 323.708 442.667 341.333ZM128 410.667H218.902C204.831 390.285 197.307 366.1 197.334 341.333C197.334 273.707 252.352 218.667 320 218.667C336.498 218.652 352.827 221.984 368 228.459V106.667C368 91.968 356.032 80 341.334 80H128C113.302 80 101.333 91.968 101.333 106.667V384C101.333 398.699 113.302 410.667 128 410.667ZM410.667 341.333C410.667 291.349 370.006 250.667 320 250.667C269.995 250.667 229.334 291.349 229.334 341.333C229.334 391.317 269.995 432 320 432C370.006 432 410.667 391.317 410.667 341.333Z" fill="black" fill-opacity="0.2"/>
<path d="M133.334 128C133.334 123.757 135.019 119.687 138.02 116.686C141.02 113.686 145.09 112 149.334 112H320C324.244 112 328.313 113.686 331.314 116.686C334.314 119.687 336 123.757 336 128C336 132.243 334.314 136.313 331.314 139.314C328.313 142.314 324.244 144 320 144H149.334C145.09 144 141.02 142.314 138.02 139.314C135.019 136.313 133.334 132.243 133.334 128ZM170.667 240H149.334C145.09 240 141.02 241.686 138.02 244.686C135.019 247.687 133.334 251.757 133.334 256C133.334 260.243 135.019 264.313 138.02 267.314C141.02 270.314 145.09 272 149.334 272H170.667C174.91 272 178.98 270.314 181.981 267.314C184.981 264.313 186.667 260.243 186.667 256C186.667 251.757 184.981 247.687 181.981 244.686C178.98 241.686 174.91 240 170.667 240ZM149.334 208H234.667C238.91 208 242.98 206.314 245.981 203.314C248.981 200.313 250.667 196.243 250.667 192C250.667 187.757 248.981 183.687 245.981 180.686C242.98 177.686 238.91 176 234.667 176H149.334C145.09 176 141.02 177.686 138.02 180.686C135.019 183.687 133.334 187.757 133.334 192C133.334 196.243 135.019 200.313 138.02 203.314C141.02 206.314 145.09 208 149.334 208ZM361.707 325.333H336V297.92C336 293.677 334.314 289.607 331.314 286.606C328.313 283.606 324.244 281.92 320 281.92C315.757 281.92 311.687 283.606 308.686 286.606C305.686 289.607 304 293.677 304 297.92V341.333C304 350.165 311.168 357.333 320 357.333H361.707C365.95 357.333 370.02 355.648 373.021 352.647C376.021 349.646 377.707 345.577 377.707 341.333C377.707 337.09 376.021 333.02 373.021 330.02C370.02 327.019 365.95 325.333 361.707 325.333ZM442.667 341.333C442.667 408.96 387.648 464 320 464C295.369 464.022 271.309 456.585 250.987 442.667H128C112.444 442.655 97.5287 436.471 86.529 425.471C75.5294 414.471 69.3448 399.556 69.3335 384V106.667C69.3448 91.1108 75.5294 76.1952 86.529 65.1956C97.5287 54.1959 112.444 48.0113 128 48H341.334C356.889 48.0113 371.805 54.1959 382.805 65.1956C393.804 76.1952 399.989 91.1108 400 106.667V248.555C413.375 260.033 424.112 274.266 431.476 290.28C438.84 306.293 442.658 323.708 442.667 341.333ZM128 410.667H218.902C204.831 390.285 197.307 366.1 197.334 341.333C197.334 273.707 252.352 218.667 320 218.667C336.498 218.652 352.827 221.984 368 228.459V106.667C368 91.968 356.032 80 341.334 80H128C113.302 80 101.333 91.968 101.333 106.667V384C101.333 398.699 113.302 410.667 128 410.667ZM410.667 341.333C410.667 291.349 370.006 250.667 320 250.667C269.995 250.667 229.334 291.349 229.334 341.333C229.334 391.317 269.995 432 320 432C370.006 432 410.667 391.317 410.667 341.333Z" fill="black" fill-opacity="0.2"/>
<path d="M133.334 128C133.334 123.757 135.019 119.687 138.02 116.686C141.02 113.686 145.09 112 149.334 112H320C324.244 112 328.313 113.686 331.314 116.686C334.314 119.687 336 123.757 336 128C336 132.243 334.314 136.313 331.314 139.314C328.313 142.314 324.244 144 320 144H149.334C145.09 144 141.02 142.314 138.02 139.314C135.019 136.313 133.334 132.243 133.334 128ZM170.667 240H149.334C145.09 240 141.02 241.686 138.02 244.686C135.019 247.687 133.334 251.757 133.334 256C133.334 260.243 135.019 264.313 138.02 267.314C141.02 270.314 145.09 272 149.334 272H170.667C174.91 272 178.98 270.314 181.981 267.314C184.981 264.313 186.667 260.243 186.667 256C186.667 251.757 184.981 247.687 181.981 244.686C178.98 241.686 174.91 240 170.667 240ZM149.334 208H234.667C238.91 208 242.98 206.314 245.981 203.314C248.981 200.313 250.667 196.243 250.667 192C250.667 187.757 248.981 183.687 245.981 180.686C242.98 177.686 238.91 176 234.667 176H149.334C145.09 176 141.02 177.686 138.02 180.686C135.019 183.687 133.334 187.757 133.334 192C133.334 196.243 135.019 200.313 138.02 203.314C141.02 206.314 145.09 208 149.334 208ZM361.707 325.333H336V297.92C336 293.677 334.314 289.607 331.314 286.606C328.313 283.606 324.244 281.92 320 281.92C315.757 281.92 311.687 283.606 308.686 286.606C305.686 289.607 304 293.677 304 297.92V341.333C304 350.165 311.168 357.333 320 357.333H361.707C365.95 357.333 370.02 355.648 373.021 352.647C376.021 349.646 377.707 345.577 377.707 341.333C377.707 337.09 376.021 333.02 373.021 330.02C370.02 327.019 365.95 325.333 361.707 325.333ZM442.667 341.333C442.667 408.96 387.648 464 320 464C295.369 464.022 271.309 456.585 250.987 442.667H128C112.444 442.655 97.5287 436.471 86.529 425.471C75.5294 414.471 69.3448 399.556 69.3335 384V106.667C69.3448 91.1108 75.5294 76.1952 86.529 65.1956C97.5287 54.1959 112.444 48.0113 128 48H341.334C356.889 48.0113 371.805 54.1959 382.805 65.1956C393.804 76.1952 399.989 91.1108 400 106.667V248.555C413.375 260.033 424.112 274.266 431.476 290.28C438.84 306.293 442.658 323.708 442.667 341.333ZM128 410.667H218.902C204.831 390.285 197.307 366.1 197.334 341.333C197.334 273.707 252.352 218.667 320 218.667C336.498 218.652 352.827 221.984 368 228.459V106.667C368 91.968 356.032 80 341.334 80H128C113.302 80 101.333 91.968 101.333 106.667V384C101.333 398.699 113.302 410.667 128 410.667ZM410.667 341.333C410.667 291.349 370.006 250.667 320 250.667C269.995 250.667 229.334 291.349 229.334 341.333C229.334 391.317 269.995 432 320 432C370.006 432 410.667 391.317 410.667 341.333Z" fill="black" fill-opacity="0.2"/>
<path d="M133.334 128C133.334 123.757 135.019 119.687 138.02 116.686C141.02 113.686 145.09 112 149.334 112H320C324.244 112 328.313 113.686 331.314 116.686C334.314 119.687 336 123.757 336 128C336 132.243 334.314 136.313 331.314 139.314C328.313 142.314 324.244 144 320 144H149.334C145.09 144 141.02 142.314 138.02 139.314C135.019 136.313 133.334 132.243 133.334 128ZM170.667 240H149.334C145.09 240 141.02 241.686 138.02 244.686C135.019 247.687 133.334 251.757 133.334 256C133.334 260.243 135.019 264.313 138.02 267.314C141.02 270.314 145.09 272 149.334 272H170.667C174.91 272 178.98 270.314 181.981 267.314C184.981 264.313 186.667 260.243 186.667 256C186.667 251.757 184.981 247.687 181.981 244.686C178.98 241.686 174.91 240 170.667 240ZM149.334 208H234.667C238.91 208 242.98 206.314 245.981 203.314C248.981 200.313 250.667 196.243 250.667 192C250.667 187.757 248.981 183.687 245.981 180.686C242.98 177.686 238.91 176 234.667 176H149.334C145.09 176 141.02 177.686 138.02 180.686C135.019 183.687 133.334 187.757 133.334 192C133.334 196.243 135.019 200.313 138.02 203.314C141.02 206.314 145.09 208 149.334 208ZM361.707 325.333H336V297.92C336 293.677 334.314 289.607 331.314 286.606C328.313 283.606 324.244 281.92 320 281.92C315.757 281.92 311.687 283.606 308.686 286.606C305.686 289.607 304 293.677 304 297.92V341.333C304 350.165 311.168 357.333 320 357.333H361.707C365.95 357.333 370.02 355.648 373.021 352.647C376.021 349.646 377.707 345.577 377.707 341.333C377.707 337.09 376.021 333.02 373.021 330.02C370.02 327.019 365.95 325.333 361.707 325.333ZM442.667 341.333C442.667 408.96 387.648 464 320 464C295.369 464.022 271.309 456.585 250.987 442.667H128C112.444 442.655 97.5287 436.471 86.529 425.471C75.5294 414.471 69.3448 399.556 69.3335 384V106.667C69.3448 91.1108 75.5294 76.1952 86.529 65.1956C97.5287 54.1959 112.444 48.0113 128 48H341.334C356.889 48.0113 371.805 54.1959 382.805 65.1956C393.804 76.1952 399.989 91.1108 400 106.667V248.555C413.375 260.033 424.112 274.266 431.476 290.28C438.84 306.293 442.658 323.708 442.667 341.333ZM128 410.667H218.902C204.831 390.285 197.307 366.1 197.334 341.333C197.334 273.707 252.352 218.667 320 218.667C336.498 218.652 352.827 221.984 368 228.459V106.667C368 91.968 356.032 80 341.334 80H128C113.302 80 101.333 91.968 101.333 106.667V384C101.333 398.699 113.302 410.667 128 410.667ZM410.667 341.333C410.667 291.349 370.006 250.667 320 250.667C269.995 250.667 229.334 291.349 229.334 341.333C229.334 391.317 269.995 432 320 432C370.006 432 410.667 391.317 410.667 341.333Z" fill="black" fill-opacity="0.2"/>
<path d="M133.334 128C133.334 123.757 135.019 119.687 138.02 116.686C141.02 113.686 145.09 112 149.334 112H320C324.244 112 328.313 113.686 331.314 116.686C334.314 119.687 336 123.757 336 128C336 132.243 334.314 136.313 331.314 139.314C328.313 142.314 324.244 144 320 144H149.334C145.09 144 141.02 142.314 138.02 139.314C135.019 136.313 133.334 132.243 133.334 128ZM170.667 240H149.334C145.09 240 141.02 241.686 138.02 244.686C135.019 247.687 133.334 251.757 133.334 256C133.334 260.243 135.019 264.313 138.02 267.314C141.02 270.314 145.09 272 149.334 272H170.667C174.91 272 178.98 270.314 181.981 267.314C184.981 264.313 186.667 260.243 186.667 256C186.667 251.757 184.981 247.687 181.981 244.686C178.98 241.686 174.91 240 170.667 240ZM149.334 208H234.667C238.91 208 242.98 206.314 245.981 203.314C248.981 200.313 250.667 196.243 250.667 192C250.667 187.757 248.981 183.687 245.981 180.686C242.98 177.686 238.91 176 234.667 176H149.334C145.09 176 141.02 177.686 138.02 180.686C135.019 183.687 133.334 187.757 133.334 192C133.334 196.243 135.019 200.313 138.02 203.314C141.02 206.314 145.09 208 149.334 208ZM361.707 325.333H336V297.92C336 293.677 334.314 289.607 331.314 286.606C328.313 283.606 324.244 281.92 320 281.92C315.757 281.92 311.687 283.606 308.686 286.606C305.686 289.607 304 293.677 304 297.92V341.333C304 350.165 311.168 357.333 320 357.333H361.707C365.95 357.333 370.02 355.648 373.021 352.647C376.021 349.646 377.707 345.577 377.707 341.333C377.707 337.09 376.021 333.02 373.021 330.02C370.02 327.019 365.95 325.333 361.707 325.333ZM442.667 341.333C442.667 408.96 387.648 464 320 464C295.369 464.022 271.309 456.585 250.987 442.667H128C112.444 442.655 97.5287 436.471 86.529 425.471C75.5294 414.471 69.3448 399.556 69.3335 384V106.667C69.3448 91.1108 75.5294 76.1952 86.529 65.1956C97.5287 54.1959 112.444 48.0113 128 48H341.334C356.889 48.0113 371.805 54.1959 382.805 65.1956C393.804 76.1952 399.989 91.1108 400 106.667V248.555C413.375 260.033 424.112 274.266 431.476 290.28C438.84 306.293 442.658 323.708 442.667 341.333ZM128 410.667H218.902C204.831 390.285 197.307 366.1 197.334 341.333C197.334 273.707 252.352 218.667 320 218.667C336.498 218.652 352.827 221.984 368 228.459V106.667C368 91.968 356.032 80 341.334 80H128C113.302 80 101.333 91.968 101.333 106.667V384C101.333 398.699 113.302 410.667 128 410.667ZM410.667 341.333C410.667 291.349 370.006 250.667 320 250.667C269.995 250.667 229.334 291.349 229.334 341.333C229.334 391.317 269.995 432 320 432C370.006 432 410.667 391.317 410.667 341.333Z" fill="black" fill-opacity="0.2"/>
<path d="M133.334 128C133.334 123.757 135.019 119.687 138.02 116.686C141.02 113.686 145.09 112 149.334 112H320C324.244 112 328.313 113.686 331.314 116.686C334.314 119.687 336 123.757 336 128C336 132.243 334.314 136.313 331.314 139.314C328.313 142.314 324.244 144 320 144H149.334C145.09 144 141.02 142.314 138.02 139.314C135.019 136.313 133.334 132.243 133.334 128ZM170.667 240H149.334C145.09 240 141.02 241.686 138.02 244.686C135.019 247.687 133.334 251.757 133.334 256C133.334 260.243 135.019 264.313 138.02 267.314C141.02 270.314 145.09 272 149.334 272H170.667C174.91 272 178.98 270.314 181.981 267.314C184.981 264.313 186.667 260.243 186.667 256C186.667 251.757 184.981 247.687 181.981 244.686C178.98 241.686 174.91 240 170.667 240ZM149.334 208H234.667C238.91 208 242.98 206.314 245.981 203.314C248.981 200.313 250.667 196.243 250.667 192C250.667 187.757 248.981 183.687 245.981 180.686C242.98 177.686 238.91 176 234.667 176H149.334C145.09 176 141.02 177.686 138.02 180.686C135.019 183.687 133.334 187.757 133.334 192C133.334 196.243 135.019 200.313 138.02 203.314C141.02 206.314 145.09 208 149.334 208ZM361.707 325.333H336V297.92C336 293.677 334.314 289.607 331.314 286.606C328.313 283.606 324.244 281.92 320 281.92C315.757 281.92 311.687 283.606 308.686 286.606C305.686 289.607 304 293.677 304 297.92V341.333C304 350.165 311.168 357.333 320 357.333H361.707C365.95 357.333 370.02 355.648 373.021 352.647C376.021 349.646 377.707 345.577 377.707 341.333C377.707 337.09 376.021 333.02 373.021 330.02C370.02 327.019 365.95 325.333 361.707 325.333ZM442.667 341.333C442.667 408.96 387.648 464 320 464C295.369 464.022 271.309 456.585 250.987 442.667H128C112.444 442.655 97.5287 436.471 86.529 425.471C75.5294 414.471 69.3448 399.556 69.3335 384V106.667C69.3448 91.1108 75.5294 76.1952 86.529 65.1956C97.5287 54.1959 112.444 48.0113 128 48H341.334C356.889 48.0113 371.805 54.1959 382.805 65.1956C393.804 76.1952 399.989 91.1108 400 106.667V248.555C413.375 260.033 424.112 274.266 431.476 290.28C438.84 306.293 442.658 323.708 442.667 341.333ZM128 410.667H218.902C204.831 390.285 197.307 366.1 197.334 341.333C197.334 273.707 252.352 218.667 320 218.667C336.498 218.652 352.827 221.984 368 228.459V106.667C368 91.968 356.032 80 341.334 80H128C113.302 80 101.333 91.968 101.333 106.667V384C101.333 398.699 113.302 410.667 128 410.667ZM410.667 341.333C410.667 291.349 370.006 250.667 320 250.667C269.995 250.667 229.334 291.349 229.334 341.333C229.334 391.317 269.995 432 320 432C370.006 432 410.667 391.317 410.667 341.333Z" fill="black" fill-opacity="0.2"/>
<path d="M133.334 128C133.334 123.757 135.019 119.687 138.02 116.686C141.02 113.686 145.09 112 149.334 112H320C324.244 112 328.313 113.686 331.314 116.686C334.314 119.687 336 123.757 336 128C336 132.243 334.314 136.313 331.314 139.314C328.313 142.314 324.244 144 320 144H149.334C145.09 144 141.02 142.314 138.02 139.314C135.019 136.313 133.334 132.243 133.334 128ZM170.667 240H149.334C145.09 240 141.02 241.686 138.02 244.686C135.019 247.687 133.334 251.757 133.334 256C133.334 260.243 135.019 264.313 138.02 267.314C141.02 270.314 145.09 272 149.334 272H170.667C174.91 272 178.98 270.314 181.981 267.314C184.981 264.313 186.667 260.243 186.667 256C186.667 251.757 184.981 247.687 181.981 244.686C178.98 241.686 174.91 240 170.667 240ZM149.334 208H234.667C238.91 208 242.98 206.314 245.981 203.314C248.981 200.313 250.667 196.243 250.667 192C250.667 187.757 248.981 183.687 245.981 180.686C242.98 177.686 238.91 176 234.667 176H149.334C145.09 176 141.02 177.686 138.02 180.686C135.019 183.687 133.334 187.757 133.334 192C133.334 196.243 135.019 200.313 138.02 203.314C141.02 206.314 145.09 208 149.334 208ZM361.707 325.333H336V297.92C336 293.677 334.314 289.607 331.314 286.606C328.313 283.606 324.244 281.92 320 281.92C315.757 281.92 311.687 283.606 308.686 286.606C305.686 289.607 304 293.677 304 297.92V341.333C304 350.165 311.168 357.333 320 357.333H361.707C365.95 357.333 370.02 355.648 373.021 352.647C376.021 349.646 377.707 345.577 377.707 341.333C377.707 337.09 376.021 333.02 373.021 330.02C370.02 327.019 365.95 325.333 361.707 325.333ZM442.667 341.333C442.667 408.96 387.648 464 320 464C295.369 464.022 271.309 456.585 250.987 442.667H128C112.444 442.655 97.5287 436.471 86.529 425.471C75.5294 414.471 69.3448 399.556 69.3335 384V106.667C69.3448 91.1108 75.5294 76.1952 86.529 65.1956C97.5287 54.1959 112.444 48.0113 128 48H341.334C356.889 48.0113 371.805 54.1959 382.805 65.1956C393.804 76.1952 399.989 91.1108 400 106.667V248.555C413.375 260.033 424.112 274.266 431.476 290.28C438.84 306.293 442.658 323.708 442.667 341.333ZM128 410.667H218.902C204.831 390.285 197.307 366.1 197.334 341.333C197.334 273.707 252.352 218.667 320 218.667C336.498 218.652 352.827 221.984 368 228.459V106.667C368 91.968 356.032 80 341.334 80H128C113.302 80 101.333 91.968 101.333 106.667V384C101.333 398.699 113.302 410.667 128 410.667ZM410.667 341.333C410.667 291.349 370.006 250.667 320 250.667C269.995 250.667 229.334 291.349 229.334 341.333C229.334 391.317 269.995 432 320 432C370.006 432 410.667 391.317 410.667 341.333Z" fill="black" fill-opacity="0.2"/>
</svg>
