<svg xmlns="http://www.w3.org/2000/svg" version="1.1" xmlns:xlink="http://www.w3.org/1999/xlink" width="512" height="512" x="0" y="0" viewBox="0 0 97 96" style="enable-background:new 0 0 512 512" xml:space="preserve" class=""><g><g fill="#000"><path d="M49.076 34.14a13.104 13.104 0 0 0-5.471-2.664v-2.819a2.6 2.6 0 0 0-5.2 0v2.794c-2.766.608-5.318 2.262-6.603 4.987-1.325 2.806-1.248 5.703.415 8.273 1.543 2.382 4.263 4.193 7.618 5.585 3.062 1.27 4.702 2.621 5.464 3.792.671 1.032.8 2.128.284 3.517-.464 1.247-1.846 2.21-4.199 2.294-2.326.082-4.84-.785-6.413-2.289a2.6 2.6 0 1 0-3.593 3.759c1.922 1.838 4.455 3.004 7.027 3.484v2.49a2.6 2.6 0 1 0 5.2 0v-2.485c2.877-.577 5.655-2.223 6.852-5.44 1.03-2.768.862-5.612-.8-8.166-1.57-2.414-4.297-4.294-7.829-5.759-2.935-1.217-4.532-2.506-5.246-3.608-.592-.915-.71-1.887-.078-3.228.513-1.085 1.754-1.995 3.578-2.223 1.791-.224 3.909.268 5.705 1.735a2.6 2.6 0 0 0 3.289-4.028z" fill="#000000" opacity="1" data-original="#000000" class=""></path><path fill-rule="evenodd" d="M11.75 73.194c0 5.854 4.746 10.6 10.6 10.6h36.928c5.855 0 10.6-4.746 10.6-10.6V22.806c0-5.854-4.745-10.6-10.6-10.6H22.35c-5.854 0-10.6 4.746-10.6 10.6zm10.6 5.4a5.4 5.4 0 0 1-5.4-5.4V22.806a5.4 5.4 0 0 1 5.4-5.4h36.928a5.4 5.4 0 0 1 5.4 5.4v50.388a5.4 5.4 0 0 1-5.4 5.4z" clip-rule="evenodd" fill="#000000" opacity="1" data-original="#000000" class=""></path><path d="M87.73 37.607a6.6 6.6 0 0 0-6.6-6.6h-3.678a2.6 2.6 0 0 0 0 5.2h3.678a1.4 1.4 0 0 1 1.4 1.4V69.65a1.4 1.4 0 0 1-1.4 1.4h-3.678a2.6 2.6 0 0 0 0 5.2h3.678a6.6 6.6 0 0 0 6.6-6.6z" fill="#000000" opacity="1" data-original="#000000" class=""></path></g></g></svg>