<svg width="16" height="16" viewBox="0 0 16 16" fill="none" xmlns="http://www.w3.org/2000/svg">
<g id="Group">
<g id="Vector">
<path d="M0.732344 13.8839C0.626594 14.2765 0.734594 14.6826 1.02259 14.9706C1.1616 15.1112 1.33551 15.2123 1.52649 15.2635C1.71747 15.3147 1.91864 15.3142 2.10934 15.262L3.97234 14.763C5.18571 15.4829 6.57103 15.8615 7.98184 15.8588C10.0243 15.8588 12.056 15.0752 13.568 13.5638C14.3507 12.7807 14.9596 11.8415 15.355 10.8074C15.7504 9.77325 15.9235 8.66741 15.863 7.56192C15.7398 5.33048 14.6604 3.24248 12.9003 1.83342C10.0316 -0.463269 5.88203 -0.441331 3.03409 1.88517C-0.00621891 4.37086 -0.758844 8.68748 1.23128 12.022L0.732344 13.8839ZM3.74566 2.75648C6.18466 0.762981 9.73909 0.743856 12.1967 2.71148C13.7295 3.93886 14.6323 5.68317 14.7392 7.62436C14.7908 8.57175 14.6423 9.51939 14.3034 10.4056C13.9645 11.2918 13.4427 12.0967 12.7721 12.7679C10.5468 14.9925 7.01097 15.3779 4.36441 13.6836C4.29855 13.6414 4.22461 13.6134 4.14732 13.6014C4.07003 13.5894 3.99109 13.5936 3.91553 13.6139L1.81741 14.1758L2.37991 12.0788C2.40013 12.0032 2.40437 11.9243 2.39236 11.847C2.38035 11.7697 2.35235 11.6958 2.31016 11.6299C0.464594 8.74879 1.08166 4.93448 3.74566 2.75648Z" fill="#040D12"/>
<path d="M0.732344 13.8839C0.626594 14.2765 0.734594 14.6826 1.02259 14.9706C1.1616 15.1112 1.33551 15.2123 1.52649 15.2635C1.71747 15.3147 1.91864 15.3142 2.10934 15.262L3.97234 14.763C5.18571 15.4829 6.57103 15.8615 7.98184 15.8588C10.0243 15.8588 12.056 15.0752 13.568 13.5638C14.3507 12.7807 14.9596 11.8415 15.355 10.8074C15.7504 9.77325 15.9235 8.66741 15.863 7.56192C15.7398 5.33048 14.6604 3.24248 12.9003 1.83342C10.0316 -0.463269 5.88203 -0.441331 3.03409 1.88517C-0.00621891 4.37086 -0.758844 8.68748 1.23128 12.022L0.732344 13.8839ZM3.74566 2.75648C6.18466 0.762981 9.73909 0.743856 12.1967 2.71148C13.7295 3.93886 14.6323 5.68317 14.7392 7.62436C14.7908 8.57175 14.6423 9.51939 14.3034 10.4056C13.9645 11.2918 13.4427 12.0967 12.7721 12.7679C10.5468 14.9925 7.01097 15.3779 4.36441 13.6836C4.29855 13.6414 4.22461 13.6134 4.14732 13.6014C4.07003 13.5894 3.99109 13.5936 3.91553 13.6139L1.81741 14.1758L2.37991 12.0788C2.40013 12.0032 2.40437 11.9243 2.39236 11.847C2.38035 11.7697 2.35235 11.6958 2.31016 11.6299C0.464594 8.74879 1.08166 4.93448 3.74566 2.75648Z" fill="black" fill-opacity="0.2"/>
<path d="M0.732344 13.8839C0.626594 14.2765 0.734594 14.6826 1.02259 14.9706C1.1616 15.1112 1.33551 15.2123 1.52649 15.2635C1.71747 15.3147 1.91864 15.3142 2.10934 15.262L3.97234 14.763C5.18571 15.4829 6.57103 15.8615 7.98184 15.8588C10.0243 15.8588 12.056 15.0752 13.568 13.5638C14.3507 12.7807 14.9596 11.8415 15.355 10.8074C15.7504 9.77325 15.9235 8.66741 15.863 7.56192C15.7398 5.33048 14.6604 3.24248 12.9003 1.83342C10.0316 -0.463269 5.88203 -0.441331 3.03409 1.88517C-0.00621891 4.37086 -0.758844 8.68748 1.23128 12.022L0.732344 13.8839ZM3.74566 2.75648C6.18466 0.762981 9.73909 0.743856 12.1967 2.71148C13.7295 3.93886 14.6323 5.68317 14.7392 7.62436C14.7908 8.57175 14.6423 9.51939 14.3034 10.4056C13.9645 11.2918 13.4427 12.0967 12.7721 12.7679C10.5468 14.9925 7.01097 15.3779 4.36441 13.6836C4.29855 13.6414 4.22461 13.6134 4.14732 13.6014C4.07003 13.5894 3.99109 13.5936 3.91553 13.6139L1.81741 14.1758L2.37991 12.0788C2.40013 12.0032 2.40437 11.9243 2.39236 11.847C2.38035 11.7697 2.35235 11.6958 2.31016 11.6299C0.464594 8.74879 1.08166 4.93448 3.74566 2.75648Z" fill="black" fill-opacity="0.2"/>
<path d="M0.732344 13.8839C0.626594 14.2765 0.734594 14.6826 1.02259 14.9706C1.1616 15.1112 1.33551 15.2123 1.52649 15.2635C1.71747 15.3147 1.91864 15.3142 2.10934 15.262L3.97234 14.763C5.18571 15.4829 6.57103 15.8615 7.98184 15.8588C10.0243 15.8588 12.056 15.0752 13.568 13.5638C14.3507 12.7807 14.9596 11.8415 15.355 10.8074C15.7504 9.77325 15.9235 8.66741 15.863 7.56192C15.7398 5.33048 14.6604 3.24248 12.9003 1.83342C10.0316 -0.463269 5.88203 -0.441331 3.03409 1.88517C-0.00621891 4.37086 -0.758844 8.68748 1.23128 12.022L0.732344 13.8839ZM3.74566 2.75648C6.18466 0.762981 9.73909 0.743856 12.1967 2.71148C13.7295 3.93886 14.6323 5.68317 14.7392 7.62436C14.7908 8.57175 14.6423 9.51939 14.3034 10.4056C13.9645 11.2918 13.4427 12.0967 12.7721 12.7679C10.5468 14.9925 7.01097 15.3779 4.36441 13.6836C4.29855 13.6414 4.22461 13.6134 4.14732 13.6014C4.07003 13.5894 3.99109 13.5936 3.91553 13.6139L1.81741 14.1758L2.37991 12.0788C2.40013 12.0032 2.40437 11.9243 2.39236 11.847C2.38035 11.7697 2.35235 11.6958 2.31016 11.6299C0.464594 8.74879 1.08166 4.93448 3.74566 2.75648Z" fill="black" fill-opacity="0.2"/>
<path d="M0.732344 13.8839C0.626594 14.2765 0.734594 14.6826 1.02259 14.9706C1.1616 15.1112 1.33551 15.2123 1.52649 15.2635C1.71747 15.3147 1.91864 15.3142 2.10934 15.262L3.97234 14.763C5.18571 15.4829 6.57103 15.8615 7.98184 15.8588C10.0243 15.8588 12.056 15.0752 13.568 13.5638C14.3507 12.7807 14.9596 11.8415 15.355 10.8074C15.7504 9.77325 15.9235 8.66741 15.863 7.56192C15.7398 5.33048 14.6604 3.24248 12.9003 1.83342C10.0316 -0.463269 5.88203 -0.441331 3.03409 1.88517C-0.00621891 4.37086 -0.758844 8.68748 1.23128 12.022L0.732344 13.8839ZM3.74566 2.75648C6.18466 0.762981 9.73909 0.743856 12.1967 2.71148C13.7295 3.93886 14.6323 5.68317 14.7392 7.62436C14.7908 8.57175 14.6423 9.51939 14.3034 10.4056C13.9645 11.2918 13.4427 12.0967 12.7721 12.7679C10.5468 14.9925 7.01097 15.3779 4.36441 13.6836C4.29855 13.6414 4.22461 13.6134 4.14732 13.6014C4.07003 13.5894 3.99109 13.5936 3.91553 13.6139L1.81741 14.1758L2.37991 12.0788C2.40013 12.0032 2.40437 11.9243 2.39236 11.847C2.38035 11.7697 2.35235 11.6958 2.31016 11.6299C0.464594 8.74879 1.08166 4.93448 3.74566 2.75648Z" fill="black" fill-opacity="0.2"/>
<path d="M0.732344 13.8839C0.626594 14.2765 0.734594 14.6826 1.02259 14.9706C1.1616 15.1112 1.33551 15.2123 1.52649 15.2635C1.71747 15.3147 1.91864 15.3142 2.10934 15.262L3.97234 14.763C5.18571 15.4829 6.57103 15.8615 7.98184 15.8588C10.0243 15.8588 12.056 15.0752 13.568 13.5638C14.3507 12.7807 14.9596 11.8415 15.355 10.8074C15.7504 9.77325 15.9235 8.66741 15.863 7.56192C15.7398 5.33048 14.6604 3.24248 12.9003 1.83342C10.0316 -0.463269 5.88203 -0.441331 3.03409 1.88517C-0.00621891 4.37086 -0.758844 8.68748 1.23128 12.022L0.732344 13.8839ZM3.74566 2.75648C6.18466 0.762981 9.73909 0.743856 12.1967 2.71148C13.7295 3.93886 14.6323 5.68317 14.7392 7.62436C14.7908 8.57175 14.6423 9.51939 14.3034 10.4056C13.9645 11.2918 13.4427 12.0967 12.7721 12.7679C10.5468 14.9925 7.01097 15.3779 4.36441 13.6836C4.29855 13.6414 4.22461 13.6134 4.14732 13.6014C4.07003 13.5894 3.99109 13.5936 3.91553 13.6139L1.81741 14.1758L2.37991 12.0788C2.40013 12.0032 2.40437 11.9243 2.39236 11.847C2.38035 11.7697 2.35235 11.6958 2.31016 11.6299C0.464594 8.74879 1.08166 4.93448 3.74566 2.75648Z" fill="black" fill-opacity="0.2"/>
<path d="M0.732344 13.8839C0.626594 14.2765 0.734594 14.6826 1.02259 14.9706C1.1616 15.1112 1.33551 15.2123 1.52649 15.2635C1.71747 15.3147 1.91864 15.3142 2.10934 15.262L3.97234 14.763C5.18571 15.4829 6.57103 15.8615 7.98184 15.8588C10.0243 15.8588 12.056 15.0752 13.568 13.5638C14.3507 12.7807 14.9596 11.8415 15.355 10.8074C15.7504 9.77325 15.9235 8.66741 15.863 7.56192C15.7398 5.33048 14.6604 3.24248 12.9003 1.83342C10.0316 -0.463269 5.88203 -0.441331 3.03409 1.88517C-0.00621891 4.37086 -0.758844 8.68748 1.23128 12.022L0.732344 13.8839ZM3.74566 2.75648C6.18466 0.762981 9.73909 0.743856 12.1967 2.71148C13.7295 3.93886 14.6323 5.68317 14.7392 7.62436C14.7908 8.57175 14.6423 9.51939 14.3034 10.4056C13.9645 11.2918 13.4427 12.0967 12.7721 12.7679C10.5468 14.9925 7.01097 15.3779 4.36441 13.6836C4.29855 13.6414 4.22461 13.6134 4.14732 13.6014C4.07003 13.5894 3.99109 13.5936 3.91553 13.6139L1.81741 14.1758L2.37991 12.0788C2.40013 12.0032 2.40437 11.9243 2.39236 11.847C2.38035 11.7697 2.35235 11.6958 2.31016 11.6299C0.464594 8.74879 1.08166 4.93448 3.74566 2.75648Z" fill="black" fill-opacity="0.2"/>
<path d="M0.732344 13.8839C0.626594 14.2765 0.734594 14.6826 1.02259 14.9706C1.1616 15.1112 1.33551 15.2123 1.52649 15.2635C1.71747 15.3147 1.91864 15.3142 2.10934 15.262L3.97234 14.763C5.18571 15.4829 6.57103 15.8615 7.98184 15.8588C10.0243 15.8588 12.056 15.0752 13.568 13.5638C14.3507 12.7807 14.9596 11.8415 15.355 10.8074C15.7504 9.77325 15.9235 8.66741 15.863 7.56192C15.7398 5.33048 14.6604 3.24248 12.9003 1.83342C10.0316 -0.463269 5.88203 -0.441331 3.03409 1.88517C-0.00621891 4.37086 -0.758844 8.68748 1.23128 12.022L0.732344 13.8839ZM3.74566 2.75648C6.18466 0.762981 9.73909 0.743856 12.1967 2.71148C13.7295 3.93886 14.6323 5.68317 14.7392 7.62436C14.7908 8.57175 14.6423 9.51939 14.3034 10.4056C13.9645 11.2918 13.4427 12.0967 12.7721 12.7679C10.5468 14.9925 7.01097 15.3779 4.36441 13.6836C4.29855 13.6414 4.22461 13.6134 4.14732 13.6014C4.07003 13.5894 3.99109 13.5936 3.91553 13.6139L1.81741 14.1758L2.37991 12.0788C2.40013 12.0032 2.40437 11.9243 2.39236 11.847C2.38035 11.7697 2.35235 11.6958 2.31016 11.6299C0.464594 8.74879 1.08166 4.93448 3.74566 2.75648Z" fill="black" fill-opacity="0.2"/>
<path d="M0.732344 13.8839C0.626594 14.2765 0.734594 14.6826 1.02259 14.9706C1.1616 15.1112 1.33551 15.2123 1.52649 15.2635C1.71747 15.3147 1.91864 15.3142 2.10934 15.262L3.97234 14.763C5.18571 15.4829 6.57103 15.8615 7.98184 15.8588C10.0243 15.8588 12.056 15.0752 13.568 13.5638C14.3507 12.7807 14.9596 11.8415 15.355 10.8074C15.7504 9.77325 15.9235 8.66741 15.863 7.56192C15.7398 5.33048 14.6604 3.24248 12.9003 1.83342C10.0316 -0.463269 5.88203 -0.441331 3.03409 1.88517C-0.00621891 4.37086 -0.758844 8.68748 1.23128 12.022L0.732344 13.8839ZM3.74566 2.75648C6.18466 0.762981 9.73909 0.743856 12.1967 2.71148C13.7295 3.93886 14.6323 5.68317 14.7392 7.62436C14.7908 8.57175 14.6423 9.51939 14.3034 10.4056C13.9645 11.2918 13.4427 12.0967 12.7721 12.7679C10.5468 14.9925 7.01097 15.3779 4.36441 13.6836C4.29855 13.6414 4.22461 13.6134 4.14732 13.6014C4.07003 13.5894 3.99109 13.5936 3.91553 13.6139L1.81741 14.1758L2.37991 12.0788C2.40013 12.0032 2.40437 11.9243 2.39236 11.847C2.38035 11.7697 2.35235 11.6958 2.31016 11.6299C0.464594 8.74879 1.08166 4.93448 3.74566 2.75648Z" fill="black" fill-opacity="0.2"/>
<path d="M0.732344 13.8839C0.626594 14.2765 0.734594 14.6826 1.02259 14.9706C1.1616 15.1112 1.33551 15.2123 1.52649 15.2635C1.71747 15.3147 1.91864 15.3142 2.10934 15.262L3.97234 14.763C5.18571 15.4829 6.57103 15.8615 7.98184 15.8588C10.0243 15.8588 12.056 15.0752 13.568 13.5638C14.3507 12.7807 14.9596 11.8415 15.355 10.8074C15.7504 9.77325 15.9235 8.66741 15.863 7.56192C15.7398 5.33048 14.6604 3.24248 12.9003 1.83342C10.0316 -0.463269 5.88203 -0.441331 3.03409 1.88517C-0.00621891 4.37086 -0.758844 8.68748 1.23128 12.022L0.732344 13.8839ZM3.74566 2.75648C6.18466 0.762981 9.73909 0.743856 12.1967 2.71148C13.7295 3.93886 14.6323 5.68317 14.7392 7.62436C14.7908 8.57175 14.6423 9.51939 14.3034 10.4056C13.9645 11.2918 13.4427 12.0967 12.7721 12.7679C10.5468 14.9925 7.01097 15.3779 4.36441 13.6836C4.29855 13.6414 4.22461 13.6134 4.14732 13.6014C4.07003 13.5894 3.99109 13.5936 3.91553 13.6139L1.81741 14.1758L2.37991 12.0788C2.40013 12.0032 2.40437 11.9243 2.39236 11.847C2.38035 11.7697 2.35235 11.6958 2.31016 11.6299C0.464594 8.74879 1.08166 4.93448 3.74566 2.75648Z" fill="black" fill-opacity="0.2"/>
<path d="M0.732344 13.8839C0.626594 14.2765 0.734594 14.6826 1.02259 14.9706C1.1616 15.1112 1.33551 15.2123 1.52649 15.2635C1.71747 15.3147 1.91864 15.3142 2.10934 15.262L3.97234 14.763C5.18571 15.4829 6.57103 15.8615 7.98184 15.8588C10.0243 15.8588 12.056 15.0752 13.568 13.5638C14.3507 12.7807 14.9596 11.8415 15.355 10.8074C15.7504 9.77325 15.9235 8.66741 15.863 7.56192C15.7398 5.33048 14.6604 3.24248 12.9003 1.83342C10.0316 -0.463269 5.88203 -0.441331 3.03409 1.88517C-0.00621891 4.37086 -0.758844 8.68748 1.23128 12.022L0.732344 13.8839ZM3.74566 2.75648C6.18466 0.762981 9.73909 0.743856 12.1967 2.71148C13.7295 3.93886 14.6323 5.68317 14.7392 7.62436C14.7908 8.57175 14.6423 9.51939 14.3034 10.4056C13.9645 11.2918 13.4427 12.0967 12.7721 12.7679C10.5468 14.9925 7.01097 15.3779 4.36441 13.6836C4.29855 13.6414 4.22461 13.6134 4.14732 13.6014C4.07003 13.5894 3.99109 13.5936 3.91553 13.6139L1.81741 14.1758L2.37991 12.0788C2.40013 12.0032 2.40437 11.9243 2.39236 11.847C2.38035 11.7697 2.35235 11.6958 2.31016 11.6299C0.464594 8.74879 1.08166 4.93448 3.74566 2.75648Z" fill="black" fill-opacity="0.2"/>
<path d="M0.732344 13.8839C0.626594 14.2765 0.734594 14.6826 1.02259 14.9706C1.1616 15.1112 1.33551 15.2123 1.52649 15.2635C1.71747 15.3147 1.91864 15.3142 2.10934 15.262L3.97234 14.763C5.18571 15.4829 6.57103 15.8615 7.98184 15.8588C10.0243 15.8588 12.056 15.0752 13.568 13.5638C14.3507 12.7807 14.9596 11.8415 15.355 10.8074C15.7504 9.77325 15.9235 8.66741 15.863 7.56192C15.7398 5.33048 14.6604 3.24248 12.9003 1.83342C10.0316 -0.463269 5.88203 -0.441331 3.03409 1.88517C-0.00621891 4.37086 -0.758844 8.68748 1.23128 12.022L0.732344 13.8839ZM3.74566 2.75648C6.18466 0.762981 9.73909 0.743856 12.1967 2.71148C13.7295 3.93886 14.6323 5.68317 14.7392 7.62436C14.7908 8.57175 14.6423 9.51939 14.3034 10.4056C13.9645 11.2918 13.4427 12.0967 12.7721 12.7679C10.5468 14.9925 7.01097 15.3779 4.36441 13.6836C4.29855 13.6414 4.22461 13.6134 4.14732 13.6014C4.07003 13.5894 3.99109 13.5936 3.91553 13.6139L1.81741 14.1758L2.37991 12.0788C2.40013 12.0032 2.40437 11.9243 2.39236 11.847C2.38035 11.7697 2.35235 11.6958 2.31016 11.6299C0.464594 8.74879 1.08166 4.93448 3.74566 2.75648Z" fill="black" fill-opacity="0.2"/>
</g>
<g id="Vector_2">
<path d="M6.01863 6.59953C6.16782 6.59953 6.31089 6.54027 6.41638 6.43478C6.52187 6.32929 6.58113 6.18622 6.58113 6.03703C6.58113 5.60391 6.77688 5.19891 7.11832 4.92666C7.4637 4.65103 7.89795 4.55653 8.3412 4.65834C8.59288 4.71939 8.82288 4.84859 9.00595 5.03176C9.18903 5.21494 9.3181 5.44501 9.37901 5.69672C9.5157 6.29072 9.28113 6.88922 8.78107 7.22109C7.93957 7.77909 7.43726 8.74603 7.43726 9.80859C7.43726 9.95778 7.49652 10.1009 7.60201 10.2063C7.7075 10.3118 7.85057 10.3711 7.99976 10.3711C8.14894 10.3711 8.29202 10.3118 8.39751 10.2063C8.503 10.1009 8.56226 9.95778 8.56226 9.80859C8.56226 9.12459 8.8767 8.50753 9.4032 8.15878C10.2976 7.56534 10.7183 6.49941 10.4753 5.44472C10.3683 4.98674 10.1354 4.56778 9.80296 4.23511C9.4705 3.90245 9.05168 3.66932 8.59376 3.56203C8.21799 3.47295 7.82692 3.47026 7.44996 3.55414C7.073 3.63803 6.71997 3.80632 6.41745 4.04634C6.1169 4.28384 5.87417 4.58645 5.70756 4.93137C5.54094 5.2763 5.45478 5.65454 5.45557 6.03759C5.45557 6.18678 5.51484 6.32985 5.62032 6.43534C5.72581 6.54083 5.86889 6.60009 6.01807 6.60009L6.01863 6.59953ZM8.01101 11.3684H8.00538C7.69488 11.3684 7.4457 11.6204 7.4457 11.9309C7.4457 12.2414 7.70051 12.4934 8.01101 12.4934C8.16019 12.4934 8.30327 12.4341 8.40876 12.3287C8.51425 12.2232 8.57351 12.0801 8.57351 11.9309C8.57351 11.7817 8.51425 11.6386 8.40876 11.5332C8.30327 11.4277 8.16019 11.3684 8.01101 11.3684Z" fill="#040D12"/>
<path d="M6.01863 6.59953C6.16782 6.59953 6.31089 6.54027 6.41638 6.43478C6.52187 6.32929 6.58113 6.18622 6.58113 6.03703C6.58113 5.60391 6.77688 5.19891 7.11832 4.92666C7.4637 4.65103 7.89795 4.55653 8.3412 4.65834C8.59288 4.71939 8.82288 4.84859 9.00595 5.03176C9.18903 5.21494 9.3181 5.44501 9.37901 5.69672C9.5157 6.29072 9.28113 6.88922 8.78107 7.22109C7.93957 7.77909 7.43726 8.74603 7.43726 9.80859C7.43726 9.95778 7.49652 10.1009 7.60201 10.2063C7.7075 10.3118 7.85057 10.3711 7.99976 10.3711C8.14894 10.3711 8.29202 10.3118 8.39751 10.2063C8.503 10.1009 8.56226 9.95778 8.56226 9.80859C8.56226 9.12459 8.8767 8.50753 9.4032 8.15878C10.2976 7.56534 10.7183 6.49941 10.4753 5.44472C10.3683 4.98674 10.1354 4.56778 9.80296 4.23511C9.4705 3.90245 9.05168 3.66932 8.59376 3.56203C8.21799 3.47295 7.82692 3.47026 7.44996 3.55414C7.073 3.63803 6.71997 3.80632 6.41745 4.04634C6.1169 4.28384 5.87417 4.58645 5.70756 4.93137C5.54094 5.2763 5.45478 5.65454 5.45557 6.03759C5.45557 6.18678 5.51484 6.32985 5.62032 6.43534C5.72581 6.54083 5.86889 6.60009 6.01807 6.60009L6.01863 6.59953ZM8.01101 11.3684H8.00538C7.69488 11.3684 7.4457 11.6204 7.4457 11.9309C7.4457 12.2414 7.70051 12.4934 8.01101 12.4934C8.16019 12.4934 8.30327 12.4341 8.40876 12.3287C8.51425 12.2232 8.57351 12.0801 8.57351 11.9309C8.57351 11.7817 8.51425 11.6386 8.40876 11.5332C8.30327 11.4277 8.16019 11.3684 8.01101 11.3684Z" fill="black" fill-opacity="0.2"/>
<path d="M6.01863 6.59953C6.16782 6.59953 6.31089 6.54027 6.41638 6.43478C6.52187 6.32929 6.58113 6.18622 6.58113 6.03703C6.58113 5.60391 6.77688 5.19891 7.11832 4.92666C7.4637 4.65103 7.89795 4.55653 8.3412 4.65834C8.59288 4.71939 8.82288 4.84859 9.00595 5.03176C9.18903 5.21494 9.3181 5.44501 9.37901 5.69672C9.5157 6.29072 9.28113 6.88922 8.78107 7.22109C7.93957 7.77909 7.43726 8.74603 7.43726 9.80859C7.43726 9.95778 7.49652 10.1009 7.60201 10.2063C7.7075 10.3118 7.85057 10.3711 7.99976 10.3711C8.14894 10.3711 8.29202 10.3118 8.39751 10.2063C8.503 10.1009 8.56226 9.95778 8.56226 9.80859C8.56226 9.12459 8.8767 8.50753 9.4032 8.15878C10.2976 7.56534 10.7183 6.49941 10.4753 5.44472C10.3683 4.98674 10.1354 4.56778 9.80296 4.23511C9.4705 3.90245 9.05168 3.66932 8.59376 3.56203C8.21799 3.47295 7.82692 3.47026 7.44996 3.55414C7.073 3.63803 6.71997 3.80632 6.41745 4.04634C6.1169 4.28384 5.87417 4.58645 5.70756 4.93137C5.54094 5.2763 5.45478 5.65454 5.45557 6.03759C5.45557 6.18678 5.51484 6.32985 5.62032 6.43534C5.72581 6.54083 5.86889 6.60009 6.01807 6.60009L6.01863 6.59953ZM8.01101 11.3684H8.00538C7.69488 11.3684 7.4457 11.6204 7.4457 11.9309C7.4457 12.2414 7.70051 12.4934 8.01101 12.4934C8.16019 12.4934 8.30327 12.4341 8.40876 12.3287C8.51425 12.2232 8.57351 12.0801 8.57351 11.9309C8.57351 11.7817 8.51425 11.6386 8.40876 11.5332C8.30327 11.4277 8.16019 11.3684 8.01101 11.3684Z" fill="black" fill-opacity="0.2"/>
<path d="M6.01863 6.59953C6.16782 6.59953 6.31089 6.54027 6.41638 6.43478C6.52187 6.32929 6.58113 6.18622 6.58113 6.03703C6.58113 5.60391 6.77688 5.19891 7.11832 4.92666C7.4637 4.65103 7.89795 4.55653 8.3412 4.65834C8.59288 4.71939 8.82288 4.84859 9.00595 5.03176C9.18903 5.21494 9.3181 5.44501 9.37901 5.69672C9.5157 6.29072 9.28113 6.88922 8.78107 7.22109C7.93957 7.77909 7.43726 8.74603 7.43726 9.80859C7.43726 9.95778 7.49652 10.1009 7.60201 10.2063C7.7075 10.3118 7.85057 10.3711 7.99976 10.3711C8.14894 10.3711 8.29202 10.3118 8.39751 10.2063C8.503 10.1009 8.56226 9.95778 8.56226 9.80859C8.56226 9.12459 8.8767 8.50753 9.4032 8.15878C10.2976 7.56534 10.7183 6.49941 10.4753 5.44472C10.3683 4.98674 10.1354 4.56778 9.80296 4.23511C9.4705 3.90245 9.05168 3.66932 8.59376 3.56203C8.21799 3.47295 7.82692 3.47026 7.44996 3.55414C7.073 3.63803 6.71997 3.80632 6.41745 4.04634C6.1169 4.28384 5.87417 4.58645 5.70756 4.93137C5.54094 5.2763 5.45478 5.65454 5.45557 6.03759C5.45557 6.18678 5.51484 6.32985 5.62032 6.43534C5.72581 6.54083 5.86889 6.60009 6.01807 6.60009L6.01863 6.59953ZM8.01101 11.3684H8.00538C7.69488 11.3684 7.4457 11.6204 7.4457 11.9309C7.4457 12.2414 7.70051 12.4934 8.01101 12.4934C8.16019 12.4934 8.30327 12.4341 8.40876 12.3287C8.51425 12.2232 8.57351 12.0801 8.57351 11.9309C8.57351 11.7817 8.51425 11.6386 8.40876 11.5332C8.30327 11.4277 8.16019 11.3684 8.01101 11.3684Z" fill="black" fill-opacity="0.2"/>
<path d="M6.01863 6.59953C6.16782 6.59953 6.31089 6.54027 6.41638 6.43478C6.52187 6.32929 6.58113 6.18622 6.58113 6.03703C6.58113 5.60391 6.77688 5.19891 7.11832 4.92666C7.4637 4.65103 7.89795 4.55653 8.3412 4.65834C8.59288 4.71939 8.82288 4.84859 9.00595 5.03176C9.18903 5.21494 9.3181 5.44501 9.37901 5.69672C9.5157 6.29072 9.28113 6.88922 8.78107 7.22109C7.93957 7.77909 7.43726 8.74603 7.43726 9.80859C7.43726 9.95778 7.49652 10.1009 7.60201 10.2063C7.7075 10.3118 7.85057 10.3711 7.99976 10.3711C8.14894 10.3711 8.29202 10.3118 8.39751 10.2063C8.503 10.1009 8.56226 9.95778 8.56226 9.80859C8.56226 9.12459 8.8767 8.50753 9.4032 8.15878C10.2976 7.56534 10.7183 6.49941 10.4753 5.44472C10.3683 4.98674 10.1354 4.56778 9.80296 4.23511C9.4705 3.90245 9.05168 3.66932 8.59376 3.56203C8.21799 3.47295 7.82692 3.47026 7.44996 3.55414C7.073 3.63803 6.71997 3.80632 6.41745 4.04634C6.1169 4.28384 5.87417 4.58645 5.70756 4.93137C5.54094 5.2763 5.45478 5.65454 5.45557 6.03759C5.45557 6.18678 5.51484 6.32985 5.62032 6.43534C5.72581 6.54083 5.86889 6.60009 6.01807 6.60009L6.01863 6.59953ZM8.01101 11.3684H8.00538C7.69488 11.3684 7.4457 11.6204 7.4457 11.9309C7.4457 12.2414 7.70051 12.4934 8.01101 12.4934C8.16019 12.4934 8.30327 12.4341 8.40876 12.3287C8.51425 12.2232 8.57351 12.0801 8.57351 11.9309C8.57351 11.7817 8.51425 11.6386 8.40876 11.5332C8.30327 11.4277 8.16019 11.3684 8.01101 11.3684Z" fill="black" fill-opacity="0.2"/>
<path d="M6.01863 6.59953C6.16782 6.59953 6.31089 6.54027 6.41638 6.43478C6.52187 6.32929 6.58113 6.18622 6.58113 6.03703C6.58113 5.60391 6.77688 5.19891 7.11832 4.92666C7.4637 4.65103 7.89795 4.55653 8.3412 4.65834C8.59288 4.71939 8.82288 4.84859 9.00595 5.03176C9.18903 5.21494 9.3181 5.44501 9.37901 5.69672C9.5157 6.29072 9.28113 6.88922 8.78107 7.22109C7.93957 7.77909 7.43726 8.74603 7.43726 9.80859C7.43726 9.95778 7.49652 10.1009 7.60201 10.2063C7.7075 10.3118 7.85057 10.3711 7.99976 10.3711C8.14894 10.3711 8.29202 10.3118 8.39751 10.2063C8.503 10.1009 8.56226 9.95778 8.56226 9.80859C8.56226 9.12459 8.8767 8.50753 9.4032 8.15878C10.2976 7.56534 10.7183 6.49941 10.4753 5.44472C10.3683 4.98674 10.1354 4.56778 9.80296 4.23511C9.4705 3.90245 9.05168 3.66932 8.59376 3.56203C8.21799 3.47295 7.82692 3.47026 7.44996 3.55414C7.073 3.63803 6.71997 3.80632 6.41745 4.04634C6.1169 4.28384 5.87417 4.58645 5.70756 4.93137C5.54094 5.2763 5.45478 5.65454 5.45557 6.03759C5.45557 6.18678 5.51484 6.32985 5.62032 6.43534C5.72581 6.54083 5.86889 6.60009 6.01807 6.60009L6.01863 6.59953ZM8.01101 11.3684H8.00538C7.69488 11.3684 7.4457 11.6204 7.4457 11.9309C7.4457 12.2414 7.70051 12.4934 8.01101 12.4934C8.16019 12.4934 8.30327 12.4341 8.40876 12.3287C8.51425 12.2232 8.57351 12.0801 8.57351 11.9309C8.57351 11.7817 8.51425 11.6386 8.40876 11.5332C8.30327 11.4277 8.16019 11.3684 8.01101 11.3684Z" fill="black" fill-opacity="0.2"/>
<path d="M6.01863 6.59953C6.16782 6.59953 6.31089 6.54027 6.41638 6.43478C6.52187 6.32929 6.58113 6.18622 6.58113 6.03703C6.58113 5.60391 6.77688 5.19891 7.11832 4.92666C7.4637 4.65103 7.89795 4.55653 8.3412 4.65834C8.59288 4.71939 8.82288 4.84859 9.00595 5.03176C9.18903 5.21494 9.3181 5.44501 9.37901 5.69672C9.5157 6.29072 9.28113 6.88922 8.78107 7.22109C7.93957 7.77909 7.43726 8.74603 7.43726 9.80859C7.43726 9.95778 7.49652 10.1009 7.60201 10.2063C7.7075 10.3118 7.85057 10.3711 7.99976 10.3711C8.14894 10.3711 8.29202 10.3118 8.39751 10.2063C8.503 10.1009 8.56226 9.95778 8.56226 9.80859C8.56226 9.12459 8.8767 8.50753 9.4032 8.15878C10.2976 7.56534 10.7183 6.49941 10.4753 5.44472C10.3683 4.98674 10.1354 4.56778 9.80296 4.23511C9.4705 3.90245 9.05168 3.66932 8.59376 3.56203C8.21799 3.47295 7.82692 3.47026 7.44996 3.55414C7.073 3.63803 6.71997 3.80632 6.41745 4.04634C6.1169 4.28384 5.87417 4.58645 5.70756 4.93137C5.54094 5.2763 5.45478 5.65454 5.45557 6.03759C5.45557 6.18678 5.51484 6.32985 5.62032 6.43534C5.72581 6.54083 5.86889 6.60009 6.01807 6.60009L6.01863 6.59953ZM8.01101 11.3684H8.00538C7.69488 11.3684 7.4457 11.6204 7.4457 11.9309C7.4457 12.2414 7.70051 12.4934 8.01101 12.4934C8.16019 12.4934 8.30327 12.4341 8.40876 12.3287C8.51425 12.2232 8.57351 12.0801 8.57351 11.9309C8.57351 11.7817 8.51425 11.6386 8.40876 11.5332C8.30327 11.4277 8.16019 11.3684 8.01101 11.3684Z" fill="black" fill-opacity="0.2"/>
<path d="M6.01863 6.59953C6.16782 6.59953 6.31089 6.54027 6.41638 6.43478C6.52187 6.32929 6.58113 6.18622 6.58113 6.03703C6.58113 5.60391 6.77688 5.19891 7.11832 4.92666C7.4637 4.65103 7.89795 4.55653 8.3412 4.65834C8.59288 4.71939 8.82288 4.84859 9.00595 5.03176C9.18903 5.21494 9.3181 5.44501 9.37901 5.69672C9.5157 6.29072 9.28113 6.88922 8.78107 7.22109C7.93957 7.77909 7.43726 8.74603 7.43726 9.80859C7.43726 9.95778 7.49652 10.1009 7.60201 10.2063C7.7075 10.3118 7.85057 10.3711 7.99976 10.3711C8.14894 10.3711 8.29202 10.3118 8.39751 10.2063C8.503 10.1009 8.56226 9.95778 8.56226 9.80859C8.56226 9.12459 8.8767 8.50753 9.4032 8.15878C10.2976 7.56534 10.7183 6.49941 10.4753 5.44472C10.3683 4.98674 10.1354 4.56778 9.80296 4.23511C9.4705 3.90245 9.05168 3.66932 8.59376 3.56203C8.21799 3.47295 7.82692 3.47026 7.44996 3.55414C7.073 3.63803 6.71997 3.80632 6.41745 4.04634C6.1169 4.28384 5.87417 4.58645 5.70756 4.93137C5.54094 5.2763 5.45478 5.65454 5.45557 6.03759C5.45557 6.18678 5.51484 6.32985 5.62032 6.43534C5.72581 6.54083 5.86889 6.60009 6.01807 6.60009L6.01863 6.59953ZM8.01101 11.3684H8.00538C7.69488 11.3684 7.4457 11.6204 7.4457 11.9309C7.4457 12.2414 7.70051 12.4934 8.01101 12.4934C8.16019 12.4934 8.30327 12.4341 8.40876 12.3287C8.51425 12.2232 8.57351 12.0801 8.57351 11.9309C8.57351 11.7817 8.51425 11.6386 8.40876 11.5332C8.30327 11.4277 8.16019 11.3684 8.01101 11.3684Z" fill="black" fill-opacity="0.2"/>
<path d="M6.01863 6.59953C6.16782 6.59953 6.31089 6.54027 6.41638 6.43478C6.52187 6.32929 6.58113 6.18622 6.58113 6.03703C6.58113 5.60391 6.77688 5.19891 7.11832 4.92666C7.4637 4.65103 7.89795 4.55653 8.3412 4.65834C8.59288 4.71939 8.82288 4.84859 9.00595 5.03176C9.18903 5.21494 9.3181 5.44501 9.37901 5.69672C9.5157 6.29072 9.28113 6.88922 8.78107 7.22109C7.93957 7.77909 7.43726 8.74603 7.43726 9.80859C7.43726 9.95778 7.49652 10.1009 7.60201 10.2063C7.7075 10.3118 7.85057 10.3711 7.99976 10.3711C8.14894 10.3711 8.29202 10.3118 8.39751 10.2063C8.503 10.1009 8.56226 9.95778 8.56226 9.80859C8.56226 9.12459 8.8767 8.50753 9.4032 8.15878C10.2976 7.56534 10.7183 6.49941 10.4753 5.44472C10.3683 4.98674 10.1354 4.56778 9.80296 4.23511C9.4705 3.90245 9.05168 3.66932 8.59376 3.56203C8.21799 3.47295 7.82692 3.47026 7.44996 3.55414C7.073 3.63803 6.71997 3.80632 6.41745 4.04634C6.1169 4.28384 5.87417 4.58645 5.70756 4.93137C5.54094 5.2763 5.45478 5.65454 5.45557 6.03759C5.45557 6.18678 5.51484 6.32985 5.62032 6.43534C5.72581 6.54083 5.86889 6.60009 6.01807 6.60009L6.01863 6.59953ZM8.01101 11.3684H8.00538C7.69488 11.3684 7.4457 11.6204 7.4457 11.9309C7.4457 12.2414 7.70051 12.4934 8.01101 12.4934C8.16019 12.4934 8.30327 12.4341 8.40876 12.3287C8.51425 12.2232 8.57351 12.0801 8.57351 11.9309C8.57351 11.7817 8.51425 11.6386 8.40876 11.5332C8.30327 11.4277 8.16019 11.3684 8.01101 11.3684Z" fill="black" fill-opacity="0.2"/>
<path d="M6.01863 6.59953C6.16782 6.59953 6.31089 6.54027 6.41638 6.43478C6.52187 6.32929 6.58113 6.18622 6.58113 6.03703C6.58113 5.60391 6.77688 5.19891 7.11832 4.92666C7.4637 4.65103 7.89795 4.55653 8.3412 4.65834C8.59288 4.71939 8.82288 4.84859 9.00595 5.03176C9.18903 5.21494 9.3181 5.44501 9.37901 5.69672C9.5157 6.29072 9.28113 6.88922 8.78107 7.22109C7.93957 7.77909 7.43726 8.74603 7.43726 9.80859C7.43726 9.95778 7.49652 10.1009 7.60201 10.2063C7.7075 10.3118 7.85057 10.3711 7.99976 10.3711C8.14894 10.3711 8.29202 10.3118 8.39751 10.2063C8.503 10.1009 8.56226 9.95778 8.56226 9.80859C8.56226 9.12459 8.8767 8.50753 9.4032 8.15878C10.2976 7.56534 10.7183 6.49941 10.4753 5.44472C10.3683 4.98674 10.1354 4.56778 9.80296 4.23511C9.4705 3.90245 9.05168 3.66932 8.59376 3.56203C8.21799 3.47295 7.82692 3.47026 7.44996 3.55414C7.073 3.63803 6.71997 3.80632 6.41745 4.04634C6.1169 4.28384 5.87417 4.58645 5.70756 4.93137C5.54094 5.2763 5.45478 5.65454 5.45557 6.03759C5.45557 6.18678 5.51484 6.32985 5.62032 6.43534C5.72581 6.54083 5.86889 6.60009 6.01807 6.60009L6.01863 6.59953ZM8.01101 11.3684H8.00538C7.69488 11.3684 7.4457 11.6204 7.4457 11.9309C7.4457 12.2414 7.70051 12.4934 8.01101 12.4934C8.16019 12.4934 8.30327 12.4341 8.40876 12.3287C8.51425 12.2232 8.57351 12.0801 8.57351 11.9309C8.57351 11.7817 8.51425 11.6386 8.40876 11.5332C8.30327 11.4277 8.16019 11.3684 8.01101 11.3684Z" fill="black" fill-opacity="0.2"/>
<path d="M6.01863 6.59953C6.16782 6.59953 6.31089 6.54027 6.41638 6.43478C6.52187 6.32929 6.58113 6.18622 6.58113 6.03703C6.58113 5.60391 6.77688 5.19891 7.11832 4.92666C7.4637 4.65103 7.89795 4.55653 8.3412 4.65834C8.59288 4.71939 8.82288 4.84859 9.00595 5.03176C9.18903 5.21494 9.3181 5.44501 9.37901 5.69672C9.5157 6.29072 9.28113 6.88922 8.78107 7.22109C7.93957 7.77909 7.43726 8.74603 7.43726 9.80859C7.43726 9.95778 7.49652 10.1009 7.60201 10.2063C7.7075 10.3118 7.85057 10.3711 7.99976 10.3711C8.14894 10.3711 8.29202 10.3118 8.39751 10.2063C8.503 10.1009 8.56226 9.95778 8.56226 9.80859C8.56226 9.12459 8.8767 8.50753 9.4032 8.15878C10.2976 7.56534 10.7183 6.49941 10.4753 5.44472C10.3683 4.98674 10.1354 4.56778 9.80296 4.23511C9.4705 3.90245 9.05168 3.66932 8.59376 3.56203C8.21799 3.47295 7.82692 3.47026 7.44996 3.55414C7.073 3.63803 6.71997 3.80632 6.41745 4.04634C6.1169 4.28384 5.87417 4.58645 5.70756 4.93137C5.54094 5.2763 5.45478 5.65454 5.45557 6.03759C5.45557 6.18678 5.51484 6.32985 5.62032 6.43534C5.72581 6.54083 5.86889 6.60009 6.01807 6.60009L6.01863 6.59953ZM8.01101 11.3684H8.00538C7.69488 11.3684 7.4457 11.6204 7.4457 11.9309C7.4457 12.2414 7.70051 12.4934 8.01101 12.4934C8.16019 12.4934 8.30327 12.4341 8.40876 12.3287C8.51425 12.2232 8.57351 12.0801 8.57351 11.9309C8.57351 11.7817 8.51425 11.6386 8.40876 11.5332C8.30327 11.4277 8.16019 11.3684 8.01101 11.3684Z" fill="black" fill-opacity="0.2"/>
<path d="M6.01863 6.59953C6.16782 6.59953 6.31089 6.54027 6.41638 6.43478C6.52187 6.32929 6.58113 6.18622 6.58113 6.03703C6.58113 5.60391 6.77688 5.19891 7.11832 4.92666C7.4637 4.65103 7.89795 4.55653 8.3412 4.65834C8.59288 4.71939 8.82288 4.84859 9.00595 5.03176C9.18903 5.21494 9.3181 5.44501 9.37901 5.69672C9.5157 6.29072 9.28113 6.88922 8.78107 7.22109C7.93957 7.77909 7.43726 8.74603 7.43726 9.80859C7.43726 9.95778 7.49652 10.1009 7.60201 10.2063C7.7075 10.3118 7.85057 10.3711 7.99976 10.3711C8.14894 10.3711 8.29202 10.3118 8.39751 10.2063C8.503 10.1009 8.56226 9.95778 8.56226 9.80859C8.56226 9.12459 8.8767 8.50753 9.4032 8.15878C10.2976 7.56534 10.7183 6.49941 10.4753 5.44472C10.3683 4.98674 10.1354 4.56778 9.80296 4.23511C9.4705 3.90245 9.05168 3.66932 8.59376 3.56203C8.21799 3.47295 7.82692 3.47026 7.44996 3.55414C7.073 3.63803 6.71997 3.80632 6.41745 4.04634C6.1169 4.28384 5.87417 4.58645 5.70756 4.93137C5.54094 5.2763 5.45478 5.65454 5.45557 6.03759C5.45557 6.18678 5.51484 6.32985 5.62032 6.43534C5.72581 6.54083 5.86889 6.60009 6.01807 6.60009L6.01863 6.59953ZM8.01101 11.3684H8.00538C7.69488 11.3684 7.4457 11.6204 7.4457 11.9309C7.4457 12.2414 7.70051 12.4934 8.01101 12.4934C8.16019 12.4934 8.30327 12.4341 8.40876 12.3287C8.51425 12.2232 8.57351 12.0801 8.57351 11.9309C8.57351 11.7817 8.51425 11.6386 8.40876 11.5332C8.30327 11.4277 8.16019 11.3684 8.01101 11.3684Z" fill="black" fill-opacity="0.2"/>
</g>
</g>
</svg>
