<svg width="16" height="16" viewBox="0 0 16 16" fill="none" xmlns="http://www.w3.org/2000/svg">
<g id="Group">
<g id="Group_2">
<g id="Vector">
<path fill-rule="evenodd" clip-rule="evenodd" d="M5.99967 2.00008C5.11562 2.00008 4.26777 2.35127 3.64265 2.97639C3.01753 3.60151 2.66634 4.44936 2.66634 5.33342V6.66675H1.33301V5.33342C1.33301 4.09574 1.82467 2.90875 2.69984 2.03358C3.57501 1.15841 4.762 0.666748 5.99967 0.666748H9.99968C11.2374 0.666748 12.4243 1.15841 13.2995 2.03358C14.1747 2.90875 14.6663 4.09574 14.6663 5.33342V6.66675H13.333V5.33342C13.333 4.44936 12.9818 3.60151 12.3567 2.97639C11.7316 2.35127 10.8837 2.00008 9.99968 2.00008H5.99967Z" fill="#040D12"/>
<path fill-rule="evenodd" clip-rule="evenodd" d="M5.99967 2.00008C5.11562 2.00008 4.26777 2.35127 3.64265 2.97639C3.01753 3.60151 2.66634 4.44936 2.66634 5.33342V6.66675H1.33301V5.33342C1.33301 4.09574 1.82467 2.90875 2.69984 2.03358C3.57501 1.15841 4.762 0.666748 5.99967 0.666748H9.99968C11.2374 0.666748 12.4243 1.15841 13.2995 2.03358C14.1747 2.90875 14.6663 4.09574 14.6663 5.33342V6.66675H13.333V5.33342C13.333 4.44936 12.9818 3.60151 12.3567 2.97639C11.7316 2.35127 10.8837 2.00008 9.99968 2.00008H5.99967Z" fill="black" fill-opacity="0.2"/>
<path fill-rule="evenodd" clip-rule="evenodd" d="M5.99967 2.00008C5.11562 2.00008 4.26777 2.35127 3.64265 2.97639C3.01753 3.60151 2.66634 4.44936 2.66634 5.33342V6.66675H1.33301V5.33342C1.33301 4.09574 1.82467 2.90875 2.69984 2.03358C3.57501 1.15841 4.762 0.666748 5.99967 0.666748H9.99968C11.2374 0.666748 12.4243 1.15841 13.2995 2.03358C14.1747 2.90875 14.6663 4.09574 14.6663 5.33342V6.66675H13.333V5.33342C13.333 4.44936 12.9818 3.60151 12.3567 2.97639C11.7316 2.35127 10.8837 2.00008 9.99968 2.00008H5.99967Z" fill="black" fill-opacity="0.2"/>
<path fill-rule="evenodd" clip-rule="evenodd" d="M5.99967 2.00008C5.11562 2.00008 4.26777 2.35127 3.64265 2.97639C3.01753 3.60151 2.66634 4.44936 2.66634 5.33342V6.66675H1.33301V5.33342C1.33301 4.09574 1.82467 2.90875 2.69984 2.03358C3.57501 1.15841 4.762 0.666748 5.99967 0.666748H9.99968C11.2374 0.666748 12.4243 1.15841 13.2995 2.03358C14.1747 2.90875 14.6663 4.09574 14.6663 5.33342V6.66675H13.333V5.33342C13.333 4.44936 12.9818 3.60151 12.3567 2.97639C11.7316 2.35127 10.8837 2.00008 9.99968 2.00008H5.99967Z" fill="black" fill-opacity="0.2"/>
<path fill-rule="evenodd" clip-rule="evenodd" d="M5.99967 2.00008C5.11562 2.00008 4.26777 2.35127 3.64265 2.97639C3.01753 3.60151 2.66634 4.44936 2.66634 5.33342V6.66675H1.33301V5.33342C1.33301 4.09574 1.82467 2.90875 2.69984 2.03358C3.57501 1.15841 4.762 0.666748 5.99967 0.666748H9.99968C11.2374 0.666748 12.4243 1.15841 13.2995 2.03358C14.1747 2.90875 14.6663 4.09574 14.6663 5.33342V6.66675H13.333V5.33342C13.333 4.44936 12.9818 3.60151 12.3567 2.97639C11.7316 2.35127 10.8837 2.00008 9.99968 2.00008H5.99967Z" fill="black" fill-opacity="0.2"/>
<path fill-rule="evenodd" clip-rule="evenodd" d="M5.99967 2.00008C5.11562 2.00008 4.26777 2.35127 3.64265 2.97639C3.01753 3.60151 2.66634 4.44936 2.66634 5.33342V6.66675H1.33301V5.33342C1.33301 4.09574 1.82467 2.90875 2.69984 2.03358C3.57501 1.15841 4.762 0.666748 5.99967 0.666748H9.99968C11.2374 0.666748 12.4243 1.15841 13.2995 2.03358C14.1747 2.90875 14.6663 4.09574 14.6663 5.33342V6.66675H13.333V5.33342C13.333 4.44936 12.9818 3.60151 12.3567 2.97639C11.7316 2.35127 10.8837 2.00008 9.99968 2.00008H5.99967Z" fill="black" fill-opacity="0.2"/>
<path fill-rule="evenodd" clip-rule="evenodd" d="M5.99967 2.00008C5.11562 2.00008 4.26777 2.35127 3.64265 2.97639C3.01753 3.60151 2.66634 4.44936 2.66634 5.33342V6.66675H1.33301V5.33342C1.33301 4.09574 1.82467 2.90875 2.69984 2.03358C3.57501 1.15841 4.762 0.666748 5.99967 0.666748H9.99968C11.2374 0.666748 12.4243 1.15841 13.2995 2.03358C14.1747 2.90875 14.6663 4.09574 14.6663 5.33342V6.66675H13.333V5.33342C13.333 4.44936 12.9818 3.60151 12.3567 2.97639C11.7316 2.35127 10.8837 2.00008 9.99968 2.00008H5.99967Z" fill="black" fill-opacity="0.2"/>
<path fill-rule="evenodd" clip-rule="evenodd" d="M5.99967 2.00008C5.11562 2.00008 4.26777 2.35127 3.64265 2.97639C3.01753 3.60151 2.66634 4.44936 2.66634 5.33342V6.66675H1.33301V5.33342C1.33301 4.09574 1.82467 2.90875 2.69984 2.03358C3.57501 1.15841 4.762 0.666748 5.99967 0.666748H9.99968C11.2374 0.666748 12.4243 1.15841 13.2995 2.03358C14.1747 2.90875 14.6663 4.09574 14.6663 5.33342V6.66675H13.333V5.33342C13.333 4.44936 12.9818 3.60151 12.3567 2.97639C11.7316 2.35127 10.8837 2.00008 9.99968 2.00008H5.99967Z" fill="black" fill-opacity="0.2"/>
<path fill-rule="evenodd" clip-rule="evenodd" d="M5.99967 2.00008C5.11562 2.00008 4.26777 2.35127 3.64265 2.97639C3.01753 3.60151 2.66634 4.44936 2.66634 5.33342V6.66675H1.33301V5.33342C1.33301 4.09574 1.82467 2.90875 2.69984 2.03358C3.57501 1.15841 4.762 0.666748 5.99967 0.666748H9.99968C11.2374 0.666748 12.4243 1.15841 13.2995 2.03358C14.1747 2.90875 14.6663 4.09574 14.6663 5.33342V6.66675H13.333V5.33342C13.333 4.44936 12.9818 3.60151 12.3567 2.97639C11.7316 2.35127 10.8837 2.00008 9.99968 2.00008H5.99967Z" fill="black" fill-opacity="0.2"/>
<path fill-rule="evenodd" clip-rule="evenodd" d="M5.99967 2.00008C5.11562 2.00008 4.26777 2.35127 3.64265 2.97639C3.01753 3.60151 2.66634 4.44936 2.66634 5.33342V6.66675H1.33301V5.33342C1.33301 4.09574 1.82467 2.90875 2.69984 2.03358C3.57501 1.15841 4.762 0.666748 5.99967 0.666748H9.99968C11.2374 0.666748 12.4243 1.15841 13.2995 2.03358C14.1747 2.90875 14.6663 4.09574 14.6663 5.33342V6.66675H13.333V5.33342C13.333 4.44936 12.9818 3.60151 12.3567 2.97639C11.7316 2.35127 10.8837 2.00008 9.99968 2.00008H5.99967Z" fill="black" fill-opacity="0.2"/>
<path fill-rule="evenodd" clip-rule="evenodd" d="M5.99967 2.00008C5.11562 2.00008 4.26777 2.35127 3.64265 2.97639C3.01753 3.60151 2.66634 4.44936 2.66634 5.33342V6.66675H1.33301V5.33342C1.33301 4.09574 1.82467 2.90875 2.69984 2.03358C3.57501 1.15841 4.762 0.666748 5.99967 0.666748H9.99968C11.2374 0.666748 12.4243 1.15841 13.2995 2.03358C14.1747 2.90875 14.6663 4.09574 14.6663 5.33342V6.66675H13.333V5.33342C13.333 4.44936 12.9818 3.60151 12.3567 2.97639C11.7316 2.35127 10.8837 2.00008 9.99968 2.00008H5.99967Z" fill="black" fill-opacity="0.2"/>
<path fill-rule="evenodd" clip-rule="evenodd" d="M5.99967 2.00008C5.11562 2.00008 4.26777 2.35127 3.64265 2.97639C3.01753 3.60151 2.66634 4.44936 2.66634 5.33342V6.66675H1.33301V5.33342C1.33301 4.09574 1.82467 2.90875 2.69984 2.03358C3.57501 1.15841 4.762 0.666748 5.99967 0.666748H9.99968C11.2374 0.666748 12.4243 1.15841 13.2995 2.03358C14.1747 2.90875 14.6663 4.09574 14.6663 5.33342V6.66675H13.333V5.33342C13.333 4.44936 12.9818 3.60151 12.3567 2.97639C11.7316 2.35127 10.8837 2.00008 9.99968 2.00008H5.99967Z" fill="black" fill-opacity="0.2"/>
</g>
<g id="Vector_2">
<path fill-rule="evenodd" clip-rule="evenodd" d="M0.666504 8C0.666504 7.46957 0.877218 6.96086 1.25229 6.58579C1.62736 6.21071 2.13607 6 2.6665 6H3.99984C4.53027 6 5.03898 6.21071 5.41405 6.58579C5.78912 6.96086 5.99984 7.46957 5.99984 8V11.3333C5.99984 11.8638 5.78912 12.3725 5.41405 12.7475C5.03898 13.1226 4.53027 13.3333 3.99984 13.3333H2.6665C2.13607 13.3333 1.62736 13.1226 1.25229 12.7475C0.877218 12.3725 0.666504 11.8638 0.666504 11.3333V8ZM2.6665 7.33333C2.48969 7.33333 2.32012 7.40357 2.1951 7.5286C2.07008 7.65362 1.99984 7.82319 1.99984 8V11.3333C1.99984 11.5101 2.07008 11.6797 2.1951 11.8047C2.32012 11.9298 2.48969 12 2.6665 12H3.99984C4.17665 12 4.34622 11.9298 4.47124 11.8047C4.59627 11.6797 4.6665 11.5101 4.6665 11.3333V8C4.6665 7.82319 4.59627 7.65362 4.47124 7.5286C4.34622 7.40357 4.17665 7.33333 3.99984 7.33333H2.6665ZM9.99984 8C9.99984 7.46957 10.2106 6.96086 10.5856 6.58579C10.9607 6.21071 11.4694 6 11.9998 6H13.3332C13.8636 6 14.3723 6.21071 14.7474 6.58579C15.1225 6.96086 15.3332 7.46957 15.3332 8V11.3333C15.3332 11.8638 15.1225 12.3725 14.7474 12.7475C14.3723 13.1226 13.8636 13.3333 13.3332 13.3333H11.9998C11.4694 13.3333 10.9607 13.1226 10.5856 12.7475C10.2106 12.3725 9.99984 11.8638 9.99984 11.3333V8ZM11.9998 7.33333C11.823 7.33333 11.6535 7.40357 11.5284 7.5286C11.4034 7.65362 11.3332 7.82319 11.3332 8V11.3333C11.3332 11.5101 11.4034 11.6797 11.5284 11.8047C11.6535 11.9298 11.823 12 11.9998 12H13.3332C13.51 12 13.6796 11.9298 13.8046 11.8047C13.9296 11.6797 13.9998 11.5101 13.9998 11.3333V8C13.9998 7.82319 13.9296 7.65362 13.8046 7.5286C13.6796 7.40357 13.51 7.33333 13.3332 7.33333H11.9998Z" fill="#040D12"/>
<path fill-rule="evenodd" clip-rule="evenodd" d="M0.666504 8C0.666504 7.46957 0.877218 6.96086 1.25229 6.58579C1.62736 6.21071 2.13607 6 2.6665 6H3.99984C4.53027 6 5.03898 6.21071 5.41405 6.58579C5.78912 6.96086 5.99984 7.46957 5.99984 8V11.3333C5.99984 11.8638 5.78912 12.3725 5.41405 12.7475C5.03898 13.1226 4.53027 13.3333 3.99984 13.3333H2.6665C2.13607 13.3333 1.62736 13.1226 1.25229 12.7475C0.877218 12.3725 0.666504 11.8638 0.666504 11.3333V8ZM2.6665 7.33333C2.48969 7.33333 2.32012 7.40357 2.1951 7.5286C2.07008 7.65362 1.99984 7.82319 1.99984 8V11.3333C1.99984 11.5101 2.07008 11.6797 2.1951 11.8047C2.32012 11.9298 2.48969 12 2.6665 12H3.99984C4.17665 12 4.34622 11.9298 4.47124 11.8047C4.59627 11.6797 4.6665 11.5101 4.6665 11.3333V8C4.6665 7.82319 4.59627 7.65362 4.47124 7.5286C4.34622 7.40357 4.17665 7.33333 3.99984 7.33333H2.6665ZM9.99984 8C9.99984 7.46957 10.2106 6.96086 10.5856 6.58579C10.9607 6.21071 11.4694 6 11.9998 6H13.3332C13.8636 6 14.3723 6.21071 14.7474 6.58579C15.1225 6.96086 15.3332 7.46957 15.3332 8V11.3333C15.3332 11.8638 15.1225 12.3725 14.7474 12.7475C14.3723 13.1226 13.8636 13.3333 13.3332 13.3333H11.9998C11.4694 13.3333 10.9607 13.1226 10.5856 12.7475C10.2106 12.3725 9.99984 11.8638 9.99984 11.3333V8ZM11.9998 7.33333C11.823 7.33333 11.6535 7.40357 11.5284 7.5286C11.4034 7.65362 11.3332 7.82319 11.3332 8V11.3333C11.3332 11.5101 11.4034 11.6797 11.5284 11.8047C11.6535 11.9298 11.823 12 11.9998 12H13.3332C13.51 12 13.6796 11.9298 13.8046 11.8047C13.9296 11.6797 13.9998 11.5101 13.9998 11.3333V8C13.9998 7.82319 13.9296 7.65362 13.8046 7.5286C13.6796 7.40357 13.51 7.33333 13.3332 7.33333H11.9998Z" fill="black" fill-opacity="0.2"/>
<path fill-rule="evenodd" clip-rule="evenodd" d="M0.666504 8C0.666504 7.46957 0.877218 6.96086 1.25229 6.58579C1.62736 6.21071 2.13607 6 2.6665 6H3.99984C4.53027 6 5.03898 6.21071 5.41405 6.58579C5.78912 6.96086 5.99984 7.46957 5.99984 8V11.3333C5.99984 11.8638 5.78912 12.3725 5.41405 12.7475C5.03898 13.1226 4.53027 13.3333 3.99984 13.3333H2.6665C2.13607 13.3333 1.62736 13.1226 1.25229 12.7475C0.877218 12.3725 0.666504 11.8638 0.666504 11.3333V8ZM2.6665 7.33333C2.48969 7.33333 2.32012 7.40357 2.1951 7.5286C2.07008 7.65362 1.99984 7.82319 1.99984 8V11.3333C1.99984 11.5101 2.07008 11.6797 2.1951 11.8047C2.32012 11.9298 2.48969 12 2.6665 12H3.99984C4.17665 12 4.34622 11.9298 4.47124 11.8047C4.59627 11.6797 4.6665 11.5101 4.6665 11.3333V8C4.6665 7.82319 4.59627 7.65362 4.47124 7.5286C4.34622 7.40357 4.17665 7.33333 3.99984 7.33333H2.6665ZM9.99984 8C9.99984 7.46957 10.2106 6.96086 10.5856 6.58579C10.9607 6.21071 11.4694 6 11.9998 6H13.3332C13.8636 6 14.3723 6.21071 14.7474 6.58579C15.1225 6.96086 15.3332 7.46957 15.3332 8V11.3333C15.3332 11.8638 15.1225 12.3725 14.7474 12.7475C14.3723 13.1226 13.8636 13.3333 13.3332 13.3333H11.9998C11.4694 13.3333 10.9607 13.1226 10.5856 12.7475C10.2106 12.3725 9.99984 11.8638 9.99984 11.3333V8ZM11.9998 7.33333C11.823 7.33333 11.6535 7.40357 11.5284 7.5286C11.4034 7.65362 11.3332 7.82319 11.3332 8V11.3333C11.3332 11.5101 11.4034 11.6797 11.5284 11.8047C11.6535 11.9298 11.823 12 11.9998 12H13.3332C13.51 12 13.6796 11.9298 13.8046 11.8047C13.9296 11.6797 13.9998 11.5101 13.9998 11.3333V8C13.9998 7.82319 13.9296 7.65362 13.8046 7.5286C13.6796 7.40357 13.51 7.33333 13.3332 7.33333H11.9998Z" fill="black" fill-opacity="0.2"/>
<path fill-rule="evenodd" clip-rule="evenodd" d="M0.666504 8C0.666504 7.46957 0.877218 6.96086 1.25229 6.58579C1.62736 6.21071 2.13607 6 2.6665 6H3.99984C4.53027 6 5.03898 6.21071 5.41405 6.58579C5.78912 6.96086 5.99984 7.46957 5.99984 8V11.3333C5.99984 11.8638 5.78912 12.3725 5.41405 12.7475C5.03898 13.1226 4.53027 13.3333 3.99984 13.3333H2.6665C2.13607 13.3333 1.62736 13.1226 1.25229 12.7475C0.877218 12.3725 0.666504 11.8638 0.666504 11.3333V8ZM2.6665 7.33333C2.48969 7.33333 2.32012 7.40357 2.1951 7.5286C2.07008 7.65362 1.99984 7.82319 1.99984 8V11.3333C1.99984 11.5101 2.07008 11.6797 2.1951 11.8047C2.32012 11.9298 2.48969 12 2.6665 12H3.99984C4.17665 12 4.34622 11.9298 4.47124 11.8047C4.59627 11.6797 4.6665 11.5101 4.6665 11.3333V8C4.6665 7.82319 4.59627 7.65362 4.47124 7.5286C4.34622 7.40357 4.17665 7.33333 3.99984 7.33333H2.6665ZM9.99984 8C9.99984 7.46957 10.2106 6.96086 10.5856 6.58579C10.9607 6.21071 11.4694 6 11.9998 6H13.3332C13.8636 6 14.3723 6.21071 14.7474 6.58579C15.1225 6.96086 15.3332 7.46957 15.3332 8V11.3333C15.3332 11.8638 15.1225 12.3725 14.7474 12.7475C14.3723 13.1226 13.8636 13.3333 13.3332 13.3333H11.9998C11.4694 13.3333 10.9607 13.1226 10.5856 12.7475C10.2106 12.3725 9.99984 11.8638 9.99984 11.3333V8ZM11.9998 7.33333C11.823 7.33333 11.6535 7.40357 11.5284 7.5286C11.4034 7.65362 11.3332 7.82319 11.3332 8V11.3333C11.3332 11.5101 11.4034 11.6797 11.5284 11.8047C11.6535 11.9298 11.823 12 11.9998 12H13.3332C13.51 12 13.6796 11.9298 13.8046 11.8047C13.9296 11.6797 13.9998 11.5101 13.9998 11.3333V8C13.9998 7.82319 13.9296 7.65362 13.8046 7.5286C13.6796 7.40357 13.51 7.33333 13.3332 7.33333H11.9998Z" fill="black" fill-opacity="0.2"/>
<path fill-rule="evenodd" clip-rule="evenodd" d="M0.666504 8C0.666504 7.46957 0.877218 6.96086 1.25229 6.58579C1.62736 6.21071 2.13607 6 2.6665 6H3.99984C4.53027 6 5.03898 6.21071 5.41405 6.58579C5.78912 6.96086 5.99984 7.46957 5.99984 8V11.3333C5.99984 11.8638 5.78912 12.3725 5.41405 12.7475C5.03898 13.1226 4.53027 13.3333 3.99984 13.3333H2.6665C2.13607 13.3333 1.62736 13.1226 1.25229 12.7475C0.877218 12.3725 0.666504 11.8638 0.666504 11.3333V8ZM2.6665 7.33333C2.48969 7.33333 2.32012 7.40357 2.1951 7.5286C2.07008 7.65362 1.99984 7.82319 1.99984 8V11.3333C1.99984 11.5101 2.07008 11.6797 2.1951 11.8047C2.32012 11.9298 2.48969 12 2.6665 12H3.99984C4.17665 12 4.34622 11.9298 4.47124 11.8047C4.59627 11.6797 4.6665 11.5101 4.6665 11.3333V8C4.6665 7.82319 4.59627 7.65362 4.47124 7.5286C4.34622 7.40357 4.17665 7.33333 3.99984 7.33333H2.6665ZM9.99984 8C9.99984 7.46957 10.2106 6.96086 10.5856 6.58579C10.9607 6.21071 11.4694 6 11.9998 6H13.3332C13.8636 6 14.3723 6.21071 14.7474 6.58579C15.1225 6.96086 15.3332 7.46957 15.3332 8V11.3333C15.3332 11.8638 15.1225 12.3725 14.7474 12.7475C14.3723 13.1226 13.8636 13.3333 13.3332 13.3333H11.9998C11.4694 13.3333 10.9607 13.1226 10.5856 12.7475C10.2106 12.3725 9.99984 11.8638 9.99984 11.3333V8ZM11.9998 7.33333C11.823 7.33333 11.6535 7.40357 11.5284 7.5286C11.4034 7.65362 11.3332 7.82319 11.3332 8V11.3333C11.3332 11.5101 11.4034 11.6797 11.5284 11.8047C11.6535 11.9298 11.823 12 11.9998 12H13.3332C13.51 12 13.6796 11.9298 13.8046 11.8047C13.9296 11.6797 13.9998 11.5101 13.9998 11.3333V8C13.9998 7.82319 13.9296 7.65362 13.8046 7.5286C13.6796 7.40357 13.51 7.33333 13.3332 7.33333H11.9998Z" fill="black" fill-opacity="0.2"/>
<path fill-rule="evenodd" clip-rule="evenodd" d="M0.666504 8C0.666504 7.46957 0.877218 6.96086 1.25229 6.58579C1.62736 6.21071 2.13607 6 2.6665 6H3.99984C4.53027 6 5.03898 6.21071 5.41405 6.58579C5.78912 6.96086 5.99984 7.46957 5.99984 8V11.3333C5.99984 11.8638 5.78912 12.3725 5.41405 12.7475C5.03898 13.1226 4.53027 13.3333 3.99984 13.3333H2.6665C2.13607 13.3333 1.62736 13.1226 1.25229 12.7475C0.877218 12.3725 0.666504 11.8638 0.666504 11.3333V8ZM2.6665 7.33333C2.48969 7.33333 2.32012 7.40357 2.1951 7.5286C2.07008 7.65362 1.99984 7.82319 1.99984 8V11.3333C1.99984 11.5101 2.07008 11.6797 2.1951 11.8047C2.32012 11.9298 2.48969 12 2.6665 12H3.99984C4.17665 12 4.34622 11.9298 4.47124 11.8047C4.59627 11.6797 4.6665 11.5101 4.6665 11.3333V8C4.6665 7.82319 4.59627 7.65362 4.47124 7.5286C4.34622 7.40357 4.17665 7.33333 3.99984 7.33333H2.6665ZM9.99984 8C9.99984 7.46957 10.2106 6.96086 10.5856 6.58579C10.9607 6.21071 11.4694 6 11.9998 6H13.3332C13.8636 6 14.3723 6.21071 14.7474 6.58579C15.1225 6.96086 15.3332 7.46957 15.3332 8V11.3333C15.3332 11.8638 15.1225 12.3725 14.7474 12.7475C14.3723 13.1226 13.8636 13.3333 13.3332 13.3333H11.9998C11.4694 13.3333 10.9607 13.1226 10.5856 12.7475C10.2106 12.3725 9.99984 11.8638 9.99984 11.3333V8ZM11.9998 7.33333C11.823 7.33333 11.6535 7.40357 11.5284 7.5286C11.4034 7.65362 11.3332 7.82319 11.3332 8V11.3333C11.3332 11.5101 11.4034 11.6797 11.5284 11.8047C11.6535 11.9298 11.823 12 11.9998 12H13.3332C13.51 12 13.6796 11.9298 13.8046 11.8047C13.9296 11.6797 13.9998 11.5101 13.9998 11.3333V8C13.9998 7.82319 13.9296 7.65362 13.8046 7.5286C13.6796 7.40357 13.51 7.33333 13.3332 7.33333H11.9998Z" fill="black" fill-opacity="0.2"/>
<path fill-rule="evenodd" clip-rule="evenodd" d="M0.666504 8C0.666504 7.46957 0.877218 6.96086 1.25229 6.58579C1.62736 6.21071 2.13607 6 2.6665 6H3.99984C4.53027 6 5.03898 6.21071 5.41405 6.58579C5.78912 6.96086 5.99984 7.46957 5.99984 8V11.3333C5.99984 11.8638 5.78912 12.3725 5.41405 12.7475C5.03898 13.1226 4.53027 13.3333 3.99984 13.3333H2.6665C2.13607 13.3333 1.62736 13.1226 1.25229 12.7475C0.877218 12.3725 0.666504 11.8638 0.666504 11.3333V8ZM2.6665 7.33333C2.48969 7.33333 2.32012 7.40357 2.1951 7.5286C2.07008 7.65362 1.99984 7.82319 1.99984 8V11.3333C1.99984 11.5101 2.07008 11.6797 2.1951 11.8047C2.32012 11.9298 2.48969 12 2.6665 12H3.99984C4.17665 12 4.34622 11.9298 4.47124 11.8047C4.59627 11.6797 4.6665 11.5101 4.6665 11.3333V8C4.6665 7.82319 4.59627 7.65362 4.47124 7.5286C4.34622 7.40357 4.17665 7.33333 3.99984 7.33333H2.6665ZM9.99984 8C9.99984 7.46957 10.2106 6.96086 10.5856 6.58579C10.9607 6.21071 11.4694 6 11.9998 6H13.3332C13.8636 6 14.3723 6.21071 14.7474 6.58579C15.1225 6.96086 15.3332 7.46957 15.3332 8V11.3333C15.3332 11.8638 15.1225 12.3725 14.7474 12.7475C14.3723 13.1226 13.8636 13.3333 13.3332 13.3333H11.9998C11.4694 13.3333 10.9607 13.1226 10.5856 12.7475C10.2106 12.3725 9.99984 11.8638 9.99984 11.3333V8ZM11.9998 7.33333C11.823 7.33333 11.6535 7.40357 11.5284 7.5286C11.4034 7.65362 11.3332 7.82319 11.3332 8V11.3333C11.3332 11.5101 11.4034 11.6797 11.5284 11.8047C11.6535 11.9298 11.823 12 11.9998 12H13.3332C13.51 12 13.6796 11.9298 13.8046 11.8047C13.9296 11.6797 13.9998 11.5101 13.9998 11.3333V8C13.9998 7.82319 13.9296 7.65362 13.8046 7.5286C13.6796 7.40357 13.51 7.33333 13.3332 7.33333H11.9998Z" fill="black" fill-opacity="0.2"/>
<path fill-rule="evenodd" clip-rule="evenodd" d="M0.666504 8C0.666504 7.46957 0.877218 6.96086 1.25229 6.58579C1.62736 6.21071 2.13607 6 2.6665 6H3.99984C4.53027 6 5.03898 6.21071 5.41405 6.58579C5.78912 6.96086 5.99984 7.46957 5.99984 8V11.3333C5.99984 11.8638 5.78912 12.3725 5.41405 12.7475C5.03898 13.1226 4.53027 13.3333 3.99984 13.3333H2.6665C2.13607 13.3333 1.62736 13.1226 1.25229 12.7475C0.877218 12.3725 0.666504 11.8638 0.666504 11.3333V8ZM2.6665 7.33333C2.48969 7.33333 2.32012 7.40357 2.1951 7.5286C2.07008 7.65362 1.99984 7.82319 1.99984 8V11.3333C1.99984 11.5101 2.07008 11.6797 2.1951 11.8047C2.32012 11.9298 2.48969 12 2.6665 12H3.99984C4.17665 12 4.34622 11.9298 4.47124 11.8047C4.59627 11.6797 4.6665 11.5101 4.6665 11.3333V8C4.6665 7.82319 4.59627 7.65362 4.47124 7.5286C4.34622 7.40357 4.17665 7.33333 3.99984 7.33333H2.6665ZM9.99984 8C9.99984 7.46957 10.2106 6.96086 10.5856 6.58579C10.9607 6.21071 11.4694 6 11.9998 6H13.3332C13.8636 6 14.3723 6.21071 14.7474 6.58579C15.1225 6.96086 15.3332 7.46957 15.3332 8V11.3333C15.3332 11.8638 15.1225 12.3725 14.7474 12.7475C14.3723 13.1226 13.8636 13.3333 13.3332 13.3333H11.9998C11.4694 13.3333 10.9607 13.1226 10.5856 12.7475C10.2106 12.3725 9.99984 11.8638 9.99984 11.3333V8ZM11.9998 7.33333C11.823 7.33333 11.6535 7.40357 11.5284 7.5286C11.4034 7.65362 11.3332 7.82319 11.3332 8V11.3333C11.3332 11.5101 11.4034 11.6797 11.5284 11.8047C11.6535 11.9298 11.823 12 11.9998 12H13.3332C13.51 12 13.6796 11.9298 13.8046 11.8047C13.9296 11.6797 13.9998 11.5101 13.9998 11.3333V8C13.9998 7.82319 13.9296 7.65362 13.8046 7.5286C13.6796 7.40357 13.51 7.33333 13.3332 7.33333H11.9998Z" fill="black" fill-opacity="0.2"/>
<path fill-rule="evenodd" clip-rule="evenodd" d="M0.666504 8C0.666504 7.46957 0.877218 6.96086 1.25229 6.58579C1.62736 6.21071 2.13607 6 2.6665 6H3.99984C4.53027 6 5.03898 6.21071 5.41405 6.58579C5.78912 6.96086 5.99984 7.46957 5.99984 8V11.3333C5.99984 11.8638 5.78912 12.3725 5.41405 12.7475C5.03898 13.1226 4.53027 13.3333 3.99984 13.3333H2.6665C2.13607 13.3333 1.62736 13.1226 1.25229 12.7475C0.877218 12.3725 0.666504 11.8638 0.666504 11.3333V8ZM2.6665 7.33333C2.48969 7.33333 2.32012 7.40357 2.1951 7.5286C2.07008 7.65362 1.99984 7.82319 1.99984 8V11.3333C1.99984 11.5101 2.07008 11.6797 2.1951 11.8047C2.32012 11.9298 2.48969 12 2.6665 12H3.99984C4.17665 12 4.34622 11.9298 4.47124 11.8047C4.59627 11.6797 4.6665 11.5101 4.6665 11.3333V8C4.6665 7.82319 4.59627 7.65362 4.47124 7.5286C4.34622 7.40357 4.17665 7.33333 3.99984 7.33333H2.6665ZM9.99984 8C9.99984 7.46957 10.2106 6.96086 10.5856 6.58579C10.9607 6.21071 11.4694 6 11.9998 6H13.3332C13.8636 6 14.3723 6.21071 14.7474 6.58579C15.1225 6.96086 15.3332 7.46957 15.3332 8V11.3333C15.3332 11.8638 15.1225 12.3725 14.7474 12.7475C14.3723 13.1226 13.8636 13.3333 13.3332 13.3333H11.9998C11.4694 13.3333 10.9607 13.1226 10.5856 12.7475C10.2106 12.3725 9.99984 11.8638 9.99984 11.3333V8ZM11.9998 7.33333C11.823 7.33333 11.6535 7.40357 11.5284 7.5286C11.4034 7.65362 11.3332 7.82319 11.3332 8V11.3333C11.3332 11.5101 11.4034 11.6797 11.5284 11.8047C11.6535 11.9298 11.823 12 11.9998 12H13.3332C13.51 12 13.6796 11.9298 13.8046 11.8047C13.9296 11.6797 13.9998 11.5101 13.9998 11.3333V8C13.9998 7.82319 13.9296 7.65362 13.8046 7.5286C13.6796 7.40357 13.51 7.33333 13.3332 7.33333H11.9998Z" fill="black" fill-opacity="0.2"/>
<path fill-rule="evenodd" clip-rule="evenodd" d="M0.666504 8C0.666504 7.46957 0.877218 6.96086 1.25229 6.58579C1.62736 6.21071 2.13607 6 2.6665 6H3.99984C4.53027 6 5.03898 6.21071 5.41405 6.58579C5.78912 6.96086 5.99984 7.46957 5.99984 8V11.3333C5.99984 11.8638 5.78912 12.3725 5.41405 12.7475C5.03898 13.1226 4.53027 13.3333 3.99984 13.3333H2.6665C2.13607 13.3333 1.62736 13.1226 1.25229 12.7475C0.877218 12.3725 0.666504 11.8638 0.666504 11.3333V8ZM2.6665 7.33333C2.48969 7.33333 2.32012 7.40357 2.1951 7.5286C2.07008 7.65362 1.99984 7.82319 1.99984 8V11.3333C1.99984 11.5101 2.07008 11.6797 2.1951 11.8047C2.32012 11.9298 2.48969 12 2.6665 12H3.99984C4.17665 12 4.34622 11.9298 4.47124 11.8047C4.59627 11.6797 4.6665 11.5101 4.6665 11.3333V8C4.6665 7.82319 4.59627 7.65362 4.47124 7.5286C4.34622 7.40357 4.17665 7.33333 3.99984 7.33333H2.6665ZM9.99984 8C9.99984 7.46957 10.2106 6.96086 10.5856 6.58579C10.9607 6.21071 11.4694 6 11.9998 6H13.3332C13.8636 6 14.3723 6.21071 14.7474 6.58579C15.1225 6.96086 15.3332 7.46957 15.3332 8V11.3333C15.3332 11.8638 15.1225 12.3725 14.7474 12.7475C14.3723 13.1226 13.8636 13.3333 13.3332 13.3333H11.9998C11.4694 13.3333 10.9607 13.1226 10.5856 12.7475C10.2106 12.3725 9.99984 11.8638 9.99984 11.3333V8ZM11.9998 7.33333C11.823 7.33333 11.6535 7.40357 11.5284 7.5286C11.4034 7.65362 11.3332 7.82319 11.3332 8V11.3333C11.3332 11.5101 11.4034 11.6797 11.5284 11.8047C11.6535 11.9298 11.823 12 11.9998 12H13.3332C13.51 12 13.6796 11.9298 13.8046 11.8047C13.9296 11.6797 13.9998 11.5101 13.9998 11.3333V8C13.9998 7.82319 13.9296 7.65362 13.8046 7.5286C13.6796 7.40357 13.51 7.33333 13.3332 7.33333H11.9998Z" fill="black" fill-opacity="0.2"/>
<path fill-rule="evenodd" clip-rule="evenodd" d="M0.666504 8C0.666504 7.46957 0.877218 6.96086 1.25229 6.58579C1.62736 6.21071 2.13607 6 2.6665 6H3.99984C4.53027 6 5.03898 6.21071 5.41405 6.58579C5.78912 6.96086 5.99984 7.46957 5.99984 8V11.3333C5.99984 11.8638 5.78912 12.3725 5.41405 12.7475C5.03898 13.1226 4.53027 13.3333 3.99984 13.3333H2.6665C2.13607 13.3333 1.62736 13.1226 1.25229 12.7475C0.877218 12.3725 0.666504 11.8638 0.666504 11.3333V8ZM2.6665 7.33333C2.48969 7.33333 2.32012 7.40357 2.1951 7.5286C2.07008 7.65362 1.99984 7.82319 1.99984 8V11.3333C1.99984 11.5101 2.07008 11.6797 2.1951 11.8047C2.32012 11.9298 2.48969 12 2.6665 12H3.99984C4.17665 12 4.34622 11.9298 4.47124 11.8047C4.59627 11.6797 4.6665 11.5101 4.6665 11.3333V8C4.6665 7.82319 4.59627 7.65362 4.47124 7.5286C4.34622 7.40357 4.17665 7.33333 3.99984 7.33333H2.6665ZM9.99984 8C9.99984 7.46957 10.2106 6.96086 10.5856 6.58579C10.9607 6.21071 11.4694 6 11.9998 6H13.3332C13.8636 6 14.3723 6.21071 14.7474 6.58579C15.1225 6.96086 15.3332 7.46957 15.3332 8V11.3333C15.3332 11.8638 15.1225 12.3725 14.7474 12.7475C14.3723 13.1226 13.8636 13.3333 13.3332 13.3333H11.9998C11.4694 13.3333 10.9607 13.1226 10.5856 12.7475C10.2106 12.3725 9.99984 11.8638 9.99984 11.3333V8ZM11.9998 7.33333C11.823 7.33333 11.6535 7.40357 11.5284 7.5286C11.4034 7.65362 11.3332 7.82319 11.3332 8V11.3333C11.3332 11.5101 11.4034 11.6797 11.5284 11.8047C11.6535 11.9298 11.823 12 11.9998 12H13.3332C13.51 12 13.6796 11.9298 13.8046 11.8047C13.9296 11.6797 13.9998 11.5101 13.9998 11.3333V8C13.9998 7.82319 13.9296 7.65362 13.8046 7.5286C13.6796 7.40357 13.51 7.33333 13.3332 7.33333H11.9998Z" fill="black" fill-opacity="0.2"/>
<path fill-rule="evenodd" clip-rule="evenodd" d="M0.666504 8C0.666504 7.46957 0.877218 6.96086 1.25229 6.58579C1.62736 6.21071 2.13607 6 2.6665 6H3.99984C4.53027 6 5.03898 6.21071 5.41405 6.58579C5.78912 6.96086 5.99984 7.46957 5.99984 8V11.3333C5.99984 11.8638 5.78912 12.3725 5.41405 12.7475C5.03898 13.1226 4.53027 13.3333 3.99984 13.3333H2.6665C2.13607 13.3333 1.62736 13.1226 1.25229 12.7475C0.877218 12.3725 0.666504 11.8638 0.666504 11.3333V8ZM2.6665 7.33333C2.48969 7.33333 2.32012 7.40357 2.1951 7.5286C2.07008 7.65362 1.99984 7.82319 1.99984 8V11.3333C1.99984 11.5101 2.07008 11.6797 2.1951 11.8047C2.32012 11.9298 2.48969 12 2.6665 12H3.99984C4.17665 12 4.34622 11.9298 4.47124 11.8047C4.59627 11.6797 4.6665 11.5101 4.6665 11.3333V8C4.6665 7.82319 4.59627 7.65362 4.47124 7.5286C4.34622 7.40357 4.17665 7.33333 3.99984 7.33333H2.6665ZM9.99984 8C9.99984 7.46957 10.2106 6.96086 10.5856 6.58579C10.9607 6.21071 11.4694 6 11.9998 6H13.3332C13.8636 6 14.3723 6.21071 14.7474 6.58579C15.1225 6.96086 15.3332 7.46957 15.3332 8V11.3333C15.3332 11.8638 15.1225 12.3725 14.7474 12.7475C14.3723 13.1226 13.8636 13.3333 13.3332 13.3333H11.9998C11.4694 13.3333 10.9607 13.1226 10.5856 12.7475C10.2106 12.3725 9.99984 11.8638 9.99984 11.3333V8ZM11.9998 7.33333C11.823 7.33333 11.6535 7.40357 11.5284 7.5286C11.4034 7.65362 11.3332 7.82319 11.3332 8V11.3333C11.3332 11.5101 11.4034 11.6797 11.5284 11.8047C11.6535 11.9298 11.823 12 11.9998 12H13.3332C13.51 12 13.6796 11.9298 13.8046 11.8047C13.9296 11.6797 13.9998 11.5101 13.9998 11.3333V8C13.9998 7.82319 13.9296 7.65362 13.8046 7.5286C13.6796 7.40357 13.51 7.33333 13.3332 7.33333H11.9998Z" fill="black" fill-opacity="0.2"/>
</g>
<g id="Vector_3">
<path fill-rule="evenodd" clip-rule="evenodd" d="M13.9998 12.6667V14.0001C13.9998 14.3537 13.8594 14.6928 13.6093 14.9429C13.3593 15.1929 13.0201 15.3334 12.6665 15.3334H6.6665V14.0001H12.6665V12.6667H13.9998Z" fill="#040D12"/>
<path fill-rule="evenodd" clip-rule="evenodd" d="M13.9998 12.6667V14.0001C13.9998 14.3537 13.8594 14.6928 13.6093 14.9429C13.3593 15.1929 13.0201 15.3334 12.6665 15.3334H6.6665V14.0001H12.6665V12.6667H13.9998Z" fill="black" fill-opacity="0.2"/>
<path fill-rule="evenodd" clip-rule="evenodd" d="M13.9998 12.6667V14.0001C13.9998 14.3537 13.8594 14.6928 13.6093 14.9429C13.3593 15.1929 13.0201 15.3334 12.6665 15.3334H6.6665V14.0001H12.6665V12.6667H13.9998Z" fill="black" fill-opacity="0.2"/>
<path fill-rule="evenodd" clip-rule="evenodd" d="M13.9998 12.6667V14.0001C13.9998 14.3537 13.8594 14.6928 13.6093 14.9429C13.3593 15.1929 13.0201 15.3334 12.6665 15.3334H6.6665V14.0001H12.6665V12.6667H13.9998Z" fill="black" fill-opacity="0.2"/>
<path fill-rule="evenodd" clip-rule="evenodd" d="M13.9998 12.6667V14.0001C13.9998 14.3537 13.8594 14.6928 13.6093 14.9429C13.3593 15.1929 13.0201 15.3334 12.6665 15.3334H6.6665V14.0001H12.6665V12.6667H13.9998Z" fill="black" fill-opacity="0.2"/>
<path fill-rule="evenodd" clip-rule="evenodd" d="M13.9998 12.6667V14.0001C13.9998 14.3537 13.8594 14.6928 13.6093 14.9429C13.3593 15.1929 13.0201 15.3334 12.6665 15.3334H6.6665V14.0001H12.6665V12.6667H13.9998Z" fill="black" fill-opacity="0.2"/>
<path fill-rule="evenodd" clip-rule="evenodd" d="M13.9998 12.6667V14.0001C13.9998 14.3537 13.8594 14.6928 13.6093 14.9429C13.3593 15.1929 13.0201 15.3334 12.6665 15.3334H6.6665V14.0001H12.6665V12.6667H13.9998Z" fill="black" fill-opacity="0.2"/>
<path fill-rule="evenodd" clip-rule="evenodd" d="M13.9998 12.6667V14.0001C13.9998 14.3537 13.8594 14.6928 13.6093 14.9429C13.3593 15.1929 13.0201 15.3334 12.6665 15.3334H6.6665V14.0001H12.6665V12.6667H13.9998Z" fill="black" fill-opacity="0.2"/>
<path fill-rule="evenodd" clip-rule="evenodd" d="M13.9998 12.6667V14.0001C13.9998 14.3537 13.8594 14.6928 13.6093 14.9429C13.3593 15.1929 13.0201 15.3334 12.6665 15.3334H6.6665V14.0001H12.6665V12.6667H13.9998Z" fill="black" fill-opacity="0.2"/>
<path fill-rule="evenodd" clip-rule="evenodd" d="M13.9998 12.6667V14.0001C13.9998 14.3537 13.8594 14.6928 13.6093 14.9429C13.3593 15.1929 13.0201 15.3334 12.6665 15.3334H6.6665V14.0001H12.6665V12.6667H13.9998Z" fill="black" fill-opacity="0.2"/>
<path fill-rule="evenodd" clip-rule="evenodd" d="M13.9998 12.6667V14.0001C13.9998 14.3537 13.8594 14.6928 13.6093 14.9429C13.3593 15.1929 13.0201 15.3334 12.6665 15.3334H6.6665V14.0001H12.6665V12.6667H13.9998Z" fill="black" fill-opacity="0.2"/>
<path fill-rule="evenodd" clip-rule="evenodd" d="M13.9998 12.6667V14.0001C13.9998 14.3537 13.8594 14.6928 13.6093 14.9429C13.3593 15.1929 13.0201 15.3334 12.6665 15.3334H6.6665V14.0001H12.6665V12.6667H13.9998Z" fill="black" fill-opacity="0.2"/>
</g>
</g>
</g>
</svg>
