<svg width="512" height="512" viewBox="0 0 512 512" fill="none" xmlns="http://www.w3.org/2000/svg">
<path d="M370.08 64.16H151.52C150.56 64.16 149.6 64.32 148.64 64.48C148.48 64.32 148.48 64.32 148.32 64.48C146.88 64.16 145.28 64.16 143.68 64.16C117.44 64.16 96 85.44 96 111.84V256C96 264.8 103.2 271.84 112 272L160 272.16V413.44C160 423.84 165.76 433.12 175.04 437.92C184.32 442.56 195.2 441.6 203.52 435.36L238.56 409.6L268.8 439.68C274.08 444.96 281.12 447.52 288 447.52C295.04 447.52 301.92 444.96 307.2 439.68L337.6 409.44L372.48 435.36C376.547 438.337 381.358 440.133 386.382 440.549C391.405 440.965 396.446 439.986 400.948 437.718C405.45 435.451 409.238 431.984 411.894 427.699C414.55 423.415 415.971 418.481 416 413.44V110.08C416 97.9013 411.162 86.2213 402.55 77.6097C393.939 68.998 382.259 64.16 370.08 64.16ZM128 240V111.84C128 103.2 135.04 96.16 144.32 96.16C152.96 96.16 160 103.2 160 111.84V240H128ZM384 404L353.28 381.28C342.4 373.28 327.52 374.4 317.92 384L288 413.6L258.24 384C253.634 379.344 247.494 376.518 240.961 376.047C234.428 375.576 227.946 377.492 222.72 381.44L192 404.16V96.16H370.08C377.76 96.16 384 102.4 384 110.08V404Z" fill="black"/>
<path d="M288.64 256.096H241.056C236.813 256.096 232.743 254.41 229.742 251.41C226.742 248.409 225.056 244.339 225.056 240.096C225.056 235.853 226.742 231.783 229.742 228.782C232.743 225.782 236.813 224.096 241.056 224.096H288.624C292.868 224.096 296.937 225.782 299.938 228.782C302.938 231.783 304.624 235.853 304.624 240.096C304.624 244.339 302.938 248.409 299.938 251.41C296.937 254.41 292.868 256.096 288.624 256.096H288.64ZM336.64 160.096H241.056C236.813 160.096 232.743 158.41 229.742 155.41C226.742 152.409 225.056 148.339 225.056 144.096C225.056 139.853 226.742 135.783 229.742 132.782C232.743 129.782 236.813 128.096 241.056 128.096H336.624C340.868 128.096 344.937 129.782 347.938 132.782C350.938 135.783 352.624 139.853 352.624 144.096C352.624 148.339 350.938 152.409 347.938 155.41C344.937 158.41 340.868 160.096 336.624 160.096H336.64ZM336.64 208.096H241.056C236.813 208.096 232.743 206.41 229.742 203.41C226.742 200.409 225.056 196.339 225.056 192.096C225.056 187.853 226.742 183.783 229.742 180.782C232.743 177.782 236.813 176.096 241.056 176.096H336.624C340.868 176.096 344.937 177.782 347.938 180.782C350.938 183.783 352.624 187.853 352.624 192.096C352.624 196.339 350.938 200.409 347.938 203.41C344.937 206.41 340.868 208.096 336.624 208.096H336.64Z" fill="black"/>
</svg>
