<svg width="17" height="15" viewBox="0 0 17 15" fill="none" xmlns="http://www.w3.org/2000/svg">
<g id="Group">
<g id="Vector">
<path d="M16.265 2.35689C15.7887 1.60163 15.0911 1.01159 14.2674 0.667179C13.3339 0.275382 12.2856 0.204859 11.2356 0.463744C10.2734 0.701013 9.33626 1.21563 8.49997 1.96217C7.66362 1.21556 6.72633 0.700914 5.76403 0.463677C4.71405 0.204693 3.6656 0.275283 2.73219 0.667345C1.90839 1.01186 1.21086 1.60202 0.734656 2.35738C0.235945 3.14576 -0.01776 4.1045 0.000966544 5.12985C0.0841072 9.68814 6.87421 13.8331 8.23454 14.6178C8.31526 14.6644 8.4068 14.6889 8.49999 14.6889C8.59317 14.6889 8.68471 14.6644 8.76543 14.6178C10.1259 13.833 16.9166 9.68731 16.999 5.12905C17.0175 4.10377 16.7637 3.14513 16.265 2.35689ZM15.9367 5.10996C15.9101 6.58378 14.9277 8.30207 13.0957 10.079C11.3992 11.7245 9.4695 12.9647 8.49997 13.5418C7.53044 12.9648 5.60101 11.7247 3.90466 10.0792C2.07264 8.3024 1.09016 6.58424 1.06327 5.11046C1.03392 3.5012 1.81163 2.20644 3.14364 1.64694C3.58019 1.4646 4.04885 1.37159 4.52194 1.37341C5.74365 1.37341 7.03598 1.96482 8.12116 3.0683C8.1706 3.11857 8.22955 3.15849 8.29458 3.18575C8.35961 3.213 8.42941 3.22704 8.49992 3.22704C8.57043 3.22704 8.64023 3.213 8.70526 3.18575C8.77029 3.15849 8.82924 3.11857 8.87868 3.0683C10.3863 1.53531 12.2936 0.990677 13.8558 1.64684C15.188 2.20614 15.9658 3.5007 15.9367 5.10986V5.10996Z" fill="#040D12"/>
<path d="M16.265 2.35689C15.7887 1.60163 15.0911 1.01159 14.2674 0.667179C13.3339 0.275382 12.2856 0.204859 11.2356 0.463744C10.2734 0.701013 9.33626 1.21563 8.49997 1.96217C7.66362 1.21556 6.72633 0.700914 5.76403 0.463677C4.71405 0.204693 3.6656 0.275283 2.73219 0.667345C1.90839 1.01186 1.21086 1.60202 0.734656 2.35738C0.235945 3.14576 -0.01776 4.1045 0.000966544 5.12985C0.0841072 9.68814 6.87421 13.8331 8.23454 14.6178C8.31526 14.6644 8.4068 14.6889 8.49999 14.6889C8.59317 14.6889 8.68471 14.6644 8.76543 14.6178C10.1259 13.833 16.9166 9.68731 16.999 5.12905C17.0175 4.10377 16.7637 3.14513 16.265 2.35689ZM15.9367 5.10996C15.9101 6.58378 14.9277 8.30207 13.0957 10.079C11.3992 11.7245 9.4695 12.9647 8.49997 13.5418C7.53044 12.9648 5.60101 11.7247 3.90466 10.0792C2.07264 8.3024 1.09016 6.58424 1.06327 5.11046C1.03392 3.5012 1.81163 2.20644 3.14364 1.64694C3.58019 1.4646 4.04885 1.37159 4.52194 1.37341C5.74365 1.37341 7.03598 1.96482 8.12116 3.0683C8.1706 3.11857 8.22955 3.15849 8.29458 3.18575C8.35961 3.213 8.42941 3.22704 8.49992 3.22704C8.57043 3.22704 8.64023 3.213 8.70526 3.18575C8.77029 3.15849 8.82924 3.11857 8.87868 3.0683C10.3863 1.53531 12.2936 0.990677 13.8558 1.64684C15.188 2.20614 15.9658 3.5007 15.9367 5.10986V5.10996Z" fill="black" fill-opacity="0.2"/>
<path d="M16.265 2.35689C15.7887 1.60163 15.0911 1.01159 14.2674 0.667179C13.3339 0.275382 12.2856 0.204859 11.2356 0.463744C10.2734 0.701013 9.33626 1.21563 8.49997 1.96217C7.66362 1.21556 6.72633 0.700914 5.76403 0.463677C4.71405 0.204693 3.6656 0.275283 2.73219 0.667345C1.90839 1.01186 1.21086 1.60202 0.734656 2.35738C0.235945 3.14576 -0.01776 4.1045 0.000966544 5.12985C0.0841072 9.68814 6.87421 13.8331 8.23454 14.6178C8.31526 14.6644 8.4068 14.6889 8.49999 14.6889C8.59317 14.6889 8.68471 14.6644 8.76543 14.6178C10.1259 13.833 16.9166 9.68731 16.999 5.12905C17.0175 4.10377 16.7637 3.14513 16.265 2.35689ZM15.9367 5.10996C15.9101 6.58378 14.9277 8.30207 13.0957 10.079C11.3992 11.7245 9.4695 12.9647 8.49997 13.5418C7.53044 12.9648 5.60101 11.7247 3.90466 10.0792C2.07264 8.3024 1.09016 6.58424 1.06327 5.11046C1.03392 3.5012 1.81163 2.20644 3.14364 1.64694C3.58019 1.4646 4.04885 1.37159 4.52194 1.37341C5.74365 1.37341 7.03598 1.96482 8.12116 3.0683C8.1706 3.11857 8.22955 3.15849 8.29458 3.18575C8.35961 3.213 8.42941 3.22704 8.49992 3.22704C8.57043 3.22704 8.64023 3.213 8.70526 3.18575C8.77029 3.15849 8.82924 3.11857 8.87868 3.0683C10.3863 1.53531 12.2936 0.990677 13.8558 1.64684C15.188 2.20614 15.9658 3.5007 15.9367 5.10986V5.10996Z" fill="black" fill-opacity="0.2"/>
<path d="M16.265 2.35689C15.7887 1.60163 15.0911 1.01159 14.2674 0.667179C13.3339 0.275382 12.2856 0.204859 11.2356 0.463744C10.2734 0.701013 9.33626 1.21563 8.49997 1.96217C7.66362 1.21556 6.72633 0.700914 5.76403 0.463677C4.71405 0.204693 3.6656 0.275283 2.73219 0.667345C1.90839 1.01186 1.21086 1.60202 0.734656 2.35738C0.235945 3.14576 -0.01776 4.1045 0.000966544 5.12985C0.0841072 9.68814 6.87421 13.8331 8.23454 14.6178C8.31526 14.6644 8.4068 14.6889 8.49999 14.6889C8.59317 14.6889 8.68471 14.6644 8.76543 14.6178C10.1259 13.833 16.9166 9.68731 16.999 5.12905C17.0175 4.10377 16.7637 3.14513 16.265 2.35689ZM15.9367 5.10996C15.9101 6.58378 14.9277 8.30207 13.0957 10.079C11.3992 11.7245 9.4695 12.9647 8.49997 13.5418C7.53044 12.9648 5.60101 11.7247 3.90466 10.0792C2.07264 8.3024 1.09016 6.58424 1.06327 5.11046C1.03392 3.5012 1.81163 2.20644 3.14364 1.64694C3.58019 1.4646 4.04885 1.37159 4.52194 1.37341C5.74365 1.37341 7.03598 1.96482 8.12116 3.0683C8.1706 3.11857 8.22955 3.15849 8.29458 3.18575C8.35961 3.213 8.42941 3.22704 8.49992 3.22704C8.57043 3.22704 8.64023 3.213 8.70526 3.18575C8.77029 3.15849 8.82924 3.11857 8.87868 3.0683C10.3863 1.53531 12.2936 0.990677 13.8558 1.64684C15.188 2.20614 15.9658 3.5007 15.9367 5.10986V5.10996Z" fill="black" fill-opacity="0.2"/>
<path d="M16.265 2.35689C15.7887 1.60163 15.0911 1.01159 14.2674 0.667179C13.3339 0.275382 12.2856 0.204859 11.2356 0.463744C10.2734 0.701013 9.33626 1.21563 8.49997 1.96217C7.66362 1.21556 6.72633 0.700914 5.76403 0.463677C4.71405 0.204693 3.6656 0.275283 2.73219 0.667345C1.90839 1.01186 1.21086 1.60202 0.734656 2.35738C0.235945 3.14576 -0.01776 4.1045 0.000966544 5.12985C0.0841072 9.68814 6.87421 13.8331 8.23454 14.6178C8.31526 14.6644 8.4068 14.6889 8.49999 14.6889C8.59317 14.6889 8.68471 14.6644 8.76543 14.6178C10.1259 13.833 16.9166 9.68731 16.999 5.12905C17.0175 4.10377 16.7637 3.14513 16.265 2.35689ZM15.9367 5.10996C15.9101 6.58378 14.9277 8.30207 13.0957 10.079C11.3992 11.7245 9.4695 12.9647 8.49997 13.5418C7.53044 12.9648 5.60101 11.7247 3.90466 10.0792C2.07264 8.3024 1.09016 6.58424 1.06327 5.11046C1.03392 3.5012 1.81163 2.20644 3.14364 1.64694C3.58019 1.4646 4.04885 1.37159 4.52194 1.37341C5.74365 1.37341 7.03598 1.96482 8.12116 3.0683C8.1706 3.11857 8.22955 3.15849 8.29458 3.18575C8.35961 3.213 8.42941 3.22704 8.49992 3.22704C8.57043 3.22704 8.64023 3.213 8.70526 3.18575C8.77029 3.15849 8.82924 3.11857 8.87868 3.0683C10.3863 1.53531 12.2936 0.990677 13.8558 1.64684C15.188 2.20614 15.9658 3.5007 15.9367 5.10986V5.10996Z" fill="black" fill-opacity="0.2"/>
<path d="M16.265 2.35689C15.7887 1.60163 15.0911 1.01159 14.2674 0.667179C13.3339 0.275382 12.2856 0.204859 11.2356 0.463744C10.2734 0.701013 9.33626 1.21563 8.49997 1.96217C7.66362 1.21556 6.72633 0.700914 5.76403 0.463677C4.71405 0.204693 3.6656 0.275283 2.73219 0.667345C1.90839 1.01186 1.21086 1.60202 0.734656 2.35738C0.235945 3.14576 -0.01776 4.1045 0.000966544 5.12985C0.0841072 9.68814 6.87421 13.8331 8.23454 14.6178C8.31526 14.6644 8.4068 14.6889 8.49999 14.6889C8.59317 14.6889 8.68471 14.6644 8.76543 14.6178C10.1259 13.833 16.9166 9.68731 16.999 5.12905C17.0175 4.10377 16.7637 3.14513 16.265 2.35689ZM15.9367 5.10996C15.9101 6.58378 14.9277 8.30207 13.0957 10.079C11.3992 11.7245 9.4695 12.9647 8.49997 13.5418C7.53044 12.9648 5.60101 11.7247 3.90466 10.0792C2.07264 8.3024 1.09016 6.58424 1.06327 5.11046C1.03392 3.5012 1.81163 2.20644 3.14364 1.64694C3.58019 1.4646 4.04885 1.37159 4.52194 1.37341C5.74365 1.37341 7.03598 1.96482 8.12116 3.0683C8.1706 3.11857 8.22955 3.15849 8.29458 3.18575C8.35961 3.213 8.42941 3.22704 8.49992 3.22704C8.57043 3.22704 8.64023 3.213 8.70526 3.18575C8.77029 3.15849 8.82924 3.11857 8.87868 3.0683C10.3863 1.53531 12.2936 0.990677 13.8558 1.64684C15.188 2.20614 15.9658 3.5007 15.9367 5.10986V5.10996Z" fill="black" fill-opacity="0.2"/>
<path d="M16.265 2.35689C15.7887 1.60163 15.0911 1.01159 14.2674 0.667179C13.3339 0.275382 12.2856 0.204859 11.2356 0.463744C10.2734 0.701013 9.33626 1.21563 8.49997 1.96217C7.66362 1.21556 6.72633 0.700914 5.76403 0.463677C4.71405 0.204693 3.6656 0.275283 2.73219 0.667345C1.90839 1.01186 1.21086 1.60202 0.734656 2.35738C0.235945 3.14576 -0.01776 4.1045 0.000966544 5.12985C0.0841072 9.68814 6.87421 13.8331 8.23454 14.6178C8.31526 14.6644 8.4068 14.6889 8.49999 14.6889C8.59317 14.6889 8.68471 14.6644 8.76543 14.6178C10.1259 13.833 16.9166 9.68731 16.999 5.12905C17.0175 4.10377 16.7637 3.14513 16.265 2.35689ZM15.9367 5.10996C15.9101 6.58378 14.9277 8.30207 13.0957 10.079C11.3992 11.7245 9.4695 12.9647 8.49997 13.5418C7.53044 12.9648 5.60101 11.7247 3.90466 10.0792C2.07264 8.3024 1.09016 6.58424 1.06327 5.11046C1.03392 3.5012 1.81163 2.20644 3.14364 1.64694C3.58019 1.4646 4.04885 1.37159 4.52194 1.37341C5.74365 1.37341 7.03598 1.96482 8.12116 3.0683C8.1706 3.11857 8.22955 3.15849 8.29458 3.18575C8.35961 3.213 8.42941 3.22704 8.49992 3.22704C8.57043 3.22704 8.64023 3.213 8.70526 3.18575C8.77029 3.15849 8.82924 3.11857 8.87868 3.0683C10.3863 1.53531 12.2936 0.990677 13.8558 1.64684C15.188 2.20614 15.9658 3.5007 15.9367 5.10986V5.10996Z" fill="black" fill-opacity="0.2"/>
<path d="M16.265 2.35689C15.7887 1.60163 15.0911 1.01159 14.2674 0.667179C13.3339 0.275382 12.2856 0.204859 11.2356 0.463744C10.2734 0.701013 9.33626 1.21563 8.49997 1.96217C7.66362 1.21556 6.72633 0.700914 5.76403 0.463677C4.71405 0.204693 3.6656 0.275283 2.73219 0.667345C1.90839 1.01186 1.21086 1.60202 0.734656 2.35738C0.235945 3.14576 -0.01776 4.1045 0.000966544 5.12985C0.0841072 9.68814 6.87421 13.8331 8.23454 14.6178C8.31526 14.6644 8.4068 14.6889 8.49999 14.6889C8.59317 14.6889 8.68471 14.6644 8.76543 14.6178C10.1259 13.833 16.9166 9.68731 16.999 5.12905C17.0175 4.10377 16.7637 3.14513 16.265 2.35689ZM15.9367 5.10996C15.9101 6.58378 14.9277 8.30207 13.0957 10.079C11.3992 11.7245 9.4695 12.9647 8.49997 13.5418C7.53044 12.9648 5.60101 11.7247 3.90466 10.0792C2.07264 8.3024 1.09016 6.58424 1.06327 5.11046C1.03392 3.5012 1.81163 2.20644 3.14364 1.64694C3.58019 1.4646 4.04885 1.37159 4.52194 1.37341C5.74365 1.37341 7.03598 1.96482 8.12116 3.0683C8.1706 3.11857 8.22955 3.15849 8.29458 3.18575C8.35961 3.213 8.42941 3.22704 8.49992 3.22704C8.57043 3.22704 8.64023 3.213 8.70526 3.18575C8.77029 3.15849 8.82924 3.11857 8.87868 3.0683C10.3863 1.53531 12.2936 0.990677 13.8558 1.64684C15.188 2.20614 15.9658 3.5007 15.9367 5.10986V5.10996Z" fill="black" fill-opacity="0.2"/>
<path d="M16.265 2.35689C15.7887 1.60163 15.0911 1.01159 14.2674 0.667179C13.3339 0.275382 12.2856 0.204859 11.2356 0.463744C10.2734 0.701013 9.33626 1.21563 8.49997 1.96217C7.66362 1.21556 6.72633 0.700914 5.76403 0.463677C4.71405 0.204693 3.6656 0.275283 2.73219 0.667345C1.90839 1.01186 1.21086 1.60202 0.734656 2.35738C0.235945 3.14576 -0.01776 4.1045 0.000966544 5.12985C0.0841072 9.68814 6.87421 13.8331 8.23454 14.6178C8.31526 14.6644 8.4068 14.6889 8.49999 14.6889C8.59317 14.6889 8.68471 14.6644 8.76543 14.6178C10.1259 13.833 16.9166 9.68731 16.999 5.12905C17.0175 4.10377 16.7637 3.14513 16.265 2.35689ZM15.9367 5.10996C15.9101 6.58378 14.9277 8.30207 13.0957 10.079C11.3992 11.7245 9.4695 12.9647 8.49997 13.5418C7.53044 12.9648 5.60101 11.7247 3.90466 10.0792C2.07264 8.3024 1.09016 6.58424 1.06327 5.11046C1.03392 3.5012 1.81163 2.20644 3.14364 1.64694C3.58019 1.4646 4.04885 1.37159 4.52194 1.37341C5.74365 1.37341 7.03598 1.96482 8.12116 3.0683C8.1706 3.11857 8.22955 3.15849 8.29458 3.18575C8.35961 3.213 8.42941 3.22704 8.49992 3.22704C8.57043 3.22704 8.64023 3.213 8.70526 3.18575C8.77029 3.15849 8.82924 3.11857 8.87868 3.0683C10.3863 1.53531 12.2936 0.990677 13.8558 1.64684C15.188 2.20614 15.9658 3.5007 15.9367 5.10986V5.10996Z" fill="black" fill-opacity="0.2"/>
<path d="M16.265 2.35689C15.7887 1.60163 15.0911 1.01159 14.2674 0.667179C13.3339 0.275382 12.2856 0.204859 11.2356 0.463744C10.2734 0.701013 9.33626 1.21563 8.49997 1.96217C7.66362 1.21556 6.72633 0.700914 5.76403 0.463677C4.71405 0.204693 3.6656 0.275283 2.73219 0.667345C1.90839 1.01186 1.21086 1.60202 0.734656 2.35738C0.235945 3.14576 -0.01776 4.1045 0.000966544 5.12985C0.0841072 9.68814 6.87421 13.8331 8.23454 14.6178C8.31526 14.6644 8.4068 14.6889 8.49999 14.6889C8.59317 14.6889 8.68471 14.6644 8.76543 14.6178C10.1259 13.833 16.9166 9.68731 16.999 5.12905C17.0175 4.10377 16.7637 3.14513 16.265 2.35689ZM15.9367 5.10996C15.9101 6.58378 14.9277 8.30207 13.0957 10.079C11.3992 11.7245 9.4695 12.9647 8.49997 13.5418C7.53044 12.9648 5.60101 11.7247 3.90466 10.0792C2.07264 8.3024 1.09016 6.58424 1.06327 5.11046C1.03392 3.5012 1.81163 2.20644 3.14364 1.64694C3.58019 1.4646 4.04885 1.37159 4.52194 1.37341C5.74365 1.37341 7.03598 1.96482 8.12116 3.0683C8.1706 3.11857 8.22955 3.15849 8.29458 3.18575C8.35961 3.213 8.42941 3.22704 8.49992 3.22704C8.57043 3.22704 8.64023 3.213 8.70526 3.18575C8.77029 3.15849 8.82924 3.11857 8.87868 3.0683C10.3863 1.53531 12.2936 0.990677 13.8558 1.64684C15.188 2.20614 15.9658 3.5007 15.9367 5.10986V5.10996Z" fill="black" fill-opacity="0.2"/>
<path d="M16.265 2.35689C15.7887 1.60163 15.0911 1.01159 14.2674 0.667179C13.3339 0.275382 12.2856 0.204859 11.2356 0.463744C10.2734 0.701013 9.33626 1.21563 8.49997 1.96217C7.66362 1.21556 6.72633 0.700914 5.76403 0.463677C4.71405 0.204693 3.6656 0.275283 2.73219 0.667345C1.90839 1.01186 1.21086 1.60202 0.734656 2.35738C0.235945 3.14576 -0.01776 4.1045 0.000966544 5.12985C0.0841072 9.68814 6.87421 13.8331 8.23454 14.6178C8.31526 14.6644 8.4068 14.6889 8.49999 14.6889C8.59317 14.6889 8.68471 14.6644 8.76543 14.6178C10.1259 13.833 16.9166 9.68731 16.999 5.12905C17.0175 4.10377 16.7637 3.14513 16.265 2.35689ZM15.9367 5.10996C15.9101 6.58378 14.9277 8.30207 13.0957 10.079C11.3992 11.7245 9.4695 12.9647 8.49997 13.5418C7.53044 12.9648 5.60101 11.7247 3.90466 10.0792C2.07264 8.3024 1.09016 6.58424 1.06327 5.11046C1.03392 3.5012 1.81163 2.20644 3.14364 1.64694C3.58019 1.4646 4.04885 1.37159 4.52194 1.37341C5.74365 1.37341 7.03598 1.96482 8.12116 3.0683C8.1706 3.11857 8.22955 3.15849 8.29458 3.18575C8.35961 3.213 8.42941 3.22704 8.49992 3.22704C8.57043 3.22704 8.64023 3.213 8.70526 3.18575C8.77029 3.15849 8.82924 3.11857 8.87868 3.0683C10.3863 1.53531 12.2936 0.990677 13.8558 1.64684C15.188 2.20614 15.9658 3.5007 15.9367 5.10986V5.10996Z" fill="black" fill-opacity="0.2"/>
<path d="M16.265 2.35689C15.7887 1.60163 15.0911 1.01159 14.2674 0.667179C13.3339 0.275382 12.2856 0.204859 11.2356 0.463744C10.2734 0.701013 9.33626 1.21563 8.49997 1.96217C7.66362 1.21556 6.72633 0.700914 5.76403 0.463677C4.71405 0.204693 3.6656 0.275283 2.73219 0.667345C1.90839 1.01186 1.21086 1.60202 0.734656 2.35738C0.235945 3.14576 -0.01776 4.1045 0.000966544 5.12985C0.0841072 9.68814 6.87421 13.8331 8.23454 14.6178C8.31526 14.6644 8.4068 14.6889 8.49999 14.6889C8.59317 14.6889 8.68471 14.6644 8.76543 14.6178C10.1259 13.833 16.9166 9.68731 16.999 5.12905C17.0175 4.10377 16.7637 3.14513 16.265 2.35689ZM15.9367 5.10996C15.9101 6.58378 14.9277 8.30207 13.0957 10.079C11.3992 11.7245 9.4695 12.9647 8.49997 13.5418C7.53044 12.9648 5.60101 11.7247 3.90466 10.0792C2.07264 8.3024 1.09016 6.58424 1.06327 5.11046C1.03392 3.5012 1.81163 2.20644 3.14364 1.64694C3.58019 1.4646 4.04885 1.37159 4.52194 1.37341C5.74365 1.37341 7.03598 1.96482 8.12116 3.0683C8.1706 3.11857 8.22955 3.15849 8.29458 3.18575C8.35961 3.213 8.42941 3.22704 8.49992 3.22704C8.57043 3.22704 8.64023 3.213 8.70526 3.18575C8.77029 3.15849 8.82924 3.11857 8.87868 3.0683C10.3863 1.53531 12.2936 0.990677 13.8558 1.64684C15.188 2.20614 15.9658 3.5007 15.9367 5.10986V5.10996Z" fill="black" fill-opacity="0.2"/>
</g>
</g>
</svg>
